<?xml version="1.0" encoding="utf-8"?>
<!-- Generator: Adobe Illustrator 21.1.0, SVG Export Plug-In . SVG Version: 6.00 Build 0)  -->
<svg version="1.1" id="Capa_1" xmlns="http://www.w3.org/2000/svg" xmlns:xlink="http://www.w3.org/1999/xlink" x="0px" y="0px"
	 viewBox="0 0 58 58" style="enable-background:new 0 0 58 58;" xml:space="preserve">
<style type="text/css">
	.st0{fill:#606060;}
	.st1{fill:#4A4A4A;}
	.st2{fill:#858585;}
</style>
<path class="st0" d="M54.4,19.5H3.6c-2,0-3.6-1.6-3.6-3.6V4.1c0-2,1.6-3.6,3.6-3.6h50.8c2,0,3.6,1.6,3.6,3.6v11.8
	C58,17.9,56.4,19.5,54.4,19.5z"/>
<path class="st1" d="M54.4,38.5H3.6c-2,0-3.6-1.6-3.6-3.6V23.1c0-2,1.6-3.6,3.6-3.6h50.8c2,0,3.6,1.6,3.6,3.6v11.8
	C58,36.9,56.4,38.5,54.4,38.5z"/>
<path class="st0" d="M54.4,57.5H3.6c-2,0-3.6-1.6-3.6-3.6V42.1c0-2,1.6-3.6,3.6-3.6h50.8c2,0,3.6,1.6,3.6,3.6v11.8
	C58,55.9,56.4,57.5,54.4,57.5z"/>
<circle class="st2" cx="9.5" cy="10" r="3.5"/>
<circle class="st2" cx="49" cy="8.5" r="1"/>
<circle class="st2" cx="45" cy="8.5" r="1"/>
<circle class="st2" cx="51" cy="11.5" r="1"/>
<circle class="st2" cx="47" cy="11.5" r="1"/>
<circle class="st2" cx="41" cy="8.5" r="1"/>
<circle class="st2" cx="43" cy="11.5" r="1"/>
<circle class="st2" cx="37" cy="8.5" r="1"/>
<circle class="st2" cx="39" cy="11.5" r="1"/>
<circle class="st2" cx="33" cy="8.5" r="1"/>
<circle class="st2" cx="35" cy="11.5" r="1"/>
<circle class="st2" cx="9.5" cy="29" r="3.5"/>
<circle class="st2" cx="49" cy="27.5" r="1"/>
<circle class="st2" cx="45" cy="27.5" r="1"/>
<circle class="st2" cx="51" cy="30.5" r="1"/>
<circle class="st2" cx="47" cy="30.5" r="1"/>
<circle class="st2" cx="41" cy="27.5" r="1"/>
<circle class="st2" cx="43" cy="30.5" r="1"/>
<circle class="st2" cx="37" cy="27.5" r="1"/>
<circle class="st2" cx="39" cy="30.5" r="1"/>
<circle class="st2" cx="33" cy="27.5" r="1"/>
<circle class="st2" cx="35" cy="30.5" r="1"/>
<circle class="st2" cx="9.5" cy="48" r="3.5"/>
<circle class="st2" cx="49" cy="46.5" r="1"/>
<circle class="st2" cx="45" cy="46.5" r="1"/>
<circle class="st2" cx="51" cy="49.5" r="1"/>
<circle class="st2" cx="47" cy="49.5" r="1"/>
<circle class="st2" cx="41" cy="46.5" r="1"/>
<circle class="st2" cx="43" cy="49.5" r="1"/>
<circle class="st2" cx="37" cy="46.5" r="1"/>
<circle class="st2" cx="39" cy="49.5" r="1"/>
<circle class="st2" cx="33" cy="46.5" r="1"/>
<circle class="st2" cx="35" cy="49.5" r="1"/>
</svg>
