<?xml version="1.0" encoding="utf-8"?>
<!-- Generator: Adobe Illustrator 21.1.0, SVG Export Plug-In . SVG Version: 6.00 Build 0)  -->
<svg version="1.1" id="Capa_1" xmlns="http://www.w3.org/2000/svg" xmlns:xlink="http://www.w3.org/1999/xlink" x="0px" y="0px"
	 viewBox="0 0 472 472" style="enable-background:new 0 0 472 472;" xml:space="preserve">
<g>
	<path d="M400,390V41c0-10.7-4-20.2-12-28.5S370.3,0,359,0H113c-11.3,0-21,4.2-29,12.5S72,30.3,72,41v390c0,10.7,4,20.2,12,28.5
		s17.7,12.5,29,12.5h246c8.7,0,15.3-0.3,20-1s9.3-2.5,14-5.5s7-7.8,7-14.5v-10H123c-5.3,0-10-2-14-6s-6-9-6-15v-30H400z M123,82
		c0-2.7,1-5,3-7s4.7-3,8-3h204c3.3,0,6,1,8,3s3,4.3,3,7v21c0,2.7-1,5-3,7s-4.7,3-8,3H134c-3.3,0-6-1-8-3s-3-4.3-3-7V82z M123,164
		c0-2.7,1-5,3-7s4.7-3,8-3h204c3.3,0,6,1,8,3s3,4.3,3,7v21c0,2.7-1,5-3,7s-4.7,3-8,3H134c-3.3,0-6-1-8-3s-3-4.3-3-7V164z"/>
</g>
</svg>
