<?xml version="1.0" encoding="utf-8"?>
<!-- Generator: Adobe Illustrator 21.1.0, SVG Export Plug-In . SVG Version: 6.00 Build 0)  -->
<svg version="1.1" id="Capa_1" xmlns="http://www.w3.org/2000/svg" xmlns:xlink="http://www.w3.org/1999/xlink" x="0px" y="0px"
	 viewBox="0 0 53 53" style="enable-background:new 0 0 53 53;" xml:space="preserve">
<style type="text/css">
	.st0{fill:#4A4A4A;}
	.st1{fill:#C9C9C9;}
	.st2{fill:#A3A3A3;}
	.st3{fill:#858585;}
</style>
<path class="st0" d="M50.5,8L50.5,8c-0.7-4.5-11.2-8-24-8S3.3,3.5,2.5,8l0,0h0v0.5V20v0.5V21v11v0.5V33v12h0c0.7,4.5,11.2,8,24,8
	s23.2-3.5,24-8h0V33v-0.5V32V21v-0.5V20V8.5L50.5,8L50.5,8z"/>
<g>
	<path class="st0" d="M26.5,41c-13.3,0-24-3.8-24-8.5V45h0c0.7,4.5,11.2,8,24,8s23.2-3.5,24-8h0V32.5C50.5,37.2,39.8,41,26.5,41z"/>
	<path class="st0" d="M2.5,32v0.5C2.5,32.3,2.5,32.2,2.5,32L2.5,32z"/>
	<path class="st0" d="M50.5,32c0,0.2,0,0.3,0,0.5L50.5,32L50.5,32z"/>
</g>
<g>
	<path class="st1" d="M26.5,29c-13.3,0-24-3.8-24-8.5V33h0c0.7,4.5,11.2,8,24,8s23.2-3.5,24-8h0V20.5C50.5,25.2,39.8,29,26.5,29z"/>
	<path class="st1" d="M2.5,20v0.5C2.5,20.3,2.5,20.2,2.5,20L2.5,20z"/>
	<path class="st1" d="M50.5,20c0,0.2,0,0.3,0,0.5L50.5,20L50.5,20z"/>
</g>
<ellipse class="st2" cx="26.5" cy="8.5" rx="24" ry="8.5"/>
<g>
	<path class="st3" d="M26.5,17c-13.3,0-24-3.8-24-8.5V21h0c0.7,4.5,11.2,8,24,8s23.2-3.5,24-8h0V8.5C50.5,13.2,39.8,17,26.5,17z"/>
	<path class="st3" d="M2.5,8v0.5C2.5,8.3,2.5,8.2,2.5,8L2.5,8z"/>
	<path class="st3" d="M50.5,8c0,0.2,0,0.3,0,0.5L50.5,8L50.5,8z"/>
</g>
</svg>
