<?xml version="1.0" encoding="utf-8"?>
<!-- Generator: Adobe Illustrator 21.1.0, SVG Export Plug-In . SVG Version: 6.00 Build 0)  -->
<svg version="1.1" id="Capa_1" xmlns="http://www.w3.org/2000/svg" xmlns:xlink="http://www.w3.org/1999/xlink" x="0px" y="0px"
	 viewBox="0 0 504.1 504.1" style="enable-background:new 0 0 504.1 504.1;" xml:space="preserve">
<style type="text/css">
	.st0{fill:#9A9A9A;}
	.st1{fill:#303030;}
	.st2{fill:#FFFFFF;}
	.st3{fill:#848484;}
	.st4{fill:#C5C5C5;}
	.st5{fill:#8A8A8A;}
	.st6{fill:#E3E3E3;}
</style>
<rect x="177.2" y="101.6" class="st0" width="94.5" height="313.5"/>
<path class="st1" d="M271.8,423h-94.5c-3.9,0-7.9-3.2-7.9-7.9V101.6c0-3.9,3.2-7.9,7.9-7.9h94.5c3.9,0,7.9,3.2,7.9,7.9v313.5
	C279.6,419.8,276.5,423,271.8,423z M185.1,407.2h78.8V109.5h-78.8L185.1,407.2L185.1,407.2z"/>
<rect x="208" y="132.3" class="st2" width="33.1" height="251.3"/>
<path class="st3" d="M97.7,315.9h-48L15,384.4c0,0,37,52.8,59.1,112.6c22.1-59.1,59.1-112.6,59.1-112.6L97.7,315.9z"/>
<path class="st1" d="M74,504.1L74,504.1c-3.2,0-6.3-2.4-7.1-4.7C45.7,441.9,9.5,389.1,8.7,389.1c-1.6-2.4-1.6-5.5-0.8-7.9l34.7-68.5
	c1.6-2.4,3.9-3.9,7.1-3.9h48c3.2,0,5.5,1.6,7.1,3.9l34.7,68.5c1.6,2.4,0.8,5.5-0.8,7.9c0,0.8-37,52.8-58.3,110.3
	C79.6,501.8,77.2,504.1,74,504.1z M23.6,383.6c7.9,11.8,31.5,48.8,50.4,92.2c18.1-43.3,42.5-80.3,50.4-92.2l-30.7-59.9H54.4
	L23.6,383.6z"/>
<g>
	<path class="st2" d="M74,441.1c-12.6-25.2-26-46.5-33.9-59.1L63,337.1h21.3l22.8,44.9C99.2,394.6,86.6,415.9,74,441.1z"/>
	<rect x="34.7" y="285.9" class="st2" width="78" height="29.9"/>
</g>
<path class="st1" d="M112.6,323.7h-78c-3.9,0-7.9-3.2-7.9-7.9v-29.9c0-2.4,0.8-3.9,2.4-5.5s3.2-2.4,5.5-2.4l0,0h78
	c3.9,0,7.9,3.2,7.9,7.9v29.9C120.5,319.8,117.4,323.7,112.6,323.7z M42.5,308h63v-14.2h-63V308z"/>
<path class="st4" d="M74,15.8c-26.8,0-48.8,22.1-48.8,48.8v221.3h97.7V64.6C122.9,37,100.8,15.8,74,15.8z"/>
<path class="st1" d="M122.9,293.8H25.2c-3.9,0-7.9-3.2-7.9-7.9V64.6C17.3,33.1,42.5,7.9,74,7.9s56,25.2,56,56.7v221.3
	C130,289.9,126.8,293.8,122.9,293.8z M32.3,278.1h81.9V64.6c0-22.8-18.1-41-41-41s-41,18.1-41,41v213.5H32.3z"/>
<path class="st2" d="M55.9,254.4V64.6c0-9.5,7.9-18.1,18.1-18.1s18.1,7.9,18.1,18.1v190.6H55.9V254.4z"/>
<circle class="st1" cx="74" cy="387.5" r="14.2"/>
<path class="st1" d="M74,502.5c-3.2,0-5.5-2.4-5.5-5.5v-94.5c0-3.2,2.4-5.5,5.5-5.5s5.5,2.4,5.5,5.5V497
	C79.6,499.4,77.2,502.5,74,502.5z"/>
<path class="st5" d="M251.3,15.8h-52.8c-11.8,0-21.3,9.5-21.3,21.3v65.4h94.5V36.2C271.8,25.2,262.3,15.8,251.3,15.8z"/>
<path class="st1" d="M271.8,109.5h-94.5c-3.9,0-7.9-3.2-7.9-7.9V36.2c0-15.8,12.6-28.4,28.4-28.4h53.6c15.8,0,28.4,12.6,28.4,28.4
	v65.4C279.6,106.3,276.5,109.5,271.8,109.5z M185.1,93.7h78.8V36.2c0-7.1-5.5-12.6-12.6-12.6h-53.6c-7.1,0-12.6,5.5-12.6,12.6V93.7
	L185.1,93.7z"/>
<polygon class="st4" points="224.5,496.2 271.8,415.1 177.2,415.1 "/>
<path class="st1" d="M224.5,504.1L224.5,504.1c-2.4,0-5.5-1.6-6.3-3.9l-47.3-81.1c-1.6-2.4-1.6-5.5,0-7.9s3.9-3.9,7.1-3.9h94.5
	c3.2,0,5.5,1.6,7.1,3.9s1.6,5.5,0,7.9l-47.3,81.1C230,502.5,227.6,504.1,224.5,504.1z M190.6,423l33.9,57.5l33.9-57.5H190.6
	L190.6,423z"/>
<path class="st5" d="M318.2,364.7v92.9c0,21.3,17.3,38.6,38.6,38.6h96.1c21.3,0,38.6-17.3,38.6-38.6v-92.9H318.2L318.2,364.7z"/>
<path class="st1" d="M453.7,504.1h-96.1c-26,0-46.5-20.5-46.5-46.5v-92.9c0-3.9,3.2-7.9,7.9-7.9h173.3c3.9,0,7.9,3.2,7.9,7.9v92.9
	C500.2,482.9,479.7,504.1,453.7,504.1z M326.1,372.6v85.1c0,17.3,14.2,30.7,30.7,30.7h96.1c17.3,0,30.7-14.2,30.7-30.7v-85.1H326.1z
	"/>
<g>
	<path class="st2" d="M418.3,473.4h-53.6c-12.6,0-22.8-10.2-22.8-22.8v-19.7c0-3.9,3.2-7.9,7.9-7.9s7.9,3.2,7.9,7.9v19.7
		c0,3.9,3.2,7.1,7.1,7.1h53.6c3.9,0,7.9,3.2,7.9,7.9C426.1,470.3,422.2,473.4,418.3,473.4z"/>
	<path class="st2" d="M318.2,341.9v23.6h86.6V255.2C357.6,254.4,318.2,293.8,318.2,341.9z"/>
</g>
<path class="st1" d="M405.7,372.6H319c-3.9,0-7.9-3.2-7.9-7.9v-23.6c0-52,42.5-94.5,94.5-94.5c3.9,0,7.9,3.2,7.9,7.9v110.3
	C413.5,369.4,409.6,372.6,405.7,372.6z M326.1,356.8h71.7v-94.5c-40.2,3.9-71.7,37.8-71.7,78.8L326.1,356.8L326.1,356.8z"/>
<path class="st6" d="M492.3,341.9c0-48-38.6-86.6-86.6-86.6v110.3h86.6V341.9z"/>
<path class="st1" d="M492.3,372.6h-86.6c-3.9,0-7.9-3.2-7.9-7.9V254.4c0-3.9,3.2-7.9,7.9-7.9c52,0,94.5,42.5,94.5,94.5v23.6
	C500.2,369.4,497,372.6,492.3,372.6z M413.5,356.8h70.9V341c0-41-31.5-74.8-71.7-78.8v94.5L413.5,356.8L413.5,356.8z"/>
<path class="st2" d="M405.7,279.6c-10.2,0-18.9,8.7-18.9,18.9v22.1c0,10.2,8.7,18.9,18.9,18.9s18.9-8.7,18.9-18.9v-22.1
	C424.6,288.3,415.9,279.6,405.7,279.6z"/>
<g>
	<path class="st1" d="M405.7,347.4c-15,0-26.8-11.8-26.8-26.8v-22.1c0-15,11.8-26.8,26.8-26.8s26.8,11.8,26.8,26.8v22.1
		C431.7,335.6,419.8,347.4,405.7,347.4z M405.7,287.5c-6.3,0-11,4.7-11,11v22.1c0,6.3,4.7,11,11,11s11-4.7,11-11v-22.1
		C416.7,292.2,411.2,287.5,405.7,287.5z"/>
	<path class="st1" d="M405.7,262.3c-3.9,0-7.9-3.2-7.9-7.9v-44.1c0-3.9,3.2-7.9,7.9-7.9h26c9.5,0,16.5-7.1,16.5-16.5
		s-7.9-16.5-16.5-16.5h-74c-19.7,0-36.2-16.5-36.2-36.2S338,97,357.7,97h74.8c8.7,0,15.8-7.1,15.8-15.8s-7.1-15.8-15.8-15.8h-26.8
		c-3.9,0-7.9-3.2-7.9-7.9V7.9c0-3.9,3.2-7.9,7.9-7.9s7.9,3.2,7.9,7.9v43.3h18.9c17.3,0,30.7,14.2,30.7,30.7
		c0,17.3-14.2,30.7-30.7,30.7h-74.8c-11,0-20.5,9.5-20.5,20.5s9.5,20.5,20.5,20.5h74c17.3,0,32.3,14.2,32.3,32.3
		c0,17.3-14.2,32.3-32.3,32.3h-18.1v36.2C413.5,259.2,409.6,262.3,405.7,262.3z"/>
</g>
</svg>
