<svg xmlns="http://www.w3.org/2000/svg" viewBox="0 0 400 400"><title>logo</title><g id="Layer_1" data-name="Layer 1"><rect x="222.8" y="262.08" width="108.03" height="108.03" transform="translate(-142.44 288.32) rotate(-45)"/><path d="M276.81,240.41l75.68,75.68-75.68,75.68-75.68-75.68,75.68-75.68m0-1.41-77.1,77.1,77.1,77.1,77.1-77.1L276.81,239Z"/></g><g id="Layer_2" data-name="Layer 2"><rect x="91.19" y="52.88" width="217.06" height="217.06" transform="translate(-55.64 188.5) rotate(-45)"/><path d="M199.72,8.63,352.49,161.41,199.72,314.18,46.94,161.41,199.72,8.63m0-1.41L45.52,161.41,199.72,315.6,353.91,161.41,199.72,7.22Z"/></g><g id="Layer_3" data-name="Layer 3"><rect x="68.61" y="262.08" width="108.03" height="108.03" transform="translate(-187.6 179.29) rotate(-45)"/><path d="M122.62,240.41l75.68,75.68-75.68,75.68L46.94,316.09l75.68-75.68m0-1.41-77.1,77.1,77.1,77.1,77.1-77.1L122.62,239Z"/></g></svg>