<?xml version="1.0" encoding="utf-8"?>
<!-- Generator: Adobe Illustrator 21.1.0, SVG Export Plug-In . SVG Version: 6.00 Build 0)  -->
<svg version="1.1" id="Capa_1" xmlns="http://www.w3.org/2000/svg" xmlns:xlink="http://www.w3.org/1999/xlink" x="0px" y="0px"
	 viewBox="0 0 512 512" style="enable-background:new 0 0 512 512;" xml:space="preserve">
<style type="text/css">
	.st0{fill:#828282;}
	.st1{fill:#E7E7E7;}
	.st2{fill:#C3C3C3;}
	.st3{fill:#535353;}
	.st4{fill:#A3A3A3;}
	.st5{fill:#D6D6D6;}
	.st6{fill:#FEFEFE;}
	.st7{fill:#6C6C6C;}
	.st8{fill:#393939;}
	.st9{fill:#999999;}
	.st10{fill:#B7B7B7;}
	.st11{fill:#D4D4D4;}
</style>
<circle class="st0" cx="256" cy="256" r="256"/>
<path class="st1" d="M164.3,390.7c-1.7,4.2-2.5,8.4-3.4,12.9c-1.2,5.7-5.5,10.2-7.4,15.7c-3.6,10.4-2,21.4-0.3,32h-35.3
	c0.3-3.4-1.5-6.8-6-7.5c-0.6-0.1-1.2-0.2-1.8-0.3c0.4-0.2,0.4-1,0-2.4c0.1-3.1-0.3-6.1-1-9.1c-1.2-5.7,0.1-10.9-2.4-16.4
	c-2-4.3-6-5-9.3-3.6v-17.8c1.6-0.9,3.1-1.7,4.3-2.5c0.8-0.5,1.5-1,2.1-1.4c0.6-0.4,1.1-0.9,1.6-1.3c2-1.8,3.3-3.8,4.3-5.8
	c3.6-7.7,1.1-15.9,1.1-15.9h46.1c0,0-2.4,7.7,0.8,15.2c0.7,1.6,1.5,3.1,2.7,4.6c0.9,1.2,2.1,2.3,3.4,3.3
	C164,390.5,164.1,390.6,164.3,390.7z"/>
<path class="st2" d="M153.7,403.5c2-2.1,4.9-2.8,7.6-2.2c0.8-3.7,1.5-7.2,3-10.6c-0.1-0.1-0.3-0.2-0.4-0.3c-1.4-1-2.5-2.2-3.4-3.3
	c-1.2-1.5-2.1-3-2.7-4.6c-3.2-7.5-0.8-15.2-0.8-15.2h-46.1c0,0,2.5,8.2-1.1,15.9c-1,2-2.3,4-4.3,5.8c-0.5,0.5-1,0.9-1.6,1.3
	c-0.6,0.5-1.3,0.9-2.1,1.4c-1.2,0.8-2.7,1.6-4.3,2.5v7.9c4.6-7.1,12.6-10.3,16.6-2.9c4.2-2.1,9.6-1.3,10.9,4.1
	c0.9-0.1,1.9-0.1,2.9,0.2c2.2,0.5,5.8,3,8.1,2.4c3.5-1,6.8-2.7,10.3-3.7c3-0.8,5.5,0,7.3,1.6C153.5,403.7,153.6,403.6,153.7,403.5z"
	/>
<g>
	<path class="st3" d="M113.4,442.2c0-1.6-0.3-6.4-0.1-7.9c-0.4-1.2-0.6-4.6-0.6-6h-2.2v-5.6c-2.1-2.1-2.5-4.2-2.5-6.8
		c-1.5-1.6-2.7-3.7-3-5.7c-0.1-0.8-0.2-1.5-0.2-2.2c-1.5-1.7-2.8-5.6-3.1-7.5c-1.3-2.1-1.7-5.4-1.4-7.9c-2.1,1.2-4.6,2.6-7.4,4
		c-9.6,4.8-22.9,10.4-33.5,14.7c-10.7,4.3-17.7,14.7-17.7,26.2v13.8h77.3V450C115.8,448.9,113.5,445.8,113.4,442.2z"/>
	<path class="st3" d="M154.3,435.7c0-0.5,0-1-0.1-1.4c0.4-1.2,0.6-4.6,0.6-6h2.2v-5.6c1.5-1.5,2.5-3.6,2.5-5.9c0-0.3,0-0.6,0-1
		c2.3-2.4,3.2-5.1,3.3-7.9c1.5-1.7,2.8-5.6,3.1-7.5c1.3-2.1,1.7-5.4,1.4-7.9c2.1,1.2,4.6,2.6,7.4,4c9.6,4.8,22.9,10.4,33.5,14.7
		c10.7,4.3,17.7,14.7,17.7,26.2v13.8h-77.3V450C154.7,447.9,154.3,442.2,154.3,435.7z"/>
</g>
<polygon class="st0" points="148.4,451.3 117.9,451.3 127.1,415.6 137.6,415.6 "/>
<path class="st4" d="M128,422.7c0,0-12.8-2.5-4.8-21.2l9.7-6.1l7.6,3.1l5.5,9.4c0,0-3.6,16-12.3,14.8L128,422.7L128,422.7z"/>
<g>
	<path class="st5" d="M94.8,333c0,28,16.8,50.7,37.6,50.7S170,361,170,333l-4.3-23.3c0,0-9.1-7.1-10.4-8.4
		c-1.3-1.3-14.1-4.3-14.1-4.3l-28.7,1.9l-10.6,8.9L98.3,321L94.8,333z"/>
	<ellipse transform="matrix(0.9356 -0.3531 0.3531 0.9356 -114.8964 56.3478)" class="st5" cx="97" cy="343.1" rx="6" ry="12.9"/>
	<ellipse transform="matrix(0.3531 -0.9356 0.9356 0.3531 -211.6937 379.9357)" class="st5" cx="168.9" cy="343" rx="12.9" ry="6"/>
</g>
<g>
	<path class="st6" d="M132.9,395.5L118.1,417l-16.5-25.2c0.8-0.5,1.5-1,2.1-1.4c2.8-2.1,4.7-4.6,5.9-7.2L132.9,395.5z"/>
	<path class="st6" d="M164.8,391l-17,26l-14.8-21.6l24.7-13c1.2,2.8,3.1,5.5,6.2,7.9C164.1,390.6,164.4,390.8,164.8,391z"/>
</g>
<g>
	<path class="st7" d="M125.1,451.3h-18.8l-12.5-23.5l12.1-9.3L91.3,420l1.6-23.4c3.5-1.7,6.5-3.4,8.7-4.8c0.8-0.5,1.5-1,2.1-1.4
		c0.6-0.4,1.1-0.9,1.6-1.3L125.1,451.3z"/>
	<path class="st7" d="M159.2,418.5l12.1,9.3l-12.5,23.5H140l20.4-64.3c0.9,1.2,2.1,2.3,3.4,3.3c0.3,0.2,0.6,0.4,0.9,0.7
		c1.8,1.3,4.4,2.7,7.3,4.3l1.7,24.7L159.2,418.5z"/>
	<path class="st7" d="M153.8,305.8c0,0,16.7,2.5,10.2,34.5h4.8c0,0,9.2-22.6,1.4-36.6L153.8,305.8z"/>
</g>
<path class="st3" d="M173.7,303.6c0,0-24.1,29.9-69.4,6.3c0,0-10.1,5.6-3.8,30.4h-5.8c0,0-7-25.5-0.4-35.8c0,0-4.5-5-2.8-10.1
	c0,0,2.4,4.8,5.7,6c0,0-6.5-7.2-1.2-14.5c0,0,0.1,7.3,4.7,9.4C100.6,295.3,137.2,257.7,173.7,303.6z"/>
<g>
	<path class="st6" d="M126.6,333.9c-0.6,4.2-4.2,12.3-13.1,12.3h-2.6c-4.5,0-8.2-3-8.9-8.5v-6.6c0,0-0.2-6,7.9-5.7h8.2
		c0,0,7.4,0.7,8.6,4.8L126.6,333.9L126.6,333.9z"/>
	<path class="st6" d="M162.6,331.1v6.6c-0.6,5.5-4.4,8.5-8.9,8.5h-2.6c-7.6,0-12.3-6.3-13.1-12.3v-3.7c1.2-4.1,8.6-4.8,8.6-4.8h8.2
		C162.8,325.1,162.6,331.1,162.6,331.1z"/>
</g>
<path class="st8" d="M142.3,324.5c-6.5,1.7-13.7,1.7-20.2,0c-12.9-3.3-30.2,1.2-30.2,1.2l0.5,3.5c1.7-0.2,2.9,0.1,3.9,0.4
	c1.4,0.5,2.4,1.8,2.5,3.3l0.2,3.3c0.9,11.8,10.5,11.4,10.5,11.4h5.5c9.1,0,13.5-8.6,14.1-12.8c0.6-3.6,3.1-3.8,3.1-3.8
	s2.5,0.2,3.1,3.8c0.6,4.2,4.9,12.8,14.4,12.8h5.2c0,0,9.7,0.4,10.5-11.4l0.2-3.3c0.1-1.5,1.1-2.8,2.5-3.3c0.9-0.3,2.2-0.6,3.9-0.4
	l0.6-3.5C172.6,325.7,155.1,321.1,142.3,324.5z M126.6,333.9c-0.6,4.2-4.2,12.3-13.1,12.3h-2.6c-4.5,0-8.2-3-8.9-8.5v-6.6
	c0,0-0.2-6,7.9-5.7h8.2c0,0,7.4,0.7,8.6,4.8L126.6,333.9L126.6,333.9z M162.6,331.1v6.6c-0.6,5.5-4.4,8.5-8.9,8.5h-2.6
	c-7.6,0-12.3-6.3-13.1-12.3v-3.7c1.2-4.1,8.6-4.8,8.6-4.8h8.2C162.8,325.1,162.6,331.1,162.6,331.1z"/>
<path class="st2" d="M139.5,368.4h-14.2c-1.4,0-2.6-1.2-2.6-2.6l0,0c0-1.4,1.2-2.6,2.6-2.6h14.2c1.4,0,2.6,1.2,2.6,2.6l0,0
	C142.1,367.3,140.9,368.4,139.5,368.4z"/>
<ellipse class="st9" cx="388.4" cy="364.8" rx="40.4" ry="69.7"/>
<path class="st1" d="M417,391c-1.7,4.1-2.5,8.3-3.4,12.8c-1.2,5.7-5.5,10.2-7.3,15.6c-3.5,10.4-2,21.2-0.3,31.8h-35.1
	c0.3-3.4-1.5-6.7-5.9-7.4c-0.6-0.1-1.2-0.2-1.8-0.3c0.4-0.2,0.4-1,0-2.4c0.1-3.1-0.3-6.1-1-9.1c-1.2-5.7,0.1-10.8-2.4-16.3
	c-2-4.3-5.9-5-9.3-3.6v-17.7c1.6-0.9,3.1-1.7,4.3-2.5c0.8-0.5,1.5-1,2.1-1.4c0.6-0.4,1.1-0.9,1.6-1.3c1.9-1.8,3.3-3.8,4.3-5.8
	c3.6-7.7,1.1-15.8,1.1-15.8h45.9c0,0-2.4,7.6,0.8,15.1c0.6,1.5,1.5,3.1,2.7,4.5c0.9,1.2,2.1,2.3,3.4,3.3
	C416.7,390.8,416.9,390.9,417,391z"/>
<path class="st2" d="M406.5,403.8c1.9-2.1,4.9-2.7,7.5-2.2c0.7-3.7,1.5-7.1,3-10.6c-0.1-0.1-0.3-0.2-0.4-0.3c-1.4-1-2.5-2.1-3.4-3.3
	c-1.2-1.5-2.1-3-2.7-4.5c-3.2-7.5-0.8-15.1-0.8-15.1h-45.9c0,0,2.5,8.1-1.1,15.8c-1,2-2.3,4-4.3,5.8c-0.5,0.5-1,0.9-1.6,1.3
	c-0.6,0.5-1.3,0.9-2.1,1.4c-1.2,0.8-2.7,1.6-4.3,2.5v7.8c4.6-7.1,12.5-10.2,16.5-2.9c4.1-2.1,9.5-1.3,10.9,4.1
	c0.9-0.1,1.9-0.1,2.9,0.2c2.2,0.5,5.8,3,8,2.4c3.5-1,6.7-2.7,10.2-3.7c3-0.8,5.5,0,7.3,1.6C406.3,404,406.4,403.9,406.5,403.8z"/>
<g>
	<path class="st3" d="M366.4,442.2c0-1.6-0.3-6.4-0.1-7.9c-0.4-1.2-0.6-4.6-0.6-5.9h-2.1v-5.5c-2.1-2.1-2.5-4.2-2.5-6.8
		c-2.2-2.4-3.2-5-3.2-7.9c-1.5-1.7-2.8-5.6-3.1-7.5c-1.3-2.1-1.7-5.4-1.4-7.8c-2.1,1.2-4.5,2.6-7.4,4c-9.6,4.8-22.8,10.4-33.3,14.7
		c-10.6,4.3-17.6,14.6-17.6,26.1v13.7h76.9V450C368.8,448.9,366.5,445.8,366.4,442.2z"/>
	<path class="st3" d="M407.1,435.8c0-0.5,0-1-0.1-1.4c0.4-1.2,0.6-4.6,0.6-5.9h2.1v-5.5c2.1-2.1,2.5-4.2,2.5-6.8
		c2.2-2.4,3.2-5,3.2-7.9c1.6-1.8,2.8-5.7,3.1-7.5c1.3-2.1,1.7-5.4,1.4-7.8c2.1,1.2,4.5,2.6,7.4,4c9.6,4.8,22.8,10.4,33.3,14.7
		c10.6,4.3,17.6,14.6,17.6,26.1v13.7h-76.9V450C407.4,447.9,407.1,442.2,407.1,435.8z"/>
</g>
<polygon class="st0" points="401.2,451.3 370.9,451.3 380,415.7 390.5,415.7 "/>
<path class="st4" d="M380.9,422.9c0,0-12.7-2.5-4.7-21l9.7-6.1l7.6,3.1l5.5,9.4c0,0-3.6,15.9-12.2,14.7H380.9z"/>
<g>
	<path class="st5" d="M347.9,333.6c0,27.9,16.7,50.4,37.4,50.4s37.4-22.6,37.4-50.4l-4.3-23.2c0,0-9.1-7-10.4-8.3
		s-14.1-4.3-14.1-4.3l-28.5,1.9l-10.5,8.9C350.1,326.7,347.9,333.6,347.9,333.6z"/>
	<path class="st5" d="M355.6,341.6c2.5,6.6,2,12.9-1,14.1c-3.1,1.2-7.6-3.3-10.1-9.9C338.6,329.9,349.7,325.7,355.6,341.6z"/>
	<path class="st5" d="M416.1,341.6c-2.5,6.6-2,12.9,1,14.1c3.1,1.2,7.6-3.3,10.1-9.9C433.1,329.9,422.1,325.7,416.1,341.6z"/>
</g>
<g>
	<path class="st6" d="M385.9,395.8l-14.7,21.5l-16.4-25.1c0.8-0.5,1.5-1,2.1-1.4c2.8-2.1,4.6-4.6,5.8-7.1L385.9,395.8z"/>
	<path class="st6" d="M417.5,391.4l-16.9,25.8l-14.7-21.5l24.6-12.9c1.2,2.8,3.1,5.5,6.1,7.8C416.9,390.9,417.2,391.1,417.5,391.4z"
		/>
</g>
<g>
	<path class="st7" d="M378.1,451.3h-18.7L346.9,428l12-9.3l-14.5,1.5l1.6-23.3c3.5-1.7,6.4-3.3,8.7-4.8c0.8-0.5,1.5-1,2.1-1.4
		c0.6-0.4,1.1-0.9,1.6-1.3L378.1,451.3z"/>
	<path class="st7" d="M412,418.7l12,9.3l-12.4,23.4h-18.7l20.3-63.9c0.9,1.2,2.1,2.3,3.4,3.3c0.3,0.2,0.6,0.4,0.9,0.7
		c1.8,1.2,4.3,2.7,7.3,4.2l1.7,24.6L412,418.7z"/>
</g>
<g>
	<path class="st6" d="M379.5,334.6c-0.6,4.1-4.2,12.2-13.1,12.2h-2.6c-4.4,0-8.2-3-8.8-8.5c0-5.6-1.5-12.6,7.8-12.2h8.1
		c0,0,7.3,0.7,8.5,4.8L379.5,334.6L379.5,334.6z"/>
	<path class="st6" d="M415.4,338.3c-0.6,5.5-4.4,8.5-8.8,8.5H404c-7.8,0-12.3-6.6-13.1-12.2v-3.6c1.2-4.1,8.5-4.8,8.5-4.8h8.1
		C416.6,325.7,415.4,332,415.4,338.3z"/>
</g>
<path class="st8" d="M395.1,325.1c-6.5,1.7-13.6,1.7-20.1,0c-12.8-3.3-30,1.2-30,1.2l0.5,3.5c6.6-0.6,6.3,3,6.5,7
	c0.9,11.8,10.5,11.3,10.5,11.3h5.5c9,0,13.4-8.6,14-12.8c0.5-3.6,3-3.8,3-3.8s2.5,0.2,3,3.8c0.6,4.1,4.9,12.8,14.4,12.8h5.2
	c0,0,9.6,0.4,10.5-11.3c0.3-4,0.1-7.6,6.5-7l0.6-3.5C425.3,326.4,407.9,321.8,395.1,325.1z M379.5,334.6
	c-0.6,4.1-4.2,12.2-13.1,12.2h-2.6c-4.4,0-8.2-3-8.8-8.5c0-5.6-1.5-12.6,7.8-12.2h8.1c0,0,7.3,0.7,8.5,4.8L379.5,334.6L379.5,334.6z
	 M415.4,338.3c-0.6,5.5-4.4,8.5-8.8,8.5H404c-7.8,0-12.3-6.6-13.1-12.2v-3.6c1.2-4.1,8.5-4.8,8.5-4.8h8.1
	C416.6,325.7,415.4,332,415.4,338.3z"/>
<path class="st2" d="M392.4,368.9h-14.1c-1.4,0-2.6-1.2-2.6-2.6l0,0c0-1.4,1.2-2.6,2.6-2.6h14.1c1.4,0,2.6,1.2,2.6,2.6l0,0
	C395,367.7,393.8,368.9,392.4,368.9z"/>
<path class="st10" d="M369.5,300c0,0,63.4,22.1,53.8,96.9c0,0,34.7-69.9-8.2-107.1c-11.8-10.2-24.5-8.9-30.2-8.8L369.5,300z"/>
<g>
	<path class="st11" d="M352.8,396.9c-5.5-6.3-42.9-111,32.1-115.9C370.2,305.5,344.4,335.7,352.8,396.9z"/>
	<circle class="st11" cx="260" cy="132.1" r="88.5"/>
</g>
<g>
	<path class="st10" d="M260,208c-41.8,0-75.9-34-75.9-75.9s34-75.9,75.9-75.9s75.9,34,75.9,75.9S301.8,208,260,208z M260,69.6
		c-34.5,0-62.5,28-62.5,62.5s28,62.5,62.5,62.5s62.5-28,62.5-62.5S294.5,69.6,260,69.6z"/>
	<path class="st10" d="M257.6,178v-8.1c-10.1-1-19.2-5.1-27.2-12.1l8.1-9.6c6.2,5.4,12.6,8.6,19.1,9.6v-21.5
		c-8.3-2-14.4-4.6-18.3-7.9s-5.8-8.1-5.8-14.4s2.2-11.6,6.7-15.7c4.5-4.1,10.3-6.3,17.4-6.6v-5.5h7.1v5.6c8.1,0.6,15.8,3.4,23,8.3
		l-7.2,10.2c-4.9-3.5-10.1-5.6-15.8-6.4v20.8h0.3c8.5,2,14.7,4.7,18.7,8.1c4,3.4,6,8.3,6,14.8c0,6.5-2.3,11.7-6.9,15.8
		c-4.6,4.1-10.6,6.3-18.1,6.6v8L257.6,178L257.6,178z M249.8,106.5c-1.9,1.7-2.8,3.7-2.8,6.2s0.7,4.4,2.2,5.9
		c1.5,1.4,4.3,2.8,8.4,4.2v-19.1C254.2,103.9,251.6,104.9,249.8,106.5z M273.1,155.1c2.1-1.7,3.1-3.8,3.1-6.4c0-2.6-0.8-4.6-2.4-6.1
		c-1.6-1.5-4.6-2.9-9.1-4.3v19.9C268.2,157.8,271,156.8,273.1,155.1z"/>
</g>
<g>
	
		<rect x="143.2" y="243.3" transform="matrix(0.5759 -0.8175 0.8175 0.5759 -131.468 244.7372)" class="st6" width="53.9" height="11.6"/>
	<polygon class="st6" points="194.2,236.6 196.3,211.9 173.8,222.2 	"/>
	
		<rect x="181.5" y="247.7" transform="matrix(0.5759 -0.8175 0.8175 0.5759 -118.8136 277.9394)" class="st6" width="53.9" height="11.6"/>
	<polygon class="st6" points="184.5,266 182.3,290.6 204.8,280.3 	"/>
	
		<rect x="346.9" y="222.8" transform="matrix(0.8353 -0.5498 0.5498 0.8353 -79.0924 234.9835)" class="st6" width="11.5" height="53.4"/>
	<polygon class="st6" points="329.3,236.4 328,211.9 349.9,222.8 	"/>
	
		<rect x="308.8" y="226" transform="matrix(0.8353 -0.5498 0.5498 0.8353 -87.1026 214.577)" class="st6" width="11.5" height="53.4"/>
	<polygon class="st6" points="338,265.8 339.3,290.2 317.4,279.3 	"/>
</g>
</svg>
