<svg id="Layer_1" data-name="Layer 1" xmlns="http://www.w3.org/2000/svg" xmlns:xlink="http://www.w3.org/1999/xlink" viewBox="0 0 1200 600"><defs><style>.cls-1{fill:url(#linear-gradient);}.cls-2{fill:#fff;}</style><linearGradient id="linear-gradient" x1="-1" y1="272" x2="1202" y2="272" gradientUnits="userSpaceOnUse"><stop offset="0.49" stop-color="#fff"/><stop offset="0.49" stop-color="#fdfdfd"/><stop offset="0.49" stop-color="#f6f6f6"/><stop offset="0.5" stop-color="#ebebeb"/><stop offset="0.5" stop-color="#dadada"/><stop offset="0.5" stop-color="#c4c4c4"/><stop offset="0.5" stop-color="#a8a8a8"/><stop offset="0.5" stop-color="#888"/><stop offset="0.5" stop-color="#626262"/><stop offset="0.5" stop-color="#373737"/><stop offset="0.5" stop-color="#090909"/><stop offset="0.5"/></linearGradient></defs><title>photo1_neg</title><rect class="cls-1" x="-1" y="-78" width="1203" height="700"/><rect class="cls-2" x="622.8" y="295.08" width="106.03" height="106.03" transform="translate(-48.2 579.82) rotate(-45)"/><path class="cls-2" d="M675.81,275.24l72.85,72.85-72.85,72.85L603,348.09l72.85-72.85m0-4.24-77.1,77.1,77.1,77.1,77.1-77.1L675.81,271Z"/><polygon class="cls-2" points="599.5 40.42 752.48 193.41 599.5 346.39 599.5 40.42"/><path class="cls-2" d="M600,41.63,751.78,193.41,600,345.18V41.63m-1-2.41V347.6L753.19,193.41,599,39.22Z"/><rect x="468.61" y="295.08" width="106.03" height="106.03" transform="translate(-93.36 470.79) rotate(-45)"/><path d="M521.62,275.24l72.85,72.85-72.85,72.85-72.85-72.85,72.85-72.85m0-4.24-77.1,77.1,77.1,77.1,77.1-77.1L521.62,271Z"/><polygon points="445.23 193.41 598.22 40.42 598.22 346.39 445.23 193.41"/><path d="M597.72,41.63V345.18L445.94,193.41,597.72,41.63m1-2.41L444.52,193.41,598.72,347.6V39.22Z"/></svg>