<svg id="Layer_1" data-name="Layer 1" xmlns="http://www.w3.org/2000/svg" xmlns:xlink="http://www.w3.org/1999/xlink" viewBox="0 0 1200 600"><defs><style>.cls-1{fill:url(#radial-gradient);}.cls-2{fill:url(#Degradado_sin_nombre_2);}</style><radialGradient id="radial-gradient" cx="599.86" cy="303.61" r="490.82" gradientUnits="userSpaceOnUse"><stop offset="0.1" stop-color="#fff"/><stop offset="0.44" stop-color="#fdfdfd"/><stop offset="0.56" stop-color="#f6f6f6"/><stop offset="0.64" stop-color="#ebebeb"/><stop offset="0.71" stop-color="#dadada"/><stop offset="0.77" stop-color="#c4c4c4"/><stop offset="0.83" stop-color="#a8a8a8"/><stop offset="0.87" stop-color="#888"/><stop offset="0.92" stop-color="#626262"/><stop offset="0.96" stop-color="#373737"/><stop offset="0.99" stop-color="#090909"/><stop offset="1"/></radialGradient><linearGradient id="Degradado_sin_nombre_2" x1="490.32" y1="87.86" x2="978.71" y2="576.25" gradientUnits="userSpaceOnUse"><stop offset="0.42" stop-color="#434343"/><stop offset="0.51" stop-color="#363636"/><stop offset="0.83" stop-color="#0f0f0f"/><stop offset="1"/></linearGradient></defs><title>photo3</title><rect class="cls-1" x="0.5" y="-46.52" width="1198.71" height="700.25"/><path d="M1198.71-46V653.23H1V-46H1198.71m1-1H0V654.23H1199.71V-47Z"/><path class="cls-2" d="M866.65,515.48a88.74,88.74,0,0,0-12.31-33.13,1.45,1.45,0,0,0,.05-.64l-2.55-18.95c-.23-1.74-2.88-1.18-2.7.54-13.37-12.92-29.82-22.93-48.28-26.31a72.28,72.28,0,0,0-21.35-.73c.75-.09,2-3.5,2.26-4.15a28.87,28.87,0,0,0,1.44-4.87c1.29-6.14,1.78-13.37-2.55-18.48a13.26,13.26,0,0,0-7.32-4.4.79.79,0,0,0-.3-.13c-3.61-.74-9.28-.65-11-4.69-.77-1.8-.08-4.45,2.26-4.49,1.65,0,2.56,2.4,1,3.2a.83.83,0,0,0,.76,1.47,3.44,3.44,0,0,0,.8-5.3c-1.72-1.88-4.81-1-6.07,1-1.54,2.33-.43,5.46,1.51,7.17a10.74,10.74,0,0,0,4.8,2.26,10.41,10.41,0,0,0-3.43,2.21,8.75,8.75,0,0,0,2.78,14.82c6,2.19,12.28-5.16,8.62-10.64-.59-.88-2.07-.13-1.47.76,2.77,4.15-1.74,9.94-6.44,8.38a7.39,7.39,0,0,1-4.79-5.94,7.74,7.74,0,0,1,3.3-6.9c4.93-3.73,11.72-1.21,14.8,3.68a15,15,0,0,1,2.2,8,19.77,19.77,0,0,1-2.11,8.85c-8.43,16.89-32.49,17-47,9a37,37,0,0,1-11.05-9.35,32.63,32.63,0,0,1-3.35-5.68c-3.3-7.22-3.59-15.87.74-22.75,4-6.37,12.23-10.15,19.55-7.44,6.56,2.43,11.18,10.42,7.8,17.07a7.69,7.69,0,1,1-13.83-6.73c.42-.89-.89-1.4-1.45-.71a.85.85,0,0,0-.27.25c-3.28,4.62-1.23,11.27,3.79,13.64,5.55,2.62,12,0,14.92-5.18a15.06,15.06,0,0,0-1-16,17.1,17.1,0,0,0-14.72-7.51,20.87,20.87,0,0,0-15.24,7.6c-.33.4-.64.81-.93,1.21a5.62,5.62,0,0,0,.36-3.66,6.61,6.61,0,0,0-6.84-4.9,8.17,8.17,0,0,0-6.94,5.35c-1.64,4-.63,8.3.51,12.29a15.2,15.2,0,0,0-13.55,1.79c-3,2.1-8.41,4.85-10.77.21a3.43,3.43,0,0,1,1-4.51,2.49,2.49,0,0,1,3.94,2c0,1.06,1.65,1.16,1.65.09a4.17,4.17,0,0,0-4.23-4.22,4.81,4.81,0,0,0-4.46,4.56,6,6,0,0,0,3.85,5.74,8,8,0,0,0,5.46.16,9.57,9.57,0,0,0-.2,9.45c2.31,4,7.49,5.67,11.38,2.82,4.12-3,3.3-9.88-1.82-11.31-1-.29-1.56,1.28-.53,1.57,4.1,1.14,4.4,6.59.95,8.69-4.19,2.55-8.49-.89-9.32-5.18-1-5.33,3.69-8.83,8.54-9.29A15.77,15.77,0,0,1,711.93,414c2.11,3.13,3.41,6.71,5.07,10.08a44.47,44.47,0,0,0,12.65,15.51q-1.44-.37-2.9-.67c-11.1-2.32-21.52-3.6-32.63-.39a57.55,57.55,0,0,0-13,5.69c-3.94,2.29-9.91,5.57-14,1.72-1.89-1.79-2.22-4.95.17-6.5,2.16-1.41,5.22,1.21,3.66,3.45-.61.88.79,1.51,1.4.64,2.54-3.66-2.29-7.8-5.91-5.51-4.36,2.75-2.46,8.55,1.54,10.48a9.27,9.27,0,0,0,6.24.61,35.91,35.91,0,0,0-12.29,20q-.24,1.16-.39,2.33a27.93,27.93,0,0,0,3.28,18.81,24.84,24.84,0,0,0,15.73,13,5.67,5.67,0,0,0-3.24,4.08c-.79,4.2,2.63,7.72,6.72,7.94,4.6.25,8.62-3.55,11.6-6.61a43.5,43.5,0,0,0,7.28-10l-.73,2.22c-1.65,5-3.27,10.71-.62,15.7,2,3.81,6.23,5.92,10.37,4.16,3.87-1.64,6.45-6.42,4.13-10.35a4.81,4.81,0,0,0-5.94-2.11,3.88,3.88,0,0,0-1.87,5.07c.43,1,1.91.22,1.47-.76a2.2,2.2,0,0,1,1.15-2.84,3.15,3.15,0,0,1,3.71,1.4c1.33,2.09.6,4.86-1,6.53a6.66,6.66,0,0,1-5.64,2,7.2,7.2,0,0,1-5-4.22c-2.47-5.09-.16-10.88,1.48-15.84,2-6.19,4.56-12.64,4-19.29-1-12.27-13.8-20.54-25-14.1a15.22,15.22,0,0,0-6.08,6.56,13.68,13.68,0,0,0-1.36,5.69c0,1.06,1.63,1.16,1.65.09.28-12.31,18.27-17.1,24.49-6.49,2.16,3.68,2.56,8.33,0,11.92a7.59,7.59,0,0,1-10,2.48,5.82,5.82,0,0,1-1.53-9,4.41,4.41,0,0,1,5.92-.83,2.9,2.9,0,0,1,.83,3.51,2.16,2.16,0,0,1-3,.72.83.83,0,0,0-.91,1.38,3.82,3.82,0,0,0,5.47-1.51,4.61,4.61,0,0,0-2.14-5.9c-4.65-2.47-9.4,2.12-9.31,6.77.1,5,5.4,8.22,10.06,7.32,5.46-1.05,8.57-6.85,8-12.07,0-.1,0-.21,0-.31a16.66,16.66,0,0,1,.45,7.38c-1.32,8.29-8.53,14.62-16.66,16.15-9.51,1.78-17.23-3.57-20.7-12.3A31,31,0,0,1,666.42,474c1.05-13.44,10.65-24.43,22.67-29.73a45.09,45.09,0,0,1,20.36-3.71,15.22,15.22,0,0,0-1.67,1c-4.61,3.26-7.57,9.33-5.74,14.93,1.26,3.85,4.86,6.57,8.9,5.1a5.88,5.88,0,0,0,4.06-5.86,5.47,5.47,0,0,0-5.14-5,.83.83,0,0,0-.09,1.65,3.8,3.8,0,0,1,3.42,4.87,4.79,4.79,0,0,1-5.54,2.9c-5.36-1.29-5.46-8-2.77-11.72,2.9-4,8.16-5.87,12.91-6.25a30.46,30.46,0,0,1,14.2,2.55,58.2,58.2,0,0,1,11.63,6.87l-5.74,5.44c-1.92,1.82-3.83,4.06-6.23,5.25-1.92,1-5.42,1.05-6-1.6-.73-3.16,3.31-4.43,5-2,.61.87,1.84-.24,1.23-1.11a4.43,4.43,0,0,0-7.17-.12,4.48,4.48,0,0,0,2.28,6.78c3.28,1.2,6.38-.76,8.73-2.89,1-.93,2-1.88,3.06-2.83-8.27,10.87-12.52,24.83-9.41,38.35a.77.77,0,0,0,.05.61l.19.4q.11.44.23.87a35.43,35.43,0,0,0,3.35,8c.49,1.54.93,3.1,1.31,4.68,1,4.39,1.91,9.69-2,13a6.7,6.7,0,0,1-10.25-1.54,5.5,5.5,0,0,1,5.59-8.12c1.05.17,1.13-1.48.09-1.65a7.26,7.26,0,0,0-7.94,5.49c-.84,3.52,1.43,7.06,4.58,8.53a8.65,8.65,0,0,0,9.86-2.27c2.16-2.34,2.71-5.28,2.55-8.27a7.23,7.23,0,0,0,2,1.94,5.2,5.2,0,0,0,5.73.08q.78.46,1.6.89c14.62,7.54,36.76-.19,37.68-18.45a21.89,21.89,0,0,0-10.51-19.63,18.35,18.35,0,0,0-2.5-1.19,6.21,6.21,0,0,0,1.12-8.05c-2.55-4-8-4.4-12.13-2.84-6.37,2.42-10.07,8.83-11.3,15.24-1.06,5.49-1.8,13,1.13,18,.89,1.53,2.5.79,1.6-.76-4.56-7.83,2.2-19.25,11.05-20.26a13.63,13.63,0,0,1,4.13.18,1.28,1.28,0,0,0,.54.23,15.81,15.81,0,0,1,2.78.81,17.2,17.2,0,0,1,5.35,3.67,15.78,15.78,0,0,1,4.39,13.36,19.93,19.93,0,0,1-7.48,12.8,18.56,18.56,0,0,1-5.31,2.87c.37-.26.74-.52,1.09-.81,3.58-2.94,6.21-8,4.88-12.64-1.16-4.08-5.15-7.12-9.45-5.77a5.79,5.79,0,0,0-3.06,9c2.84,3.8,9.17,1.15,8.52-3.52-.15-1.06-1.77-.7-1.62.35a3.24,3.24,0,0,1-4.2,3.24c-1.85-.69-2.6-3.14-2-4.9a4.7,4.7,0,0,1,4.7-2.83,6,6,0,0,1,5,3.53c2.09,4.24-.26,9.2-3.57,12.06a14.72,14.72,0,0,1-8.6,3.52c-.71,0-1.41-.08-2.11-.17-11.35-1.4-19.75-10.63-22.58-21.35-5.65-21.35,10.25-42.69,30-49.42,21.74-7.4,46.24-.8,64.39,12.31a89.31,89.31,0,0,1,34.23,50.42q.92,3.72,1.49,7.51C864.22,517.82,866.92,517.23,866.65,515.48ZM725.44,391.2c4.61-2.84,10.5-3.84,15.62-1.79,5.41,2.16,9.62,7.8,9.56,13.72a12.84,12.84,0,0,1-2.07,6.81,12.26,12.26,0,0,0,1.44-5,14.42,14.42,0,0,0-3.92-10.53c-5.81-6.33-15.44-6.44-22.27-1.66a19.07,19.07,0,0,0-3.55,3.24A18.45,18.45,0,0,1,725.44,391.2Zm-13.33,20.33A17.13,17.13,0,0,0,702,405.58c-.39-.07-.78-.13-1.18-.17a14.33,14.33,0,0,1,9.21,3.58,15.77,15.77,0,0,1,3.19,4.1C712.91,412.55,712.52,412,712.11,411.53Zm-4.69-6.25a.78.78,0,0,0,0-.4c-.95-3.27-2-6.77-1.31-10.19.63-3.11,2.84-6,6.25-6.11,3-.06,6,2.91,4.77,6-1.25,3.25-6.11,3.43-6.88-.24a.83.83,0,0,0-1.62.35,5.19,5.19,0,0,0,6.38,3.92A5.44,5.44,0,0,0,717.5,397a23.58,23.58,0,0,0-3.19,13.74A17.43,17.43,0,0,0,707.43,405.28Zm-7.42,95a41,41,0,0,1-4,5.41c-2.66,3.05-6.34,7-10.51,7.77a6,6,0,0,1-5.7-2,4.65,4.65,0,0,1,.22-6.05,3.8,3.8,0,0,1,5.23,0,3.24,3.24,0,0,1-.64,4.73c-.9.55-.16,2,.76,1.47a4.91,4.91,0,0,0,.79-7.63A24.54,24.54,0,0,0,700,500.31Zm-26.42-46.81C664.45,463.9,661.35,479.9,669,492A28.69,28.69,0,0,0,672,495.9a23.42,23.42,0,0,1-2.06-1.81,23.67,23.67,0,0,1-3.69-4.7,30.47,30.47,0,0,1-3.14-17.26,32.92,32.92,0,0,1,6.5-15.27,41.09,41.09,0,0,1,12-10.34A41,41,0,0,0,673.59,453.51Zm39-11.95a20.67,20.67,0,0,0-5.08,2.34c.32-.29.65-.57,1-.83a13.74,13.74,0,0,1,4.54-2.2.71.71,0,0,0,.37-.1,14.83,14.83,0,0,1,5.71-.28A24.56,24.56,0,0,0,712.63,441.56Zm56.19,38a18.11,18.11,0,0,0-1.88-.46l-.8-.12a2.65,2.65,0,0,1-.46-3.68c.69-.79-.41-2-1.11-1.23a4.3,4.3,0,0,0-.56,4.76,15.29,15.29,0,0,0-10.72,4.26,18,18,0,0,0-3.39,4.56c.73-6.66,3.18-13.06,9.57-16.22,3.93-1.94,10.68-1.93,11.93,3.35A4,4,0,0,1,768.82,479.54Zm-25.65,38.13a4.31,4.31,0,0,1-4.36-1.43,9.86,9.86,0,0,1-2-4.33A31.87,31.87,0,0,0,743.16,517.67Zm1-160.23a110.76,110.76,0,0,0-35.63-26,1.81,1.81,0,0,0-.39-.7l-15.71-18c-1.44-1.65-3.81.76-2.44,2.42-22.82-4.24-46.83-3.32-68.38,5.87A90.21,90.21,0,0,0,598.9,335c.72-.61-.33-5-.5-5.87a36,36,0,0,0-1.86-6.06c-2.88-7.28-7.36-15.14-15.38-17.48a16.56,16.56,0,0,0-10.65.47,1,1,0,0,0-.4.07c-4.27,1.71-7.48,7.64-7.87,9.41a10.93,10.93,0,0,0,13.1,13.51c7.76-1.85,9.23-13.84,1.65-17-1.21-.51-2.24,1.29-1,1.8,5.74,2.41,5,11.54-.94,13.16a9.22,9.22,0,0,1-9.08-2.88c-2.23-2.59-2.42-6.34-1.32-9.45,2.57-7.28,11.37-9.33,17.94-6.36a18.77,18.77,0,0,1,7.81,6.83,24.68,24.68,0,0,1,3.9,10.67c2.85,23.39-22.1,40.09-42.69,41.71a46.16,46.16,0,0,1-17.95-2.12,40.74,40.74,0,0,1-7.39-3.6c-8.4-5.24-14.67-14.05-14.9-24.19-.21-9.39,5.74-19,15.23-21.21,8.5-2,18.81,3.14,19.87,12.4a9.84,9.84,0,0,1-8.66,11.08c-5.19.54-9.67-3.55-10.37-8.56-.17-1.22-1.89-.84-2,.26a1.06,1.06,0,0,0-.11.45c-.23,7.07,6.49,12.58,13.35,11.59,7.58-1.1,12.45-8.27,12-15.67s-5.39-13.26-12-16a21.34,21.34,0,0,0-20.49,2.32,26,26,0,0,0-10.62,18.41c-.07.64-.11,1.28-.13,1.91a7,7,0,0,0-2.15-4.05,8.25,8.25,0,0,0-10.5-.39,10.2,10.2,0,0,0-3.54,10.35c1,5.28,5.07,9.08,9,12.44a19,19,0,0,0-12.87,11.19c-1.66,4.23-5.41,10.84-11.07,7.64a4.28,4.28,0,0,1-2.08-5.38,3.11,3.11,0,0,1,5.47-.64c.73,1.11,2.52.07,1.78-1a5.2,5.2,0,0,0-7.31-1.48,6,6,0,0,0-1.5,7.82,7.53,7.53,0,0,0,8,3.33,10,10,0,0,0,5.79-3.59,11.94,11.94,0,0,0,6.3,10c5.17,2.59,11.7.74,13.79-4.91,2.21-6-3.37-12.56-9.68-10.52-1.26.41-.73,2.41.53,2,5.06-1.64,9.12,3.83,7,8.39-2.61,5.54-9.45,4.93-13.27,1-4.73-4.84-2.25-11.74,2.49-15.56a19.68,19.68,0,0,1,19.79-2.74c4.35,1.8,8.17,4.64,12.22,7a55.51,55.51,0,0,0,23.86,7.43q-1.76.61-3.48,1.3c-13.15,5.23-24.88,11.08-34.24,22.07a71.83,71.83,0,0,0-9.64,14.9c-2.52,5.1-6.48,12.63-13.38,11.42-3.2-.56-5.72-3.62-4.3-6.89,1.28-3,6.26-2.34,6.18,1.07,0,1.33,1.86,1,1.89-.3.12-5.57-7.75-6.54-9.95-1.67-2.64,5.86,3.33,10.59,8.82,9.85a11.57,11.57,0,0,0,6.92-3.66c-2.74,9.54-2.84,19.68,1,29.24q.55,1.37,1.2,2.69a34.87,34.87,0,0,0,16.38,17.32c7.63,4.23,16.59,5.65,25.31,2.66a7.08,7.08,0,0,0-.57,6.48c2.07,4.92,8.05,6.23,12.47,3.64,5-2.91,6.53-9.64,7.52-14.87a54.3,54.3,0,0,0,.66-15.47l.77,2.82c1.75,6.37,4,13.4,10.18,16.77,4.74,2.57,10.56,1.87,13.66-2.81,2.9-4.37,2.29-11.13-2.82-13.62-2.55-1.24-6.1-.66-7.64,1.89a4.85,4.85,0,0,0,1.55,6.57c1.12.72,2.13-1.09,1-1.8a2.74,2.74,0,0,1-.76-3.75,3.93,3.93,0,0,1,4.82-1.1c2.82,1.27,4,4.65,3.41,7.52a8.31,8.31,0,0,1-4.5,6c-2.66,1.2-5.74.52-8.15-.91-6.07-3.6-7.66-11.21-9.38-17.51-2.14-7.85-4-16.3-9.08-22.86-9.45-12.11-28.52-11.87-35.71,2.53a19,19,0,0,0-1.81,11,17.08,17.08,0,0,0,2.5,6.86c.71,1.12,2.5.08,1.78-1-8.19-13,7.24-30.38,21-23.63,4.78,2.34,8.4,6.91,8.22,12.4-.16,4.9-3.65,9.17-8.7,9.47a7.27,7.27,0,0,1-7.76-8.27c.37-2.7,2.69-5.2,5.58-4.94a3.62,3.62,0,0,1,3.28,3.08,2.7,2.7,0,0,1-2.64,2.82,1,1,0,0,0,0,2.07,4.77,4.77,0,0,0,4.65-5.34,5.75,5.75,0,0,0-6.29-4.66c-6.54.63-8.33,8.68-5,13.46,3.57,5.17,11.28,4.84,15.52.69,5-4.86,4.2-13,0-18.06l-.26-.29a20.8,20.8,0,0,1,5.55,7.37c4.34,9.53,1.2,21.1-6.22,28.28-8.67,8.41-20.39,8.15-30,1.46a38.69,38.69,0,0,1-11.64-12.88c-8.16-14.71-5.74-32.76,3.12-46.57a56.28,56.28,0,0,1,18.64-17.89,19,19,0,0,0-1,2.21c-2.55,6.57-1.45,14.93,4.3,19.49,4,3.14,9.58,3.49,12.78-.82,1.9-2.57,2.29-6.32.19-8.89a6.82,6.82,0,0,0-8.76-1.61c-1.13.7-.09,2.49,1,1.78a4.74,4.74,0,0,1,6.91,2.72,6,6,0,0,1-3.76,6.84c-6.47,2.35-11.2-4.57-11-10.29.27-6.15,4.45-11.73,9.13-15.4a38,38,0,0,1,16.53-7.13,72.65,72.65,0,0,1,16.84-.86l-2.23,9.61c-.75,3.22-1.19,6.87-2.87,9.76-1.34,2.31-4.92,4.83-7.38,2.49-2.94-2.79.39-6.89,3.85-5.54,1.24.48,1.75-1.52.52-2-3.4-1.33-7.48,1-7.54,4.82a5.59,5.59,0,0,0,7,5.48c4.24-1,6.12-5.18,7.1-9,.43-1.68.83-3.36,1.23-5.05-1.12,17,4.07,34.46,16.62,46.4a1,1,0,0,0,.47.6l.47.28.84.75a44.22,44.22,0,0,0,9,6q2.36,1.9,4.59,4c4.1,3.86,8.66,8.78,6.87,14.87-1.48,5-6.86,7.86-11.73,5.46a6.87,6.87,0,0,1,.23-12.3c1.21-.54.16-2.32-1-1.78a9.06,9.06,0,0,0-4.48,11.18c1.55,4.24,6.35,6.37,10.65,5.72,4.63-.7,8-4.66,8.7-9.16.64-3.92-.82-7.36-3-10.37a9,9,0,0,0,3.4.66,6.49,6.49,0,0,0,6-3.86c.76,0,1.51-.09,2.27-.18,20.41-2.22,38.13-25.53,26.51-45.16-4.91-8.3-14.78-13.82-24.47-13.19a22.9,22.9,0,0,0-3.42.48c1.17-3.42-.84-7.56-4.39-9.15-5.44-2.45-11.39,1-14.59,5.4-5,6.9-4.4,16.12-1.27,23.65,2.68,6.44,7.06,14.74,13.59,18,2,1,3.14-.9,1.14-1.89-10.13-5-11-21.55-2.46-28.7a17,17,0,0,1,4.42-2.66,1.61,1.61,0,0,0,.72-.13,19.73,19.73,0,0,1,3.45-1.07,21.47,21.47,0,0,1,8.1.14,19.7,19.7,0,0,1,13.77,10.89,24.88,24.88,0,0,1,1,18.47,23.17,23.17,0,0,1-3.54,6.65c.21-.52.41-1.06.57-1.6,1.7-5.52,1-12.56-3.63-16.52-4-3.45-10.27-3.87-13.81.5a7.22,7.22,0,0,0,3,11.46c5.58,2,10.34-5.13,6.44-9.53-.88-1-2.32.49-1.44,1.48,1.78,2,.44,5.67-2.14,6.27-2.4.56-4.87-1.48-5.44-3.73-.63-2.47.88-4.91,2.94-6.18a7.44,7.44,0,0,1,7.63.23c5.09,3,6.06,9.76,4.59,15a18.38,18.38,0,0,1-6.53,9.59q-1.13.69-2.31,1.28c-12.78,6.36-27.88,2.54-38.21-6.66-20.59-18.34-18.74-51.49-2.82-72.11,17.53-22.69,47.58-32.69,75.5-31.55A111.47,111.47,0,0,1,735,353.12q3.52,3.24,6.72,6.79C743.25,361.55,745.65,359.08,744.16,357.44ZM511.56,325.37c2.85-6.13,8.29-11.23,15-12.62,7.12-1.47,15.39,1.49,19.41,7.7a16,16,0,0,1,2.54,8.52,15.31,15.31,0,0,0-1.95-6.21,18,18,0,0,0-11.33-8.25c-10.41-2.58-20.51,3.93-24.32,13.61a23.81,23.81,0,0,0-1.47,5.82A23,23,0,0,1,511.56,325.37Zm.13,30.34a21.38,21.38,0,0,0-14.58.75c-.46.19-.9.41-1.34.63a17.88,17.88,0,0,1,12.06-2.62,19.69,19.69,0,0,1,6.15,2.07C513.23,356.23,512.47,355.95,511.69,355.71Zm-9.18-3.28a1,1,0,0,0-.29-.4c-3.24-2.76-6.74-5.67-8.38-9.71-1.49-3.67-1.21-8.24,2.3-10.67,3.12-2.16,8.21-1.07,9.11,3,.94,4.24-4,7.78-7.32,4.49-.95-.93-2.39.54-1.44,1.48a6.48,6.48,0,0,0,9.34-.31,6.8,6.8,0,0,0,1.5-3.36,29.44,29.44,0,0,0,6.14,16.5A21.76,21.76,0,0,0,502.51,352.43Zm57.75,104a51.2,51.2,0,0,1-.41,8.37c-.66,5-1.75,11.7-5.59,15.33a7.48,7.48,0,0,1-7.33,1.82,5.8,5.8,0,0,1-3.93-6.45c.52-2.3,3.07-4.23,5.46-3.59a4,4,0,0,1,2.59,5.36c-.56,1.2,1.24,2.22,1.8,1a6.13,6.13,0,0,0-4.43-8.49A30.64,30.64,0,0,0,560.26,456.46Zm-59.75-30.52c-2.35,17.12,5.44,35.9,21.79,43.24a35.82,35.82,0,0,0,5.73,2,29.23,29.23,0,0,1-3.4-.47,29.54,29.54,0,0,1-7.08-2.36,38,38,0,0,1-15.16-15.81,41.09,41.09,0,0,1-3.75-20.38,51.29,51.29,0,0,1,5.4-19.05A51.23,51.23,0,0,0,500.51,425.94Zm32.41-39.33a25.8,25.8,0,0,0-3.67,5.93c.13-.52.28-1,.47-1.55a17.15,17.15,0,0,1,3.21-5.42.89.89,0,0,0,.32-.36A18.51,18.51,0,0,1,539,381,30.66,30.66,0,0,0,532.92,386.61Zm84.65.83a22.61,22.61,0,0,0-2.27.82c-.31.13-.62.27-.92.42a3.3,3.3,0,0,1-3-3.51c.17-1.3-1.82-1.84-2-.52a5.37,5.37,0,0,0,2.69,5.35,19.08,19.08,0,0,0-8.22,11.83,22.45,22.45,0,0,0-.39,7.08c-3.83-7.44-5.69-15.78-1.21-23.48C605,380.68,612,376,617,380.68A5,5,0,0,1,617.57,387.44Zm-.43,57.36c-1.17,1.58-3.59,2-5.52,1.51a12.31,12.31,0,0,1-5.1-3.1A39.78,39.78,0,0,0,617.14,444.8Zm97.49-136.87c-8.83-13.46-12.8-31.29-6.82-46.69,5.44-14,21.23-24.77,36.36-20,7.59,2.37,13.95,8.7,14.6,16.9q.06.76.06,1.52A10.62,10.62,0,0,1,756,265.7c-2.15,2.29-5.78,3.83-8.75,2.19a4.29,4.29,0,0,1-2.37-3.7,3.39,3.39,0,0,1,2.18-3.29,2.85,2.85,0,0,1,3.45,1.58,2.33,2.33,0,0,1-2.46,2.92c-.75-.14-1.05,1-.3,1.15a3.46,3.46,0,0,0,2.79-6,4.15,4.15,0,0,0-6.53,1.92c-1.1,3.05,1,6,3.84,7,3.32,1.1,7-.64,9.21-3.12.22-.24.42-.5.62-.76a13.37,13.37,0,0,1-2.23,3.73,14.29,14.29,0,0,1-9.41,5,11.3,11.3,0,0,1-9.44-3.57,12.39,12.39,0,0,1-2.47-4,11.4,11.4,0,0,1-.49-2,.93.93,0,0,0-.15-.39,9.84,9.84,0,0,1,0-3c1-6.34,9.4-10.84,14.87-7.32,1.08.69,1.66-.44.59-1.13-3.53-2.27-8.91-2-12.88-1.38-4.63.69-9.34,3.15-11.28,7.65-1.24,2.9-1.16,6.85,1.66,8.81a4.44,4.44,0,0,0,5.81-.55,13.23,13.23,0,0,0,.77,1.83,15.7,15.7,0,0,0,13.75,8.17c13.11-.09,19.35-15.78,14.39-26.53q-.28-.6-.59-1.18a3.75,3.75,0,0,0,.12-4.12,8.41,8.41,0,0,0-4.93-3.45c-1.12-.32-2.23-.68-3.32-1.09a25.38,25.38,0,0,0-5.62-2.66l-.62-.2-.28-.15a.55.55,0,0,0-.44-.06c-9.6-2.66-19.73,0-27.78,5.58.71-.7,1.43-1.4,2.13-2.11,1.6-1.63,3.1-3.8,2.34-6.19a3.15,3.15,0,1,0-4.93,3.31c.6.46,1.44-.38.83-.85-1.69-1.31-.65-4.17,1.59-3.55,1.88.52,1.7,3,1,4.39-.93,1.69-2.6,3-4,4.32l-4.08,4a41.94,41.94,0,0,1-4.56-8.58A22,22,0,0,1,706.68,228c.42-3.41,1.93-7.13,4.88-9.09,2.75-1.82,7.56-1.54,8.32,2.35a3.45,3.45,0,0,1-2.25,3.89,2.72,2.72,0,0,1-3.39-2.61.59.59,0,0,0-1.19,0,3.93,3.93,0,0,0,3.39,3.85,4.22,4.22,0,0,0,4.33-2.74c1.18-2.86-.66-5.53-3.38-6.56-4-1.49-8.4.45-10.88,3.67a11,11,0,0,0-.78,1.17A32.55,32.55,0,0,1,709,207.42c4.18-8.48,12.35-15,22-15.38a22.18,22.18,0,0,1,9.79,1.93c6.15,2.77,9.75,8.48,8.17,15.27-1.35,5.8-6.11,10.79-12.09,11.48a11.92,11.92,0,0,1-5.28-.55l.22,0c3.72.58,8-1.47,8.9-5.37.79-3.33-1.33-7.24-4.94-7.47-3.33-.21-6.77,3.07-5.14,6.49a3.3,3.3,0,0,0,4.16,1.72,2.75,2.75,0,0,0,1.25-3.89.6.6,0,0,0-1,.61,1.56,1.56,0,0,1-.61,2.14,2.08,2.08,0,0,1-2.49-.71,3.18,3.18,0,0,1,.78-4.23,4.17,4.17,0,0,1,6.37,1.38A5.47,5.47,0,0,1,737,218a7.83,7.83,0,0,1-8.54-.37c-7.41-4.8-3.42-17.59,5.41-17.41.77,0,.75-1.18,0-1.19a9.79,9.79,0,0,0-4.12.8,10.93,10.93,0,0,0-4.89,4.17c-5,7.84.57,17.33,9.33,18.4,4.75.58,9.45-1,14-2.31,3.61-1,7.83-2.5,11.4-.57a5.18,5.18,0,0,1,2.87,3.76,4.8,4.8,0,0,1-1.61,4,3.88,3.88,0,0,1-4.71.55,2.27,2.27,0,0,1-.89-2.71,1.57,1.57,0,0,1,2.07-.74c.68.34,1.27-.69.59-1a2.78,2.78,0,0,0-3.69,1.19,3.47,3.47,0,0,0,1.33,4.34c2.74,1.79,6.25.08,7.54-2.65,1.39-2.92,0-6-2.66-7.59-3.49-2.06-7.62-1.08-11.27,0l-1.61.46a31.21,31.21,0,0,0,7.42-4.92c2.29-2,5.14-4.82,5.1-8.14a5,5,0,0,0-5.48-5.08,4.07,4.07,0,0,0-3,2.21,17.87,17.87,0,0,0-8.81-11.72,20,20,0,0,0-13.38-2.95q-.84.07-1.68.21A25.75,25.75,0,0,0,713,196.86a6.7,6.7,0,0,0-.24-4.51c-1.26-2.93-5.36-4.48-7.47-1.43-1.75,2.53,1.06,6.14,3.77,4.42.65-.41.24-1.44-.41-1-1.66,1.05-3.44-1.23-2.36-2.74a2.93,2.93,0,0,1,4.67.08c2.64,3.05.1,7.25-1.66,10a41.49,41.49,0,0,0-4.48,9.2c-2.65,7.89-2.05,15.43-.73,23.48q.17,1.05.39,2.11a31.94,31.94,0,0,0-10.73-9.58,59.78,59.78,0,0,1-7.07-4,11.37,11.37,0,0,1-4.51-10.59c.48-3.48,3.14-6.75,6.93-5.85,3.05.73,5.38,3.92,3.42,6.86a3.42,3.42,0,0,1-6.2-1c-.17-.75-1.32-.42-1.14.33.86,3.73,5.76,4.53,8.05,1.66a5.64,5.64,0,0,0-1.67-8.27,6.85,6.85,0,0,0-6.78-.15,5.77,5.77,0,0,0,.05-3.93,4.33,4.33,0,0,0-4-2.95,3.46,3.46,0,0,0-3.41,3.06,3,3,0,0,0,2.9,3.17c.77,0,.75-1.16,0-1.19a1.8,1.8,0,0,1-1.3-2.89,2.45,2.45,0,0,1,3.27-.57c3.25,1.85,1.11,5.66-.48,7.74a11,11,0,0,0-1.7,9.69c-2.82-.94-5.88-1.8-8.79-.75a5.88,5.88,0,0,0-4,4.83,4.76,4.76,0,0,0,3.3,5.07,4,4,0,0,0,2.63-.14c-.3.2-.6.41-.9.63a15,15,0,0,0-5.92,10.72,12.32,12.32,0,0,0,4.93,10.82,10.78,10.78,0,0,0,11.44,1.21,8.42,8.42,0,0,0,4.18-10.57,6.72,6.72,0,0,0-9.66-3.15.61.61,0,0,0-.19.19c-.51.38-.19,1.34.47,1.07a5.62,5.62,0,0,1,7.29,2.58,5.68,5.68,0,0,1-2.89,7.57c-4.87,2.23-10.46-1.35-12-6.14-1.72-5.35,1.25-11.14,5.94-13.83,5.06-2.9,11.26-2.42,16.33.18a23.4,23.4,0,0,1,4,2.58,26.61,26.61,0,0,1,6.36,8.24c5.3,10.66,4.46,28-7.9,33.5a14.15,14.15,0,0,1-6.41,1.24,10.76,10.76,0,0,1-5.68-1.83c-3.41-2.36-5-7.33-2.18-10.76a5.55,5.55,0,0,1,5-2.16,5.31,5.31,0,0,1,4.11,3.63c1,3.43-3.32,6.5-6.21,4.37-.62-.45-1.2.59-.59,1,3.81,2.8,9.28-1.48,7.9-5.87A6.27,6.27,0,0,0,680,259.88a7.5,7.5,0,0,0-1.69,2.4,7.74,7.74,0,0,0-1.47-3.52c-1.16-1.45-3.37-2.35-5.09-1.31-1.42.85-2.18,3-.88,4.34a2.46,2.46,0,0,0,3.82-.41.6.6,0,0,0-1-.59c-.63,1.12-2.34.39-2.27-.8.1-1.68,2-2.09,3.29-1.49,2.84,1.37,2.6,5.44,3,8.06a.57.57,0,0,0,.08.22,9.56,9.56,0,0,0,2.92,5.4c3.53,3.27,8.73,3.15,13.17,2.41a20.66,20.66,0,0,0,3.54-.88c.47-.17,3-1,3-1.5a52.2,52.2,0,0,0-.14,15.38c1.85,13.38,8.51,25.52,17.36,35.54-1.22-.18-1.71,1.7-.47,1.93l13.5,2.42a1,1,0,0,0,.46,0c7,4.79,15,9.16,23.35,10.81C755.76,338.52,722.79,320.38,714.62,307.93Zm-30.4-83.41a16.87,16.87,0,0,0-9.95,1.87,3.92,3.92,0,0,0,1.21-1.74,3.74,3.74,0,0,0-2.61-4.71.6.6,0,0,0-.3,1.15c2.6.67,2.33,4.16,0,5s-4.3-1.44-4.16-3.62c.16-2.46,2.33-4,4.58-4.31,2.48-.39,4.95.48,7.27,1.26a.56.56,0,0,0,.28,0A12.55,12.55,0,0,0,684.22,224.52Zm67.7-17.32a3.52,3.52,0,0,0,5.49-.33c.43-.64-.61-1.22-1-.59a2.32,2.32,0,0,1-3.41.31,2.74,2.74,0,0,1,.15-3.76,3.33,3.33,0,0,1,4.34,0,4.33,4.33,0,0,1,1.27,4.16c-.65,3-3.63,5.5-5.9,7.32a29.43,29.43,0,0,1-4,2.69A17.71,17.71,0,0,0,751.93,207.2Zm-23.62,60.37c-3.75-1.06-3.55-5.91-2-8.68,2.47-4.5,7.13-6.06,11.93-6.38a12.91,12.91,0,0,0-3.37,2.3,11,11,0,0,0-3.39,7.58,3.08,3.08,0,0,0-3.43.26c-.6.48.26,1.31.85.83a1.89,1.89,0,0,1,2.62.44c0,.19,0,.39.06.58a13.08,13.08,0,0,0,.27,1.36A2.89,2.89,0,0,1,728.31,267.57ZM756,243.82a7.07,7.07,0,0,1,3,1.6,3.11,3.11,0,0,1,.89,3.18A22.92,22.92,0,0,0,756,243.82ZM954.9,596.92q-3.46-.73-6.9-1.5l1.36-4.84a1.52,1.52,0,0,0,0-.87c8.32-40.24,2.24-82.89-16.11-119.61a179,179,0,0,0-37.87-50.74c-16.89-15.78-36.41-28.44-56.61-39.52-41.8-22.93-87.44-39.41-126.38-68-21.51-15.78-42.14-36.79-50.66-62.89-6.78-20.78-3.9-45.21,11.34-61.91,14.66-16.06,36.4-24.7,57.42-28.49,27.79-5,59.25.83,79.94,21.11,18.8,18.42,25.25,51.35,7.18,72.56-9.06,10.64-23.64,16.56-37.32,12q-1.26-.42-2.49-1a18.57,18.57,0,0,1-7.87-8.69c-2.2-5.05-2.17-12,2.51-15.66a7.52,7.52,0,0,1,7.61-1.29c2.23,1,4.08,3.23,3.8,5.78-.26,2.33-2.46,4.71-4.93,4.48-2.66-.24-4.52-3.71-3-6,.74-1.12-.91-2.4-1.65-1.28-3.29,4.95,2.47,11.42,7.77,8.65a7.3,7.3,0,0,0,1.41-11.89c-4.15-3.88-10.35-2.6-13.89,1.41-4.06,4.61-3.81,11.75-1.34,17,.24.52.51,1,.8,1.52a23.41,23.41,0,0,1-4.47-6.16A25.14,25.14,0,0,1,763,232.54a19.9,19.9,0,0,1,12.28-12.81,21.7,21.7,0,0,1,8.08-1.26,19.92,19.92,0,0,1,3.6.59,1.62,1.62,0,0,0,.74,0,17.18,17.18,0,0,1,4.79,2c9.52,6,11,22.65,1.52,29.07-1.86,1.26-.44,3,1.41,1.73,6.09-4.14,9.32-13,11.11-19.87,2.09-8,1.38-17.27-4.55-23.49-3.81-4-10.24-6.59-15.35-3.39-3.32,2.09-4.77,6.5-3.12,9.77a23.15,23.15,0,0,0-3.49,0c-9.79.71-18.9,7.6-22.66,16.6-8.9,21.26,12.06,42.13,32.8,41.52.77,0,1.54-.07,2.3-.14a6.56,6.56,0,0,0,6.56,3,9.12,9.12,0,0,0,3.31-1.13c-1.81,3.31-2.79,7-1.61,10.8,1.36,4.4,5.25,7.91,10,8,4.39.05,8.9-2.74,9.86-7.2a9.16,9.16,0,0,0-6-10.57c-1.28-.37-2.09,1.56-.8,1.93A6.94,6.94,0,0,1,815.67,290c-4.54,3.07-10.32,1-12.5-3.84-2.64-5.85,1.24-11.4,4.82-15.83,1.29-1.6,2.64-3.13,4-4.61a44.68,44.68,0,0,0,8.16-7.26l.74-.86.43-.35a1,1,0,0,0,.39-.66c10.9-13.68,13.68-31.87,10.2-48.74.63,1.64,1.27,3.27,1.93,4.89,1.52,3.71,4,7.62,8.36,8a5.65,5.65,0,0,0,6.29-6.47c-.59-3.76-5-5.57-8.22-3.77-1.16.65-.37,2.59.8,1.93,3.27-1.83,7.17,1.81,4.62,5-2.14,2.68-6.07.66-7.74-1.46-2.08-2.67-3-6.26-4.23-9.37l-3.56-9.31a73.4,73.4,0,0,1,17-1.47,38.41,38.41,0,0,1,17.54,4.84c5.19,3,10.16,8,11.28,14.14,1,5.7-2.73,13.28-9.53,11.82a6,6,0,0,1-4.71-6.32,4.79,4.79,0,0,1,6.54-3.68c1.23.55,2-1.38.8-1.93a6.89,6.89,0,0,0-8.54,2.83c-1.75,2.87-.84,6.57,1.42,8.88,3.8,3.88,9.37,2.75,12.9-.95,5.13-5.36,5.07-13.88,1.6-20.1a19.2,19.2,0,0,0-1.34-2.07,56.86,56.86,0,0,1,21.13,15.32c10.78,12.59,15.71,30.32,9.58,46.18A39.09,39.09,0,0,1,896,279.34c-8.71,8-20.4,9.92-30.25,2.7-8.42-6.17-13.16-17.3-10.14-27.45a21,21,0,0,1,4.54-8.15l-.22.33c-3.5,5.62-3.13,13.9,2.5,18.08,4.82,3.57,12.58,2.83,15.44-2.84,2.64-5.24-.27-13.05-6.9-12.77a5.81,5.81,0,0,0-5.65,5.54,4.82,4.82,0,0,0,5.4,4.7,1,1,0,0,0-.28-2.07,2.73,2.73,0,0,1-3-2.45,3.66,3.66,0,0,1,2.85-3.53c2.86-.65,5.53,1.52,6.27,4.17a7.34,7.34,0,0,1-6.62,9.35c-5.1.4-9.18-3.39-10-8.27-.94-5.47,2-10.55,6.5-13.55,12.86-8.67,30.71,6.58,24.31,20.73-.55,1.23,1.38,2,1.93.8a17.26,17.26,0,0,0,1.55-7.21,19.19,19.19,0,0,0-3.34-10.77c-9.2-13.42-28.31-11-36.09,2.42-4.21,7.27-4.86,16-5.91,24.14-.85,6.54-1.38,14.38-7,18.83-2.22,1.77-5.21,2.88-8,2a8.4,8.4,0,0,1-5.33-5.35c-1-2.8-.28-6.34,2.37-8a4,4,0,0,1,5,.44,2.77,2.77,0,0,1-.24,3.86c-1,.87.24,2.54,1.26,1.66a4.9,4.9,0,0,0,.64-6.79c-1.9-2.34-5.53-2.43-7.91-.84-4.77,3.2-4.44,10-.94,14,3.75,4.25,9.68,4.15,14.06.92,5.74-4.23,7-11.58,7.86-18.19l.38-2.92a54.86,54.86,0,0,0,2.81,15.39c1.72,5.1,4.21,11.62,9.59,13.84,4.78,2,10.58-.16,12-5.37a7.15,7.15,0,0,0-1.47-6.41c9.14,1.78,17.91-.89,25-6.17a35.23,35.23,0,0,0,14-19.6c.31-.94.59-1.9.82-2.86,2.48-10.1,1-20.24-3.09-29.4A11.7,11.7,0,0,0,918,235c5.6,0,10.92-5.59,7.46-11.09-2.87-4.57-10.62-2.5-9.73,3.05.21,1.33,2.15,1.37,1.94,0-.55-3.4,4.35-4.71,6-1.93,1.87,3.07-.23,6.49-3.35,7.49-6.74,2.16-11.75-4.82-15-9.58a72.58,72.58,0,0,0-11.72-13.58c-10.89-9.71-23.44-13.94-37.33-17.34q-1.82-.45-3.66-.82a56.08,56.08,0,0,0,22.85-10.75c3.73-2.93,7.16-6.29,11.26-8.7a19.89,19.89,0,0,1,20.18,0c5.27,3.17,8.71,9.73,4.65,15.23-3.28,4.44-10,6-13.42.81-2.78-4.27.52-10.3,5.81-9.37,1.33.23,1.58-1.84.26-2.07-6.6-1.17-11.27,6.2-8.23,11.87,2.87,5.37,9.66,6.31,14.48,3a12.07,12.07,0,0,0,4.93-10.86,10.08,10.08,0,0,0,6.3,2.79,7.61,7.61,0,0,0,7.51-4.43,6.07,6.07,0,0,0-2.58-7.62,5.26,5.26,0,0,0-7.11,2.5c-.58,1.22,1.36,2,1.93.8a3.14,3.14,0,0,1,5.56-.12,4.32,4.32,0,0,1-1.34,5.67c-5.22,4-9.89-2.1-12.14-6.11a19.17,19.17,0,0,0-14.43-9.42c3.46-3.91,7-8.27,7.28-13.7a10.31,10.31,0,0,0-5-9.86A8.33,8.33,0,0,0,891,142.78a7.09,7.09,0,0,0-1.59,4.35c-.11-.63-.24-1.26-.4-1.89a26.32,26.32,0,0,0-13.18-17,21.56,21.56,0,0,0-20.83.52c-6.29,3.63-10.37,10.3-9.84,17.66s6.41,14,14.14,14c7,0,13-6.4,11.75-13.45a1.07,1.07,0,0,0-.17-.43c-.26-1.08-2-1.23-2,0,0,5.1-3.93,9.82-9.19,10a9.94,9.94,0,0,1-10.2-9.89c-.22-9.41,9.39-16,18.17-15.16,9.81.91,17.09,9.69,18.18,19.12,1.18,10.18-3.88,19.86-11.56,26.27a41.16,41.16,0,0,1-6.9,4.63,46.65,46.65,0,0,1-17.67,4.61c-21,1.25-48.13-12-48.51-35.82a24.93,24.93,0,0,1,2.42-11.22,19,19,0,0,1,6.87-7.92c6.16-3.88,15.26-3,18.83,3.88,1.53,3,1.86,6.74,0,9.64a9.32,9.32,0,0,1-8.69,4.14c-6.21-.79-8.18-9.83-2.76-13,1.16-.69-.12-2.34-1.26-1.66-7.15,4.23-4,16,4,16.8a11,11,0,0,0,11.24-15.34,13.14,13.14,0,0,0-2.69-4.38,13.54,13.54,0,0,0,6.69,0c3.14-.88,6.11-3.83,5.63-7.33-.39-2.87-3.4-5.61-6.38-4.41a4.33,4.33,0,0,0-2,6.46,1,1,0,0,0,1.66-1.26c-1.37-1.78,1-4,2.85-3.11,2.63,1.32,2,4.71.12,6.34-4.16,3.66-10.57.46-15.08-.66a1,1,0,0,0-.41,0,16.73,16.73,0,0,0-10.73,1c-7.7,3.45-11.1,11.95-13,19.63a36.41,36.41,0,0,0-1,6.33c-.06.88-.49,5.44.31,5.95-34.11-21.53-80.84-19-115.3.24a119.78,119.78,0,0,0-10.2,6.4c1.38-1,2.6-4.5,3.54-6q2.23-3.52,4.72-6.86c5.25-7.07,12.63-14.71,15.1-23.53,2.68-9.56.59-20.41-7.41-26.83A18.33,18.33,0,0,0,667.71,102c11.41-15.21,26.43-28.09,45.92-27.73,18,.33,36.72,13.69,37.69,32.75.49,9.56-4,19.36-13,23.5q-.83.38-1.69.69a12.72,12.72,0,0,1-8-.63c-3.47-1.48-6.72-4.94-6.11-9a5.15,5.15,0,0,1,3.18-4.22,4.06,4.06,0,0,1,4.61,1.09A3.44,3.44,0,0,1,730,123a2.8,2.8,0,0,1-4.31-1.56c-.16-.9-1.58-.77-1.42.14.69,4,6.6,4.53,7.93.65a5,5,0,0,0-4.89-6.58c-3.89,0-6.38,3.57-6.25,7.24.14,4.21,3.63,7.64,7.35,9.11.36.14.74.27,1.11.38a16,16,0,0,1-5.12-1,17.22,17.22,0,0,1-9.52-8.56,13.63,13.63,0,0,1,.09-12.15,14.86,14.86,0,0,1,3.43-4.43,13.65,13.65,0,0,1,2.07-1.4,1.11,1.11,0,0,0,.38-.33,11.77,11.77,0,0,1,3.35-1.23c7.55-1.5,16.11,6.12,14.43,13.76-.33,1.5,1.19,1.69,1.51.2,1.09-4.92-1.5-10.88-3.81-15.11-2.71-4.95-7.44-9.25-13.31-9.56-3.78-.2-8.2,1.53-9.23,5.53a5.36,5.36,0,0,0,3,6.33,15.84,15.84,0,0,0-1.74,1.63,18.91,18.91,0,0,0-3.48,18.92c5.56,14.77,25.81,15.3,35.85,5.25q.56-.56,1.08-1.15a4.49,4.49,0,0,0,4.69-1.58,6.24,6.24,0,0,0,1.12-2.12,9.34,9.34,0,0,0,4.28,6.13,7.47,7.47,0,0,0,8.71-.73c2.21-2,3.14-5.55,1.52-8.22a6.27,6.27,0,0,0-8-2.42c-.81.42-.31,1.76.51,1.34a4.75,4.75,0,0,1,6.74,5.2,5.79,5.79,0,0,1-8,4c-4.06-1.67-4.74-6.26-5-10.15-.11-1.4-.16-2.8-.16-4.2a30.6,30.6,0,0,0,.65-7.45c0-.26,0-.52,0-.78s0-.25.05-.38a.67.67,0,0,0-.12-.51c-1-11.94-8.18-22.3-17.84-29.06,1.08.52,2.17,1,3.26,1.53,2.5,1.13,5.56,1.92,7.94.07a3.87,3.87,0,0,0,.09-6.18,3.82,3.82,0,0,0-5.86,2c-.27.87,1,1.46,1.31.58.77-2.45,4.42-2.47,4.66.32.19,2.34-2.71,3.19-4.54,2.91-2.29-.35-4.45-1.69-6.51-2.68l-6.15-3a50.27,50.27,0,0,1,7.76-8.72,26.31,26.31,0,0,1,11-5.84c4-.94,8.83-.78,12.26,1.74,3.2,2.35,4.88,7.9.81,10.37a4.14,4.14,0,0,1-5.32-.93,3.28,3.28,0,0,1,1.53-4.91c.87-.31.36-1.64-.51-1.34a4.72,4.72,0,0,0-2.92,5.42,5.08,5.08,0,0,0,4.88,3.75c3.71.15,6-3,6-6.54,0-5.08-4-9.29-8.65-10.76a13.14,13.14,0,0,0-1.64-.4,38.94,38.94,0,0,1,17.73-2.31C786,54.52,796.78,61,801.18,71.81a26.77,26.77,0,0,1,1.91,11.86c-.56,8.09-5.49,14.53-13.79,15.57-7.09.89-14.69-2.42-18-8.9a14.39,14.39,0,0,1-1.57-6.19c0,.09,0,.18,0,.26.9,4.44,5,8.4,9.75,7.82,4.08-.49,7.6-4.5,6.35-8.67-1.15-3.85-6.27-6.37-9.44-3.11a4,4,0,0,0-.21,5.41,3.3,3.3,0,0,0,4.9-.2.72.72,0,0,0-1.12-.9,1.87,1.87,0,0,1-2.66.2,2.5,2.5,0,0,1-.24-3.1,3.81,3.81,0,0,1,5.09-.87,5,5,0,0,1,1.1,7.77,6.56,6.56,0,0,1-8.88.59c-3-2.28-3.94-6.21-3.13-9.81,2.32-10.37,18.38-11.17,21.85-1.11.3.87,1.64.36,1.34-.51a11.82,11.82,0,0,0-2.62-4.32,13.14,13.14,0,0,0-6.73-3.79C774.28,67.47,765.9,77.66,768.34,88c1.32,5.6,5.09,10.24,8.4,14.8,2.65,3.65,6.08,7.81,5.39,12.64a6.22,6.22,0,0,1-3,4.8,5.75,5.75,0,0,1-5.17-.16,4.68,4.68,0,0,1-2.58-5.1c.38-1.45,2-2.78,3.65-1.8a1.65,1.65,0,0,1,.73,1.68c-.13.93,1.31,1.18,1.41.26a3.35,3.35,0,0,0-2.87-3.68,4.15,4.15,0,0,0-4.33,3.3c-.87,3.84,2.51,7.09,6.13,7.42,3.86.35,6.77-2.49,7.43-6.16.87-4.8-2-9.05-4.64-12.75l-1.19-1.63A37.57,37.57,0,0,0,786.3,108c3.25,1.73,7.56,3.8,11.28,2.38,3.31-1.26,5.2-5.05,3.44-8.3a4.9,4.9,0,0,0-3.74-2.5,21.45,21.45,0,0,0,9.53-14.81,24.13,24.13,0,0,0-2.25-16.34q-.43-.92-.93-1.81A31,31,0,0,0,788.24,53.4a8,8,0,0,0,5-2.14c2.78-2.64,2.81-7.92-1.5-9-3.58-.92-6.47,3.75-3.41,6.09.73.56,1.71-.33,1-.89-1.87-1.44-.05-4.39,2.1-3.8,2.38.65,2.94,3.34,1.85,5.3-2.34,4.25-8.12,3.12-12,2.27A49.71,49.71,0,0,0,769.07,50c-10,.29-18.22,4.08-26.74,8.92q-1.12.63-2.21,1.32a38.41,38.41,0,0,0,6.32-16.09c.48-3.21.6-6.5,1.52-9.63A13.62,13.62,0,0,1,758,25c4.11-.9,8.91.75,9.47,5.39.45,3.75-2.18,7.71-6.3,6.72-3.39-.82-4.58-5.37-1.51-7.4.77-.51-.08-1.66-.85-1.15-3.84,2.52-2.7,8.39,1.48,9.78,4,1.32,7.78-1.4,8.62-5.31a8.26,8.26,0,0,0-2.65-7.72,6.9,6.9,0,0,0,4.45-1.57A5.21,5.21,0,0,0,772.38,18a4.15,4.15,0,0,0-4.87-2.58A3.6,3.6,0,0,0,765.14,20c.29.88,1.62.36,1.34-.51a2.15,2.15,0,0,1,2.71-2.67,3,3,0,0,1,2,3.45c-.73,4.44-5.91,3.61-8.92,2.67A13.13,13.13,0,0,0,750.67,25c-.12-3.58-.42-7.39-2.82-10.24a7.06,7.06,0,0,0-7.12-2.57A5.71,5.71,0,0,0,736.39,18a4.86,4.86,0,0,0,1.26,2.91q-.52-.39-1.09-.75A18,18,0,0,0,722,17.95,14.77,14.77,0,0,0,711.9,28a13,13,0,0,0,3.4,13.42c3.78,3.47,9.77,3.95,13.64.33a8.11,8.11,0,0,0-.47-12.22.73.73,0,0,0-.29-.13c-.64-.42-1.59.35-1,1a6.64,6.64,0,1,1-9.6,9.18C713,35,714.73,27.17,719.49,23.45c5.31-4.16,13.06-3.22,18,1,5.37,4.51,7.41,11.71,6.6,18.52a28.18,28.18,0,0,1-1.26,5.55,31.94,31.94,0,0,1-6.63,10.6c-9.79,10.41-29.61,16.65-41,5a17.07,17.07,0,0,1-4.07-6.73,13,13,0,0,1-.3-7.17c1.24-4.83,6.16-8.69,11.2-6.92A6.68,6.68,0,0,1,706.6,48a6.38,6.38,0,0,1-2.38,6.15c-3.46,2.53-8.69-1.05-7.51-5.19.25-.89-1.16-1.11-1.41-.23-1.57,5.47,5.53,9.87,9.9,6.48a7.56,7.56,0,0,0-1.61-12.92,9,9,0,0,0-3.4-.91,9.28,9.28,0,0,0,3.35-3.13c1.15-1.92,1.24-4.78-.64-6.29-1.55-1.25-4.33-1.2-5.25.8a3,3,0,0,0,2.05,4.15.72.72,0,0,0,.23-1.41c-1.52-.24-1.41-2.48,0-2.89,1.93-.58,3.2,1.41,3,3.1-.35,3.78-5,5.2-7.82,6.76a.68.68,0,0,0-.21.18A11.46,11.46,0,0,0,690,48.23c-2.21,5.34.09,11.17,2.77,15.87a24.93,24.93,0,0,0,2.47,3.63c.39.46,2.31,2.94,3,2.82a62.42,62.42,0,0,0-17.37,6.22c-12.4,6.63-20.23,17.19-28.35,28.55a75.74,75.74,0,0,1-6,7c-6.63-7.09-8.43-18.92-2-26.8a8.22,8.22,0,0,1,6.29-3.32c7.11,0,5.16,11.18-.89,9a4.78,4.78,0,0,1-2.84-2.67c-.43-1.1-2.24-.66-1.81.46,1.51,3.87,6.64,5.84,10.08,3.11l.11-.09a6.2,6.2,0,0,0,2.76-7.61c-1.86-4.57-7.36-5.71-11.64-4.21a17.89,17.89,0,0,0-10,9.2,48.84,48.84,0,0,0,.87-7.57c.12-4.87-1.26-10-5.28-13.07-3.38-2.57-8.38-2.86-11.6.16a6.94,6.94,0,0,0,.14,10.21c.92.75,2.27-.53,1.34-1.3-3-2.49-2-7.07,1.42-8.64,3.72-1.72,7.79.35,9.91,3.54,2.45,3.68,2.48,8.34,1.91,12.57-.53,3.9-1.4,7.77-2.22,11.64a41.16,41.16,0,0,0-4.79-3.43c-7.92-4.84-19.84-6.56-26.45,1.48a13.25,13.25,0,0,0-2.49,12.61,57.64,57.64,0,0,0-8.05-1.8c.61.09,2.31-2.32,2.65-2.78a23.49,23.49,0,0,0,2.16-3.52c2.32-4.55,4.23-10.13,1.91-15.06a10.79,10.79,0,0,0-4.82-5,.64.64,0,0,0-.21-.16c-2.68-1.35-7.15-2.48-7.65-6-.22-1.58.88-3.51,2.73-3,1.3.33,1.5,2.43.08,2.72a.67.67,0,0,0,.28,1.32,2.79,2.79,0,0,0,1.75-4c-1-1.84-3.57-1.77-5-.53-1.7,1.51-1.5,4.2-.33,6a8.74,8.74,0,0,0,3.29,2.8,8.47,8.47,0,0,0-3.16,1,7.12,7.12,0,0,0-1,12.23c4.25,3,10.74-1.45,9-6.53-.27-.81-1.6-.54-1.32.28,1.3,3.84-3.47,7.44-6.84,5.21A6,6,0,0,1,582.46,85a6.3,6.3,0,0,1,4.05-4.72c4.66-1.88,9.47,1.54,10.84,6a12.23,12.23,0,0,1,0,6.76,16.08,16.08,0,0,1-3.54,6.51C583.64,111,564.71,106,555,96.65a30.09,30.09,0,0,1-6.7-9.69,26.55,26.55,0,0,1-1.42-5.17c-1.06-6.37.55-13.23,5.4-17.71,4.5-4.15,11.75-5.38,16.93-1.7,4.64,3.3,6.57,10.55,2.51,15.06a6.26,6.26,0,1,1-9.43-8.22c.52-.61-.41-1.29-1-.87a.69.69,0,0,0-.27.14A7.64,7.64,0,0,0,561.16,80c3.8,3.23,9.41,2.52,12.82-.91a12.25,12.25,0,0,0,2.62-12.78,13.91,13.91,0,0,0-10-9A17,17,0,0,0,553,60.06c-.34.24-.67.5-1,.76a4.58,4.58,0,0,0,1.06-2.8,5.37,5.37,0,0,0-4.34-5.3,6.65,6.65,0,0,0-6.59,2.73c-2.13,2.79-2.25,6.39-2.21,9.76a12.37,12.37,0,0,0-11-1.47c-2.79,1-7.63,2-8.51-2.12a2.79,2.79,0,0,1,1.73-3.34,2,2,0,0,1,2.67,2.4c-.23.83,1.05,1.26,1.28.42a3.39,3.39,0,0,0-2.42-4.21,3.91,3.91,0,0,0-4.47,2.64,4.91,4.91,0,0,0,1.81,5.33,6.5,6.5,0,0,0,4.25,1.28,7.79,7.79,0,0,0-2.16,7.38,6.36,6.36,0,0,0,8.34,4.63c3.87-1.5,4.69-7.06,1-9.27-.74-.44-1.49.68-.75,1.12,3,1.77,2.06,6.11-1.1,7-3.83,1.11-6.48-2.5-6.22-6,.33-4.4,4.77-6.16,8.68-5.49a12.83,12.83,0,0,1,9.87,8.5c1,2.91,1.25,6,1.85,9a36.18,36.18,0,0,0,6.65,14.87q-1.06-.59-2.13-1.14c-8.22-4.18-16.14-7.39-25.55-7.22a46.83,46.83,0,0,0-11.44,1.71c-3.58,1-9,2.28-11.35-1.62-1.11-1.81-.7-4.36,1.51-5.07,2-.65,3.84,2.05,2.14,3.49-.67.56.3,1.36,1,.8,2.77-2.34-.14-6.61-3.47-5.58-4,1.23-3.74,6.19-1,8.56a7.54,7.54,0,0,0,4.77,1.8A29.21,29.21,0,0,0,492,106.64q-.43.86-.8,1.75a22.73,22.73,0,0,0-1.41,15.47,20.21,20.21,0,0,0,9.61,13.52A4.61,4.61,0,0,0,496,139.9a5.62,5.62,0,0,0,3.6,7.66c3.56,1.17,7.52-1,10.51-2.73a35.39,35.39,0,0,0,7.85-6.34l-1,1.59c-2.36,3.6-4.84,7.72-3.81,12.2.78,3.42,3.64,6,7.26,5.47,3.39-.47,6.43-3.68,5.44-7.25a3.91,3.91,0,0,0-4.22-2.92,3.16,3.16,0,0,0-2.54,3.59c.13.86,1.47.57,1.31-.3a1.56,1.56,0,0,1,.61-1.61,2.38,2.38,0,0,1,3.52,1.53,4.41,4.41,0,0,1-2.21,4.91,5.42,5.42,0,0,1-4.86.37,5.86,5.86,0,0,1-3.07-4.38c-.86-4.52,2.18-8.58,4.52-12.13,2.92-4.43,6.26-9,7.26-14.29,1.85-9.84-6.49-19.06-16.63-16.37a12.38,12.38,0,0,0-6.16,3.86,11.13,11.13,0,0,0-2.27,4.18c-.24.83,1,1.26,1.28.42,2.83-9.61,18-9.56,20.61.09.91,3.35.24,7.08-2.52,9.36a6.18,6.18,0,0,1-8.38-.17,4.74,4.74,0,0,1,.7-7.36,3.59,3.59,0,0,1,4.82.6,2.36,2.36,0,0,1-.09,2.93,1.76,1.76,0,0,1-2.51-.08.67.67,0,0,0-1,.89,3.11,3.11,0,0,0,4.62,0,3.75,3.75,0,0,0-.43-5.08c-3.13-2.93-7.84-.33-8.75,3.34-1,4,2.5,7.6,6.35,7.88,4.51.33,8.18-3.57,8.83-7.79,0-.08,0-.17,0-.25a13.56,13.56,0,0,1-1.21,5.89c-2.79,6.23-9.8,9.68-16.51,9.15-7.85-.62-12.78-6.46-13.65-14a25.22,25.22,0,0,1,1.28-11.24C498.16,101.11,508,94.52,518.6,92.9a36.68,36.68,0,0,1,16.78,1.4,12.39,12.39,0,0,0-1.52.45c-4.31,1.59-7.93,5.73-7.67,10.51.17,3.29,2.42,6.19,5.91,5.89a4.78,4.78,0,0,0,4.43-3.74,4.45,4.45,0,0,0-3-5c-.83-.25-1.25,1-.42,1.28a3.09,3.09,0,0,1,1.65,4.55,3.9,3.9,0,0,1-5,1.11c-3.94-2.15-2.59-7.45.31-9.79,3.12-2.52,7.65-2.88,11.47-2.17a24.78,24.78,0,0,1,10.61,5,47.36,47.36,0,0,1,7.68,7.86l-5.66,3.05c-1.89,1-3.87,2.38-6,2.81-1.71.34-4.48-.32-4.4-2.54.1-2.64,3.54-2.78,4.37-.51.3.81,1.5.2,1.2-.61a3.6,3.6,0,0,0-5.61-1.61,3.64,3.64,0,0,0,.36,5.81c2.32,1.64,5.17.76,7.47-.42,1-.51,2-1,3-1.58-8.8,6.78-15.09,16.85-15.52,28.13a.63.63,0,0,0-.09.49l.07.35c0,.24,0,.49,0,.73a28.82,28.82,0,0,0,.94,7c.06,1.32.08,2.64,0,4-.12,3.67-.56,8-4.31,9.77a5.45,5.45,0,0,1-7.73-3.38,4.48,4.48,0,0,1,6.11-5.19c.79.36,1.2-.92.42-1.28a5.91,5.91,0,0,0-7.4,2.63,6.35,6.35,0,0,0,1.79,7.67,7,7,0,0,0,8.23.3,8.8,8.8,0,0,0,3.76-6,5.88,5.88,0,0,0,1.14,1.95,4.23,4.23,0,0,0,4.48,1.28q.52.53,1.07,1c9.89,9,28.91,7.64,33.51-6.5A17.81,17.81,0,0,0,577,140a14.92,14.92,0,0,0-1.71-1.46,5.05,5.05,0,0,0,2.58-6.09c-1.15-3.72-5.38-5.16-8.93-4.8-5.51.55-9.78,4.8-12.11,9.57-2,4.09-4.16,9.8-2.93,14.39.38,1.39,1.79,1.15,1.42-.25-1.92-7.11,5.81-14.65,13-13.57a11.09,11.09,0,0,1,3.2,1,1,1,0,0,0,.37.29,12.85,12.85,0,0,1,2,1.22,14,14,0,0,1,3.42,4,12.84,12.84,0,0,1,.61,11.43,16.22,16.22,0,0,1-8.59,8.47,15.1,15.1,0,0,1-4.78,1.13c.35-.12.69-.26,1-.41,3.43-1.55,6.56-4.93,6.52-8.9,0-3.45-2.53-6.69-6.2-6.54a4.71,4.71,0,0,0-4.31,6.41c1.43,3.59,7,2.84,7.44-1,.11-.86-1.24-.92-1.35-.07a2.64,2.64,0,0,1-4,1.66,3.24,3.24,0,0,1-.53-4.27,3.83,3.83,0,0,1,4.29-1.23,4.85,4.85,0,0,1,3.18,3.83c.74,3.77-2.16,7.17-5.36,8.71a12,12,0,0,1-7.51.94q-.82-.26-1.62-.58c-8.62-3.51-13.26-12.54-13.21-21.55.09-18,17.1-31.36,34-32.46,18.65-1.21,36.49,9.17,48,23.32,17.27,21.28,15.27,43.5,14.78,69A136.74,136.74,0,0,0,642,229.77c-16.64-11.86-36.08-20.08-56.67-21a81.4,81.4,0,0,0-23.93,2.49c.82-.21,1.69-4.21,1.88-5a32.51,32.51,0,0,0,.85-5.66c.49-7-.09-15.2-5.7-20.22a14.94,14.94,0,0,0-8.85-3.77.89.89,0,0,0-.35-.09c-4.14-.27-10.46.71-13-3.53-1.14-1.89-.77-5,1.83-5.36,1.84-.29,3.23,2.28,1.58,3.42a.93.93,0,0,0,1.07,1.53,3.87,3.87,0,0,0,.07-6c-2.21-1.83-5.51-.32-6.63,2-1.36,2.84.36,6.16,2.8,7.76a12.09,12.09,0,0,0,5.7,1.78,11.73,11.73,0,0,0-3.48,3,9.86,9.86,0,0,0,5.4,16.1c7,1.52,12.9-7.66,8-13.2-.79-.89-2.33.17-1.53,1.07,3.73,4.2-.4,11.36-5.89,10.34a8.32,8.32,0,0,1-6.26-5.88,8.72,8.72,0,0,1,2.61-8.21c4.93-4.92,12.89-3.16,17.08,1.82a16.94,16.94,0,0,1,3.69,8.6,22.26,22.26,0,0,1-1,10.2c-6.8,20.14-33.62,24-51,17.29a41.65,41.65,0,0,1-13.78-8.72,36.74,36.74,0,0,1-4.61-5.81c-4.79-7.54-6.46-17.15-2.69-25.49,3.49-7.73,12.07-13.21,20.66-11.32,7.69,1.69,14.09,9.89,11.34,17.84a8.88,8.88,0,0,1-11.36,5.64c-4.43-1.59-6.48-6.66-5.1-11,.34-1.06-1.21-1.42-1.73-.57a1,1,0,0,0-.26.32c-2.94,5.66.37,12.77,6.34,14.63,6.59,2.06,13.36-1.88,15.84-8.09A17,17,0,0,0,521.33,169a19.26,19.26,0,0,0-17.58-6.1,23.5,23.5,0,0,0-15.82,10.84c-.3.5-.59,1-.85,1.5a6.33,6.33,0,0,0-.17-4.13,7.44,7.44,0,0,0-8.39-4.41,9.2,9.2,0,0,0-6.92,7c-1.21,4.7.58,9.36,2.47,13.63a17.12,17.12,0,0,0-14.83,4.09c-3,2.8-8.63,6.71-12,1.9a3.86,3.86,0,0,1,.4-5.19,2.81,2.81,0,0,1,4.7,1.61c.16,1.19,2,1,1.86-.15a4.69,4.69,0,0,0-5.37-4.06,5.42,5.42,0,0,0-4.27,5.78,6.79,6.79,0,0,0,5.18,5.81,9,9,0,0,0,6.11-.66,10.78,10.78,0,0,0,1.24,10.57c3.2,4.13,9.23,5.17,13.13,1.38,4.13-4,2.16-11.54-3.78-12.34-1.19-.16-1.54,1.67-.34,1.83,4.75.64,5.93,6.67,2.4,9.55-4.28,3.49-9.61.33-11.19-4.34-2-5.78,2.75-10.43,8.09-11.69A17.76,17.76,0,0,1,482.59,197c2.84,3.16,4.84,7,7.22,10.46a50.08,50.08,0,0,0,16.51,15.35q-1.67-.19-3.34-.3c-12.74-.87-24.56-.69-36.47,4.61a64.82,64.82,0,0,0-13.66,8.37c-4,3.17-10.2,7.75-15.34,4.08-2.39-1.7-3.24-5.18-.82-7.28,2.2-1.91,6,.54,4.62,3.28-.54,1.07,1.12,1.57,1.66.49,2.27-4.48-3.76-8.34-7.45-5.24-4.44,3.74-1.42,9.92,3.33,11.46a10.44,10.44,0,0,0,7.06-.29,40.44,40.44,0,0,0-10.62,24.17c-.06.88-.08,1.77-.08,2.66a31.46,31.46,0,0,0,6.57,20.48,28,28,0,0,0,19.56,12,6.39,6.39,0,0,0-3,5.05c-.23,4.81,4.12,8.2,8.73,7.82,5.18-.43,9.07-5.3,11.92-9.17a49,49,0,0,0,6.57-12.33l-.47,2.59c-1.06,5.86-2,12.46,1.74,17.61,2.85,3.94,7.87,5.64,12.21,3,4.06-2.43,6.2-8.16,3-12.18-1.59-2-4.71-2.91-7-1.44a4.37,4.37,0,0,0-1.3,5.95c.63,1,2.16-.05,1.53-1.07a2.47,2.47,0,0,1,.85-3.35,3.55,3.55,0,0,1,4.36,1c1.8,2.13,1.42,5.33-.16,7.45a7.5,7.5,0,0,1-6,3.1,8.11,8.11,0,0,1-6.28-3.92c-3.54-5.29-1.86-12.11-.8-17.9,1.32-7.22,3.13-14.81,1.53-22.14-3-13.54-18.57-20.78-30-11.87a17.14,17.14,0,0,0-5.77,8.25,15.41,15.41,0,0,0-.64,6.55c.14,1.19,2,1,1.86-.15-1.59-13.78,17.73-21.9,26.32-11,3,3.77,4.14,8.9,1.85,13.3a8.55,8.55,0,0,1-10.77,4.31,6.56,6.56,0,0,1-3.09-9.75c1.35-2.05,4.21-3.18,6.47-1.85a3.26,3.26,0,0,1,1.47,3.78,2.43,2.43,0,0,1-3.24,1.26.93.93,0,0,0-.8,1.68,4.3,4.3,0,0,0,5.87-2.53,5.19,5.19,0,0,0-3.3-6.25c-5.57-2-10.16,3.82-9.34,9,.89,5.6,7.29,8.34,12.36,6.61,5.93-2,8.5-9,7-14.7,0-.11-.06-.22-.09-.34a18.77,18.77,0,0,1,1.65,8.16c-.19,9.45-7.25,17.63-16.09,20.59-10.34,3.46-19.77-1.32-25-10.52a34.91,34.91,0,0,1-4.45-15c-.91-15.15,8.1-28.9,20.69-36.68a50.78,50.78,0,0,1,22.14-7.29,17.14,17.14,0,0,0-1.7,1.4c-4.63,4.35-7,11.59-4.1,17.54,2,4.1,6.44,6.58,10.72,4.31a6.62,6.62,0,0,0,3.62-7.16,6.16,6.16,0,0,0-6.49-4.73.93.93,0,0,0,.15,1.86A4.27,4.27,0,0,1,490.7,245a5.39,5.39,0,0,1-5.73,4.1c-6.18-.61-7.33-8.08-4.9-12.65,2.62-4.9,8.19-7.81,13.44-9a34.3,34.3,0,0,1,16.23.65,65.55,65.55,0,0,1,14,5.87l-5.56,7c-1.86,2.33-3.65,5.13-6.14,6.83-2,1.36-5.88,2-7-.86-1.3-3.42,3-5.46,5.29-3,.82.88,2-.56,1.21-1.42a5,5,0,0,0-8,1,5,5,0,0,0,3.6,7.21c3.84.83,7-1.83,9.3-4.57,1-1.2,2-2.41,3-3.63-7.54,13.4-10.12,29.63-4.57,44.23a.87.87,0,0,0,.15.67l.28.41q.19.47.4.94a39.9,39.9,0,0,0,5,8.39c.79,1.64,1.52,3.32,2.18,5a13.19,13.19,0,0,0,6.1,7.2,5.86,5.86,0,0,0,6.4-.79q.94.4,1.92.74c17.48,6.15,41-5.9,39.18-26.41-.76-8.67-6.63-17-14.77-20.28a20.66,20.66,0,0,0-3-.94c2.29-2.33,2.26-6.48,0-9.16-3.47-4.11-9.64-3.66-14-1.29C538,255,534.88,262.67,534.5,270c-.33,6.29,0,14.74,4.05,19.92,1.23,1.57,2.91.49,1.67-1.09-6.29-8-.53-21.81,9.19-24.31a15.35,15.35,0,0,1,4.63-.44,1.45,1.45,0,0,0,.64.17,17.8,17.8,0,0,1,3.22.47,19.38,19.38,0,0,1,6.53,3.27,17.77,17.77,0,0,1,7,14.23A22.45,22.45,0,0,1,565,297.67a20.91,20.91,0,0,1-5.48,4c.38-.34.74-.7,1.09-1.08,3.54-3.83,5.7-9.83,3.49-14.86-1.92-4.38-6.84-7.15-11.43-5a6.52,6.52,0,0,0-2,10.5c3.76,3.8,10.41-.14,9-5.24-.33-1.15-2.08-.51-1.75.64.66,2.34-1.86,4.79-4.19,4.27-2.17-.48-3.39-3.11-3-5.15a5.3,5.3,0,0,1,4.8-3.89,6.72,6.72,0,0,1,6.12,3.16c3,4.4,1.13,10.3-2.12,14a16.58,16.58,0,0,1-9.06,5.26q-1.19.12-2.38.14c-12.88.19-23.67-8.81-28.49-20.32-9.6-22.95,4.82-49.21,25.82-59.77,23.11-11.62,51.46-8,73.74,3.77,22.65,12,30.79,33.45,43.68,53.84,14,22.09,32.69,40.76,52.54,57.58,23.89,20.24,49.67,38.12,73.47,58.47,23.29,19.91,45,42.46,59.12,70a165.18,165.18,0,0,1,17.08,91.24q-.56,5.56-1.52,11.07-3.17-1.19-6.33-2.4c-1.87-.72-2.74,2.27-.88,3a635.42,635.42,0,0,0,75.6,23.92q11,2.74,22.09,5.08C956,600.32,956.86,597.34,954.9,596.92ZM786.06,208.45c4.3-5.32,12-1.66,15.39,2.69,5.55,7.08,4.84,15.69,2,23.67a22.69,22.69,0,0,0-1.38-7,19.28,19.28,0,0,0-9.87-10.7,5.42,5.42,0,0,0,2-5.73c-.36-1.3-2.29-.48-1.93.8a3.34,3.34,0,0,1-2.52,3.93c-.32-.1-.65-.2-1-.29a22.86,22.86,0,0,0-2.38-.5A5.08,5.08,0,0,1,786.06,208.45Zm14.45,64.94c-1.86.76-4.34.67-5.73-.75a40.2,40.2,0,0,0,10.41-3.07A12.44,12.44,0,0,1,800.51,273.39Zm69.68,26.73a7.56,7.56,0,0,1-7.59-.81c-4.35-3.1-6.36-9.65-7.72-14.57a51.74,51.74,0,0,1-1.57-8.32A31,31,0,0,0,867,288.17a6.19,6.19,0,0,0-3.26,9.11c.73,1.13,2.39-.14,1.66-1.26a4.08,4.08,0,0,1,1.85-5.73c2.3-1,5.12.6,6,2.83A5.87,5.87,0,0,1,870.19,300.13Zm41.43-56.54a41.51,41.51,0,0,1-.93,20.92,38.43,38.43,0,0,1-13,17.92,29.85,29.85,0,0,1-6.76,3.34,29.53,29.53,0,0,1-3.33.94,36.2,36.2,0,0,0,5.45-2.8c15.35-9.61,20.54-29.49,15.81-46.3a51.76,51.76,0,0,0-5.31-12.34A51.82,51.82,0,0,1,911.62,243.58Zm-41.14-42.2a.89.89,0,0,0,.37.31,17.33,17.33,0,0,1,4,5c.25.48.48,1,.68,1.48a26.07,26.07,0,0,0-4.5-5.42,31,31,0,0,0-6.86-4.79A18.7,18.7,0,0,1,870.48,201.38ZM904.08,168c-.47-.16-.95-.32-1.43-.45A21.6,21.6,0,0,0,888,168.86c-.75.35-1.47.73-2.17,1.14a19.89,19.89,0,0,1,5.86-2.92A18.07,18.07,0,0,1,904.08,168Zm-14.36-18.59a6.87,6.87,0,0,0,2,3.16,6.54,6.54,0,0,0,9.39-1,1,1,0,0,0-1.65-1.28c-2.87,3.75-8.31.9-7.95-3.48.34-4.17,5.28-6,8.71-4.24C904,144.57,905,149.11,904,153c-1.08,4.27-4.18,7.67-7,10.88a1,1,0,0,0-.23.44,22,22,0,0,0-10.83,2.51A29.74,29.74,0,0,0,889.73,149.45Zm-4.83-8.32c-5.15-9.16-16.17-14.27-26.23-10.25a18.19,18.19,0,0,0-10.2,9.83,15.47,15.47,0,0,0-1.09,6.48,16.2,16.2,0,0,1,1.36-8.88c3.16-6.76,11-10.88,18.36-10.39,6.94.46,13.09,4.8,16.79,10.55a23.27,23.27,0,0,1,3.29,8.27A24,24,0,0,0,884.9,141.13ZM715,100.07c-.36-4.67,5.18-6.46,8.93-5.9,6.1.92,9.79,5.53,12.15,10.82a15.53,15.53,0,0,0-4-2.85,13.2,13.2,0,0,0-9.94-.68,3.71,3.71,0,0,0-1.72-3.77c-.79-.48-1.36.84-.58,1.31a2.28,2.28,0,0,1,.59,3.14l-.62.31a15.64,15.64,0,0,0-1.42.87A3.48,3.48,0,0,1,715,100.07Zm37.73,25.54a3.72,3.72,0,0,1-3.21,2.33,27.53,27.53,0,0,0,3.74-6.42A8.52,8.52,0,0,1,752.76,125.61Zm45.48-24.37a4,4,0,0,1,1.78,4.92,5.18,5.18,0,0,1-4.16,3.17c-3.62.5-7.7-1.81-10.69-3.62a35.43,35.43,0,0,1-4.69-3.41,21.2,21.2,0,0,0,12.34-.6,4.24,4.24,0,0,0,2.66,6.07c.9.22,1.12-1.19.23-1.41a2.8,2.8,0,0,1-1.77-3.72A3.28,3.28,0,0,1,798.24,101.23Zm-4.19-42.71a28.43,28.43,0,0,1,9.37,10.85,26.32,26.32,0,0,1,2,15,20.42,20.42,0,0,1-3,6.88,24.78,24.78,0,0,0,1.4-4c3.12-12-3.64-24.34-13.9-30.49a35.45,35.45,0,0,0-8.44-3.65A35.49,35.49,0,0,1,794.06,58.52Zm-40.33-1.67a.61.61,0,0,0,.33,0,11.87,11.87,0,0,1,4.32.62c.35.12.7.26,1,.42a17.85,17.85,0,0,0-4.79-.58,21.21,21.21,0,0,0-5.67.84A12.81,12.81,0,0,1,753.73,56.85ZM732.58,20.08c-6.87-2.14-14.76.5-17.88,7.23a12.46,12.46,0,0,0-.45,9.69,10.59,10.59,0,0,0,2.5,3.74,11.09,11.09,0,0,1-3.5-5.06c-1.61-4.85.37-10.6,4.25-13.81a15.28,15.28,0,0,1,13.32-2.64,15.93,15.93,0,0,1,5.53,2.57A16.47,16.47,0,0,0,732.58,20.08Zm22.2,4.37c-.31.14-.62.29-.92.45a14.8,14.8,0,0,0-6.72,7.54c-.21.52-.38,1.05-.54,1.59a13.62,13.62,0,0,1,1.54-4.21A12.37,12.37,0,0,1,754.78,24.45Zm-15.89-2.5a4.7,4.7,0,0,0,2.47.65,4.48,4.48,0,0,0,4.21-4.91.72.72,0,0,0-1.42.14c.33,3.22-3.71,4.35-5.59,2s-.17-5.45,2.34-6.2c2.83-.84,5.42,1,6.75,3.38,1.47,2.64,1.53,5.79,1.61,8.73a.67.67,0,0,0,.09.33,15.06,15.06,0,0,0-4.21,6.34A20.37,20.37,0,0,0,738.89,21.95Zm-180.49,37a14.39,14.39,0,0,1,12.65,1.91,12.45,12.45,0,0,1,4.6,12.81,10.45,10.45,0,0,1-3.07,4.91,10,10,0,0,0,2.19-3.63,11.73,11.73,0,0,0-.85-9.1c-3.23-6.2-10.76-8.33-17.14-6a15.52,15.52,0,0,0-3.48,1.79A15,15,0,0,1,558.4,58.91ZM543.62,72.05a13.94,13.94,0,0,0-6.65-6.8c-.29-.14-.59-.27-.89-.38a11.66,11.66,0,0,1,6.48,4.76,12.83,12.83,0,0,1,1.64,3.9C544,73,543.84,72.54,543.62,72.05Zm-2.36-5.9a.63.63,0,0,0,.07-.31c0-2.77-.14-5.74,1.13-8.28,1.15-2.31,3.51-4.15,6.21-3.48,2.4.6,4.07,3.55,2.47,5.74s-5.52,1.4-5.35-1.64a.67.67,0,0,0-1.35-.07,4.22,4.22,0,0,0,4.18,4.43,4.43,4.43,0,0,0,2.29-.71,19.19,19.19,0,0,0-5.42,10.12A14.18,14.18,0,0,0,541.27,66.15Zm-38.62,74a2.63,2.63,0,0,1-1.51,3.58c-.83.24-.55,1.56.28,1.32a4,4,0,0,0,2.24-5.82,20,20,0,0,0,11.64,0,33.38,33.38,0,0,1-4.27,3.41c-2.73,1.84-6.47,4.19-9.9,3.88a4.88,4.88,0,0,1-4-2.8,3.78,3.78,0,0,1,1.46-4.7A3.09,3.09,0,0,1,502.65,140.13Zm1.82-43.27c-9.39,6.23-15.21,18.14-11.75,29.29a23.35,23.35,0,0,0,1.49,3.66A19.06,19.06,0,0,1,493,128a19.25,19.25,0,0,1-1.9-4.48,24.79,24.79,0,0,1,1.19-14.23,26.78,26.78,0,0,1,8.35-10.62,33.43,33.43,0,0,1,11.64-5.57A33.39,33.39,0,0,0,504.47,96.86Zm33.2-1.11a16.82,16.82,0,0,0-4.48.76c.31-.16.63-.31,1-.44a11.18,11.18,0,0,1,4-.77.58.58,0,0,0,.31,0,12.07,12.07,0,0,1,4.55,1A20,20,0,0,0,537.67,95.75Zm36.08,41.74a14.75,14.75,0,0,0-1.38-.76l-.6-.27a2.15,2.15,0,0,1,.42-3c.71-.48.11-1.69-.61-1.2a3.5,3.5,0,0,0-1.45,3.62,12.44,12.44,0,0,0-9.33,1.08,14.63,14.63,0,0,0-3.63,2.86c2-5.08,5.26-9.59,11-10.71,3.5-.69,8.8.75,8.66,5.16A3.28,3.28,0,0,1,573.75,137.5ZM545.52,162a3.5,3.5,0,0,1-3.12-2,8,8,0,0,1-.68-3.83A25.93,25.93,0,0,0,545.52,162Zm91.53-25.3c-6.91-10.08-15.79-18.82-26.6-24.58a8,8,0,0,0,5.35-3c2.77-3.52,2-8.92-2.27-10.84a5.77,5.77,0,0,0-8,6c.14,1.19,1.95.72,1.81-.46a4,4,0,0,1,3.2-4.15,4.6,4.6,0,0,1,4.61,2.52c1.73,3.31-.88,7.25-4.26,8a7.85,7.85,0,0,1-8.22-3.57,9.53,9.53,0,0,1,.55-9.76c6.5-10,20.24-3.18,25.51,4.33a52.1,52.1,0,0,1,6.47,14.12,77,77,0,0,1,3.59,23.16A7.94,7.94,0,0,1,637.05,136.71Zm-.63-36.76a18.07,18.07,0,0,1,7.06-16c-.23.25-.45.52-.66.79-3.42,4.45-4.62,10.58-3.89,16.07a22,22,0,0,0,.5,2.56A45,45,0,0,0,636.42,99.95Zm-142.3,69.43c4.71-3.88,11.12-5.91,17.15-4.41,6.37,1.58,11.94,7.22,12.79,13.83a14.47,14.47,0,0,1-1.26,7.92,13.81,13.81,0,0,0,.83-5.81,16.24,16.24,0,0,0-6-11.14c-7.46-6.16-18.22-4.8-25.1,1.59a21.48,21.48,0,0,0-3.46,4.16A20.78,20.78,0,0,1,494.13,169.38ZM482.4,194.12A19.29,19.29,0,0,0,470.25,189c-.45,0-.89,0-1.34,0a16.13,16.13,0,0,1,10.83,2.57,17.76,17.76,0,0,1,4.19,4.08C483.45,195.14,482.94,194.62,482.4,194.12Zm2.34-1.17a19.64,19.64,0,0,0-8.53-5.08.88.88,0,0,0-.08-.44c-1.56-3.51-3.28-7.24-3-11.17.22-3.57,2.23-7.18,6-7.79,3.38-.54,7.1,2.33,6.26,6-.89,3.82-6.28,4.77-7.71.8a.93.93,0,0,0-1.75.64,5.84,5.84,0,0,0,7.72,3.39,6.13,6.13,0,0,0,2.53-2.15A26.56,26.56,0,0,0,484.74,193ZM467,303a3.65,3.65,0,0,1,0,5.37c-.92.76.14,2.29,1.07,1.53a5.53,5.53,0,0,0-.29-8.63A27.64,27.64,0,0,0,482.64,295a46.2,46.2,0,0,1-3.59,6.65c-2.49,3.82-6,8.84-10.53,10.3a6.75,6.75,0,0,1-6.67-1.37,5.24,5.24,0,0,1-.69-6.78A4.28,4.28,0,0,1,467,303Zm-21.08-56.13c-8.59,13-9.57,31.34.87,43.68a32.32,32.32,0,0,0,3.88,3.86,26.38,26.38,0,0,1-2.58-1.7,26.66,26.66,0,0,1-4.84-4.68,34.32,34.32,0,0,1-6.17-18.77,37.08,37.08,0,0,1,4.89-18,46.28,46.28,0,0,1,11.82-13.4A46.22,46.22,0,0,0,445.92,246.91Zm41.71-19.37a23.28,23.28,0,0,0-5.3,3.39c.31-.37.64-.73,1-1.08A15.48,15.48,0,0,1,488,226.7a.8.8,0,0,0,.4-.17,16.7,16.7,0,0,1,6.33-1.2A27.67,27.67,0,0,0,487.63,227.54Zm68.56,33.68A20.4,20.4,0,0,0,554,261l-.91,0a3,3,0,0,1-1.08-4c.65-1-.77-2.21-1.42-1.21a4.84,4.84,0,0,0,.11,5.4,17.22,17.22,0,0,0-11.3,6.42,20.26,20.26,0,0,0-3.08,5.61c-.21-7.55,1.52-15.06,8.17-19.58,4.09-2.78,11.61-3.81,13.83,1.89A4.54,4.54,0,0,1,556.19,261.22Zm-22.72,46.51c-1.57.83-3.71.23-5.08-.92a11.11,11.11,0,0,1-2.94-4.52A35.9,35.9,0,0,0,533.47,307.73Zm117.45-76.79a109.34,109.34,0,0,1-4.51-27.34c-.71-20.09-1.12-42.39,3.57-62.06,2.92-12.26,6.05-20.85,10.7-29a14.19,14.19,0,0,0,5,13c7.2,5.71,19.49.15,19.2-9.3,0-1.2-1.9-1.24-1.87,0,.23,7.57-9.45,12.46-15.59,8.31s-6.61-13.86-1.34-18.94c9.3-9,23.21-2,27.34,8.68,5.32,13.81-7.88,26.76-15.78,36.48-13,16-23.07,34.34-26.14,54.88C650.39,213.06,648.75,223.62,650.92,230.94Z"/><path d="M1206,569.79l0-.13c0-3.84,0-7.67,0-11.46a7.44,7.44,0,0,1-.61-3.42,69.15,69.15,0,0,0-2.29-10.49c-.73-2.35-1.58-4.7-2.5-7,.72-2.34,1.43-4.67,2.15-7,.22-.72.35-1.45.52-2.17-.14.16-.44,0-.39-.15l-4.21,4.81a83,83,0,0,0-4.69-8.52,96.83,96.83,0,0,0-8.19-11.35c-1.27-1.5-2.56-3-3.84-4.5a1.4,1.4,0,0,0-.76-.43s0,.08-.09.07a4.31,4.31,0,0,0,.25.86,66.7,66.7,0,0,1,6.56,27l-2.09-8.08c-.79.36-.56.64-.75.87l-.67,2.67a.11.11,0,0,0-.22,0l-.32-1.35c-.35-.66,0-1.36-1-2-.09.21-.18.42-.26.63q-.64-3.6-1.29-7.19l.94-3.06h0l-.89-.34-.55.63-.37-2.08c-.75-4.14-1.54-8.27-2.3-12.41v0h-.82c-.14,1.49-.48,3-.75,4.46-.79,4.27-1.56,8.53-2.33,12.8l-1.11,6.1H1173c-.64-1.12-1.29-2.24-2-3.36a96.83,96.83,0,0,0-8.19-11.35c-1.27-1.5-2.56-3-3.84-4.5a1.4,1.4,0,0,0-.76-.43s0,.08-.09.07a4.32,4.32,0,0,0,.25.86,71.15,71.15,0,0,1,3.11,7.69q-1.32.85-2.58,1.71l-.5-.19-.55.63-.37-2.08c-.75-4.14-1.54-8.27-2.3-12.41v0h-.82c-.14,1.49-.48,3-.75,4.46-.15.83-.3,1.65-.45,2.48a110.44,110.44,0,0,0-7.27,13.38c-1.19,2.54-2.27,5.08-3.3,7.63q-1.8,2-3.39,4c-2-3.76-4.05-7.48-6.39-11.18a57.17,57.17,0,0,1,5.9-7.21l.63-.65c-.45.29-1-.22-.64-.59-2.8,1.8-5.39,3.63-7.81,5.49q-.61-.9-1.25-1.8a87.84,87.84,0,0,1,1.44-9.13,1.08,1.08,0,0,0-.19-.86c-1.42,2.13-2.7,4.27-3.89,6.41l-.31-.4c.51,1.46-1.74,2.39-2.73,1.13.36,1,.69,2.08,1,3.12q-.5,1-1,2c-2.48-2-5.16-4-8.07-6,0,.05,0,.12-.1.08a108.67,108.67,0,0,1,6.75,8.92h0q-1.54,3.35-2.89,6.71c-.28.31-.55.62-.83.93-.3-.3-.58-.6-.89-.91s-.92-.88-1.39-1.32l-2.43-11.18a.59.59,0,0,1-1.15,0l-1.5,6.88-1.06-.79c-.59-.94-1.18-1.89-1.81-2.83-1.47-2.21-3.2-4.61-4.85-6.73.51,1.46-1.74,2.39-2.73,1.13.33.93.62,1.87.9,2.8-2.75-1.63-5.69-3.21-8.87-4.75.06,0,0,.12-.07.09a80.55,80.55,0,0,1,7.56,6.53c-2.34-1.88-4.85-3.74-7.56-5.57,0,.05,0,.12-.1.08,2.12,2.73,4.47,5.43,6.28,8.19a56,56,0,0,1,4.84,8.82q.46,1.09.87,2.19a65.17,65.17,0,0,1,0,9.73,42.17,42.17,0,0,0-3.92-6.5l-1-3.87a.27.27,0,0,1-.53,0l-.37,1.4a56.09,56.09,0,0,0-4-4.29c-.45-.44-.92-.88-1.39-1.32l-2.43-11.18a.59.59,0,0,1-1.15,0l-.71,3.24-1.75-4.17.09-.61a56.85,56.85,0,0,1,1.53-7.61,2,2,0,0,0,0-.52c-.77.17-.77.43-.93.63q-1.45,1.92-2.82,3.84a.3.3,0,0,0-.26.23l0,.18c-1.5,2.15-2.9,4.31-4.14,6.48a115.29,115.29,0,0,0-10.91-6c.06,0,0,.12-.07.09a75.67,75.67,0,0,1,9.51,8.54c-.54,1-1.08,2-1.61,2.93a1.44,1.44,0,0,1-.77.51c-2.6,1-5.12,2-7.59,3.06l-.53-1.27a73.19,73.19,0,0,1,1.78-7.58c-.21.24-.64.06-.56-.24-1,1.19-2,2.38-3,3.58l-2.62-6.25.09-.61a56.86,56.86,0,0,1,1.53-7.61,2,2,0,0,0,0-.52c-.77.17-.77.43-.93.63q-1.45,1.92-2.82,3.84a.3.3,0,0,0-.26.23l0,.18c-1.6,2.29-3.08,4.58-4.39,6.9-1,1.71-1.9,3.43-2.83,5.15a1.44,1.44,0,0,1-.77.51c-2.88,1.1-5.67,2.24-8.4,3.39a72.37,72.37,0,0,1,2.06-9.18c-.21.24-.64.06-.56-.24a92.1,92.1,0,0,0-6.19,7.83l-1.3-6q.78-.89,1.61-1.77c-.3.18-.66-.15-.43-.4l-1.36.84v-4.21c-.2.47-1,.34-1-.16l-.42,1s0,0,0,0l-.06.24-2.54,5.94c-1.19.86-2.35,1.73-3.46,2.6q-2.28-3.38-4.93-6.73c0,.06-.07.09-.11,0a92.86,92.86,0,0,1,2,9.19q-3.09,2.67-5.72,5.4c-.34.35-.65.7-1,1.05-.28-1-.55-2.07-.82-3.1-.58-2.23-1.11-4.46-1.67-6.68-.05-.21,0-.44-.72-.79l-2.49,9.61V517.69c-.2.47-1,.34-1-.16l-2.78,6.49v-9.28c-.1.24-.52.18-.52-.08l-4.5,10.73c-1.15-1.63-2.36-3.25-3.64-4.86,0,.06-.07.09-.11,0q1.23,4.5,2,9l-5.16,12.29c-.77-2.92-1.56-5.84-2.32-8.76-.23-.9-.46-1.8-.68-2.7.29-1.64.64-3.28,1.06-4.92a67.76,67.76,0,0,1,4.2-11.94h0l-.94-.46a109.22,109.22,0,0,0-10.15,13.11l-2.15-.64V514.74c-.1.24-.52.18-.52-.08l-3.46,8.25-1-4.37a.34.34,0,0,1-.65,0l-2.9,13.34c-1.85-1.44-3.8-2.86-5.89-4.26.16-.71.32-1.42.5-2.13a67.82,67.82,0,0,1,4.2-11.94h0l-.94-.46q-3.27,3.63-6,7.3a102.36,102.36,0,0,1,3.55-10l0,0a.69.69,0,0,0-.29.16,107.81,107.81,0,0,0-9.39,12c-1.84-1-3.49-1.86-4.68-2.38l-.34-1.58a.33.33,0,0,1-.65,0l-.24,1.12-.18-.05.16.14-2.64,12.13q-1.4-1.09-2.87-2.16a143.5,143.5,0,0,1,1.12-23.41c0-.11-2.67,5.08-5.39,10.82q1.13-3.39,2.52-6.77l0,0a.68.68,0,0,0-.29.16,107.77,107.77,0,0,0-9.39,12l-1.8-1c-.22-.93-.44-1.86-.64-2.79,0-.17.12-.37-.53-.59a.07.07,0,0,1-.09,0l-.53,2.44a14.27,14.27,0,0,0-2.52-1c.27.23.47.44.74.62.55.4,1.08.8,1.61,1.19l-.28,1.32q-3.47-2.49-7.32-4.9.29-5.77,1-11.53c0-.1-2.22,4.21-4.68,9.32q-5-2.92-10.5-5.7c-3.56-1.79,3.27,4.83,8.51,9.93-.84,1.82-1.64,3.62-2.31,5.25-1.43-1.72-5.09-7.83-6.23-9.49,0,0,0-.09,0-.07-.77-1.13-1.55-2.25-2.37-3.37-.06-.08-1.56,3.19-3.73,8-5.18-2.1-9.79-1.87-5.87,2q1.79,1.76,3.39,3.53l-1,2.32c-2.14-.83-4.31-1.64-6.53-2.44a1.93,1.93,0,0,1-1.24-1c-.56-1.07-1.14-2.15-1.78-3.22-1.15-1.92-3.71-5.82-3.73-5.8-.33-.49-.57,4.86-3.35,11.47-.55-1-2,.14-5,5.16a31.9,31.9,0,0,1-3.93,5c-.64-1-1.5-2.43-2.42-3.88a47.93,47.93,0,0,1,2.33-4.73c2.19-3.88,9.15-12,8.76-12.53a110.7,110.7,0,0,0-14.54,12.06c-1.14-1.58-1.81-2.25-1.31-.77l-.58,2.7c-1.15,1.22-2.27,2.44-3.31,3.67l-5.69-12.56a.22.22,0,0,1-.16.21v-.12a.18.18,0,0,1-.35,0v.12a.22.22,0,0,1-.16-.21l-5.69,12.56c.21-8.8,5-17-5.73-3.48-.56.54-4.62,2.87-5.14,3.48-1.43-3.16-6.82-8.64-9.37-11.19a.89.89,0,0,0-1.5.59c-.26,5.14.54,6.85-1.16,10.6-1-1.23-2.15-2.45-3.31-3.67l-.58-2.7c.5-1.48-.17-.81-1.31.77a110.7,110.7,0,0,0-14.54-12.06c-.38.49,6.57,8.64,8.76,12.53a48,48,0,0,1,2.33,4.73c-.92,1.45-1.78,2.84-2.42,3.88a31.9,31.9,0,0,1-3.93-5c-3-5-4.45-6.18-5-5.16-2.78-6.62-3-12-3.35-11.47,0,0-2.58,3.89-3.73,5.8-.64,1.07-1.22,2.14-1.78,3.22a1.93,1.93,0,0,1-1.24,1c-2.23.8-4.4,1.61-6.53,2.44l-1-2.32q1.61-1.78,3.39-3.53c3.92-3.85-.7-4.07-5.87-2-2.17-4.8-3.68-8.07-3.73-8-.82,1.12-1.61,2.25-2.37,3.37,0,0,0,.07,0,.07-1.13,1.66-4.79,7.77-6.23,9.49-.68-1.63-1.48-3.43-2.31-5.25,5.24-5.09,12.07-11.71,8.51-9.93s-7.19,3.76-10.5,5.7c-2.46-5.11-4.7-9.43-4.68-9.32q.74,5.76,1,11.53-3.85,2.41-7.32,4.9l-.28-1.32c.53-.4,1.05-.8,1.61-1.19.26-.19.46-.39.74-.62a14.27,14.27,0,0,0-2.52,1l-.53-2.44a.07.07,0,0,1-.09,0c-.65.22-.5.42-.53.59-.2.93-.42,1.86-.64,2.79l-1.8,1a107.79,107.79,0,0,0-9.39-12,.68.68,0,0,0-.29-.16l0,0q1.39,3.38,2.52,6.77c-2.72-5.74-5.41-10.93-5.39-10.82a143.5,143.5,0,0,1,1.12,23.41q-1.48,1.07-2.87,2.16l-2.64-12.13.16-.14-.18.05-.24-1.12a.33.33,0,0,1-.65,0l-.34,1.58c-1.2.52-2.84,1.36-4.68,2.38a107.79,107.79,0,0,0-9.39-12,.68.68,0,0,0-.29-.16l0,0a102.36,102.36,0,0,1,3.55,10q-2.79-3.68-6-7.3l-.94.46h0a67.81,67.81,0,0,1,4.2,11.94c.18.71.35,1.42.5,2.13-2.1,1.39-4,2.82-5.89,4.26l-2.9-13.34a.34.34,0,0,1-.65,0l-1,4.37-3.46-8.25c0,.26-.42.32-.52.08v10.83l-2.15.64a109.21,109.21,0,0,0-10.15-13.11l-.94.46h0a67.76,67.76,0,0,1,4.2,11.94c.42,1.64.76,3.28,1.06,4.92-.22.9-.45,1.8-.68,2.7-.76,2.92-1.55,5.84-2.32,8.76L704,529.58q.76-4.51,2-9c0,.05-.13,0-.11,0-1.28,1.61-2.49,3.24-3.64,4.86l-4.5-10.73c0,.26-.42.32-.52.08V524l-2.78-6.49c0,.5-.79.62-1,.16v17.56l-2.49-9.61c-.74.35-.67.58-.72.79-.56,2.23-1.09,4.46-1.67,6.68-.27,1-.55,2.07-.82,3.1-.32-.35-.63-.7-1-1.05q-2.63-2.74-5.72-5.4a92.86,92.86,0,0,1,2-9.19c0,.05-.13,0-.11,0q-2.66,3.35-4.93,6.73c-1.11-.88-2.27-1.74-3.46-2.6L672,518.72l-.06-.24s0,0,0,0l-.42-1c0,.5-.79.62-1,.16v4.21l-1.36-.84c.23.25-.12.58-.43.4q.83.88,1.61,1.77l-1.3,6a92.1,92.1,0,0,0-6.19-7.83c.09.29-.35.47-.56.24a72.39,72.39,0,0,1,2.06,9.18c-2.73-1.15-5.52-2.29-8.4-3.39a1.44,1.44,0,0,1-.77-.51c-.93-1.72-1.87-3.44-2.83-5.15-1.3-2.31-2.79-4.61-4.39-6.9l0-.18a.3.3,0,0,0-.26-.23q-1.36-1.93-2.82-3.84c-.15-.2-.16-.46-.93-.63a2,2,0,0,0,0,.52,56.86,56.86,0,0,1,1.53,7.61l.09.61L642.95,525c-1-1.2-1.95-2.39-3-3.58.09.29-.35.47-.56.24a73.16,73.16,0,0,1,1.78,7.58l-.53,1.27c-2.48-1-5-2.06-7.59-3.06a1.44,1.44,0,0,1-.77-.51c-.53-1-1.07-2-1.61-2.93a75.66,75.66,0,0,1,9.51-8.54c-.07,0-.13,0-.07-.09a115.29,115.29,0,0,0-10.91,6c-1.24-2.17-2.64-4.33-4.14-6.48l0-.18a.3.3,0,0,0-.26-.23q-1.36-1.93-2.82-3.84c-.15-.2-.16-.46-.93-.63a2,2,0,0,0,0,.52,56.83,56.83,0,0,1,1.53,7.61l.09.61-1.75,4.17-.71-3.24a.59.59,0,0,1-1.15,0l-2.43,11.18c-.47.44-.94.88-1.39,1.32a56.07,56.07,0,0,0-4,4.29l-.37-1.4a.27.27,0,0,1-.53,0l-1,3.87a42.18,42.18,0,0,0-3.92,6.5,65.16,65.16,0,0,1,0-9.73q.4-1.1.87-2.19a56,56,0,0,1,4.84-8.82c1.81-2.76,4.16-5.46,6.28-8.19-.06,0-.13,0-.1-.08-2.71,1.83-5.22,3.69-7.56,5.57a80.56,80.56,0,0,1,7.56-6.53c-.07,0-.13,0-.07-.09-3.18,1.54-6.12,3.12-8.87,4.75.29-.93.58-1.87.9-2.8-1,1.26-3.24.33-2.73-1.13-1.64,2.12-3.38,4.52-4.85,6.73-.63.94-1.22,1.88-1.81,2.83l-1.06.79-1.5-6.88a.59.59,0,0,1-1.15,0l-2.43,11.18c-.47.44-.94.88-1.39,1.32s-.6.6-.89.91c-.28-.31-.54-.62-.83-.93q-1.36-3.37-2.89-6.71h0a108.65,108.65,0,0,1,6.75-8.92c-.06,0-.13,0-.1-.08-2.91,2-5.59,4-8.07,6q-.48-1-1-2c.31-1,.64-2.08,1-3.12-1,1.26-3.24.33-2.73-1.13l-.31.4c-1.19-2.15-2.46-4.29-3.89-6.41a1.08,1.08,0,0,0-.19.86,87.84,87.84,0,0,1,1.44,9.13q-.65.91-1.25,1.8c-2.42-1.86-5-3.7-7.81-5.49.36.37-.19.88-.64.59l.63.65a57.19,57.19,0,0,1,5.9,7.21c-2.34,3.7-4.42,7.42-6.39,11.18q-1.59-2-3.39-4c-1-2.55-2.11-5.09-3.3-7.63a110.46,110.46,0,0,0-7.27-13.38c-.15-.83-.3-1.65-.45-2.48-.28-1.49-.61-3-.75-4.46h-.82v0c-.77,4.14-1.56,8.27-2.3,12.41l-.37,2.08-.55-.63-.5.19q-1.26-.86-2.58-1.71a71.16,71.16,0,0,1,3.11-7.69,4.31,4.31,0,0,0,.25-.86s-.1,0-.09-.07a1.4,1.4,0,0,0-.76.43c-1.29,1.5-2.57,3-3.84,4.5a96.82,96.82,0,0,0-8.19,11.35c-.7,1.12-1.36,2.24-2,3.36h-.07l-1.11-6.1c-.78-4.27-1.54-8.53-2.33-12.8-.28-1.49-.61-3-.75-4.46h-.82v0c-.77,4.14-1.56,8.27-2.3,12.41l-.37,2.08-.55-.63-.89.34h0l.94,3.06q-.64,3.6-1.29,7.19c-.08-.21-.16-.42-.26-.63-1,.62-.62,1.33-1,2l-.32,1.35a.11.11,0,0,0-.22,0l-.67-2.67c-.19-.23,0-.51-.75-.87l-2.09,8.08a66.7,66.7,0,0,1,6.56-27,4.31,4.31,0,0,0,.25-.86s-.1,0-.09-.07a1.4,1.4,0,0,0-.76.43c-1.29,1.5-2.57,3-3.84,4.5a96.82,96.82,0,0,0-8.19,11.35,83,83,0,0,0-4.69,8.52l-4.21-4.81c0,.2-.25.32-.39.15.17.72.3,1.45.52,2.17.71,2.34,1.43,4.67,2.15,7-.92,2.34-1.77,4.69-2.5,7a69.16,69.16,0,0,0-2.29,10.49,7.44,7.44,0,0,1-.61,3.42c0,3.79,0,7.62,0,11.46l0,.13s0,13.67,0,24.83c0,2.81,0,5.6,0,8.38H1206c0-2.77,0-5.57,0-8.38C1206,583.45,1206,569.79,1206,569.79Zm-41-33.89-2.09-8.08c-.79.36-.56.64-.75.87l-.67,2.67a.11.11,0,0,0-.22,0l-.32-1.35c-.35-.66,0-1.36-1-2-.09.21-.18.42-.26.63q-.64-3.6-1.29-7.19l0-.13c1-1.22,2-2.43,3.2-3.62l.2-.2A65.52,65.52,0,0,1,1165,535.89Zm-3.43-19.29.15.43A.37.37,0,0,1,1161.53,516.61Zm-86.28,14.29a6.59,6.59,0,0,1,.63-.3c-1.11,2.62-2,5.24-2.87,7.86l-2-4.72Q1073,532.29,1075.25,530.89Zm-28.06,3.52-.74.75c-.39.4-.75.81-1.12,1.22,0-.18,0-.36,0-.54C1045.95,535.36,1046.56,534.88,1047.19,534.41Zm-67.81,4.79L976,547.35c-.53-1.34-1.11-2.67-1.72-4q0-1.11,0-2.22a64.83,64.83,0,0,1,.73-8.87A38.54,38.54,0,0,1,979.38,539.2Zm-12.81-15.47q-.93,1.43-1.8,2.86l-.39-.51-.37,0-1.14-5.25C964.16,521.8,965.4,522.76,966.57,523.73Zm-22.91,0-.34.54-.23-1Zm-10.59,7.37.79.49-.74.4C933.1,531.7,933.08,531.4,933.07,531.1Zm4.53,3.37c-.71,1.46-1.38,2.92-2,4.38a4.94,4.94,0,0,1-2.31-4.12c-.05-.7-.08-1.4-.12-2.1.3-.31.58-.61.89-.92l2.32,1.49A3.12,3.12,0,0,1,937.59,534.47ZM933,528.3c0-1,0-2,0-2.93,1.32,1.45,2.57,2.91,3.7,4.38ZM908.35,530l-1.83,4.09-.41.24c-1-2.41-2-4.82-3-7.22C905,528,906.71,529,908.35,530Zm-101.12-2.89c-1.05,2.41-2.09,4.81-3,7.22l-.41-.24L801.95,530C803.59,529,805.31,528,807.23,527.11Zm-30,4.88-.73-.4.79-.49C777.22,531.4,777.2,531.7,777.19,532Zm.18-6.62c0,1,0,2,0,2.93l-3.67,1.46C774.8,528.28,776,526.82,777.36,525.37Zm-3.43,7.83,2.32-1.49c.31.31.59.61.89.92,0,.7-.07,1.4-.12,2.1a4.94,4.94,0,0,1-2.31,4.12c-.62-1.47-1.3-2.93-2-4.38A3.11,3.11,0,0,1,773.93,533.2Zm-6.72-9.93-.23,1-.34-.54Zm-19.78-2.42-1.14,5.25-.37,0-.39.51q-.87-1.43-1.8-2.86C744.9,522.76,746.14,521.8,747.44,520.85Zm-12.09,11.41a64.85,64.85,0,0,1,.73,8.87q0,1.11,0,2.22c-.61,1.33-1.19,2.67-1.72,4l-3.42-8.15A38.54,38.54,0,0,1,735.35,532.25Zm-70.41,3.58c0,.18,0,.36,0,.54-.37-.41-.73-.81-1.12-1.22l-.74-.75C663.74,534.88,664.35,535.36,664.94,535.83Zm-29.88-4.94q2.22,1.4,4.22,2.84l-2,4.72c-.82-2.62-1.76-5.25-2.87-7.86A6.58,6.58,0,0,1,635.05,530.89ZM548.62,517l.15-.43A.37.37,0,0,1,548.62,517Zm-.15.47.2.2c1.17,1.2,2.22,2.4,3.2,3.62l0,.13q-.64,3.6-1.29,7.19c-.08-.21-.16-.42-.26-.63-1,.62-.62,1.33-1,2l-.32,1.35a.11.11,0,0,0-.22,0l-.67-2.67c-.19-.23,0-.51-.75-.87l-2.09,8.08A65.53,65.53,0,0,1,548.47,517.5Z"/><path d="M513.94,569.79l0-.13c0-3.84,0-7.67,0-11.46a7.44,7.44,0,0,1-.61-3.42A69.15,69.15,0,0,0,511,544.28c-.73-2.35-1.58-4.7-2.5-7,.72-2.34,1.43-4.67,2.15-7,.22-.72.35-1.45.52-2.17-.14.16-.44,0-.39-.15l-4.21,4.81a83,83,0,0,0-4.69-8.52,96.83,96.83,0,0,0-8.19-11.35c-1.27-1.5-2.56-3-3.84-4.5a1.4,1.4,0,0,0-.76-.43s0,.08-.09.07a4.31,4.31,0,0,0,.25.86,66.7,66.7,0,0,1,6.56,27l-2.09-8.08c-.79.36-.56.64-.75.87l-.67,2.67a.11.11,0,0,0-.22,0l-.32-1.35c-.35-.66,0-1.36-1-2-.09.21-.18.42-.26.63q-.64-3.6-1.29-7.19l.94-3.06h0l-.89-.34-.55.63-.37-2.08c-.75-4.14-1.54-8.27-2.3-12.41v0h-.82c-.14,1.49-.48,3-.75,4.46-.79,4.27-1.56,8.53-2.33,12.8l-1.11,6.1H481c-.64-1.12-1.29-2.24-2-3.36a96.83,96.83,0,0,0-8.19-11.35c-1.27-1.5-2.56-3-3.84-4.5a1.4,1.4,0,0,0-.76-.43s0,.08-.09.07a4.32,4.32,0,0,0,.25.86,71.15,71.15,0,0,1,3.11,7.69q-1.32.85-2.58,1.71l-.5-.19-.55.63-.37-2.08c-.75-4.14-1.54-8.27-2.3-12.41v0h-.82c-.14,1.49-.48,3-.75,4.46-.15.83-.3,1.65-.45,2.48a110.44,110.44,0,0,0-7.27,13.38c-1.19,2.54-2.27,5.08-3.3,7.63q-1.8,2-3.39,4c-2-3.76-4.05-7.48-6.39-11.18a57.17,57.17,0,0,1,5.9-7.21l.63-.65c-.45.29-1-.22-.64-.59-2.8,1.8-5.39,3.63-7.81,5.49q-.61-.9-1.25-1.8A87.84,87.84,0,0,1,439,511a1.08,1.08,0,0,0-.19-.86c-1.42,2.13-2.7,4.27-3.89,6.41l-.31-.4c.51,1.46-1.74,2.39-2.73,1.13.36,1,.69,2.08,1,3.12q-.5,1-1,2c-2.48-2-5.16-4-8.07-6,0,.05,0,.12-.1.08a108.67,108.67,0,0,1,6.75,8.92h0q-1.54,3.35-2.89,6.71c-.28.31-.55.62-.83.93-.3-.3-.58-.6-.89-.91s-.92-.88-1.39-1.32l-2.43-11.18a.59.59,0,0,1-1.15,0l-1.5,6.88-1.06-.79c-.59-.94-1.18-1.89-1.81-2.83-1.47-2.21-3.2-4.61-4.85-6.73.51,1.46-1.74,2.39-2.73,1.13.33.93.62,1.87.9,2.8-2.75-1.63-5.69-3.21-8.87-4.75.06,0,0,.12-.07.09a80.55,80.55,0,0,1,7.56,6.53c-2.34-1.88-4.85-3.74-7.56-5.57,0,.05,0,.12-.1.08,2.12,2.73,4.47,5.43,6.28,8.19A56,56,0,0,1,412,533.5q.46,1.09.87,2.19a65.17,65.17,0,0,1,0,9.73,42.17,42.17,0,0,0-3.92-6.5l-1-3.87a.27.27,0,0,1-.53,0l-.37,1.4a56.09,56.09,0,0,0-4-4.29c-.45-.44-.92-.88-1.39-1.32l-2.43-11.18a.59.59,0,0,1-1.15,0l-.71,3.24-1.75-4.17.09-.61a56.85,56.85,0,0,1,1.53-7.61,2,2,0,0,0,0-.52c-.77.17-.77.43-.93.63q-1.45,1.92-2.82,3.84a.3.3,0,0,0-.26.23l0,.18c-1.5,2.15-2.9,4.31-4.14,6.48a115.29,115.29,0,0,0-10.91-6c.06,0,0,.12-.07.09a75.67,75.67,0,0,1,9.51,8.54c-.54,1-1.08,2-1.61,2.93a1.44,1.44,0,0,1-.77.51c-2.6,1-5.12,2-7.59,3.06l-.53-1.27a73.19,73.19,0,0,1,1.78-7.58c-.21.24-.64.06-.56-.24-1,1.19-2,2.38-3,3.58l-2.62-6.25.09-.61a56.86,56.86,0,0,1,1.53-7.61,2,2,0,0,0,0-.52c-.77.17-.77.43-.93.63q-1.45,1.92-2.82,3.84a.3.3,0,0,0-.26.23l0,.18c-1.6,2.29-3.08,4.58-4.39,6.9-1,1.71-1.9,3.43-2.83,5.15a1.44,1.44,0,0,1-.77.51c-2.88,1.1-5.67,2.24-8.4,3.39a72.37,72.37,0,0,1,2.06-9.18c-.21.24-.64.06-.56-.24a92.1,92.1,0,0,0-6.19,7.83l-1.3-6q.78-.89,1.61-1.77c-.3.18-.66-.15-.43-.4l-1.36.84v-4.21c-.2.47-1,.34-1-.16l-.42,1s0,0,0,0l-.06.24-2.54,5.94c-1.19.86-2.35,1.73-3.46,2.6q-2.28-3.38-4.93-6.73c0,.06-.07.09-.11,0a92.86,92.86,0,0,1,2,9.19q-3.09,2.67-5.72,5.4c-.34.35-.65.7-1,1.05-.28-1-.55-2.07-.82-3.1-.58-2.23-1.11-4.46-1.67-6.68-.05-.21,0-.44-.72-.79l-2.49,9.61V517.69c-.2.47-1,.34-1-.16L321,524v-9.28c-.1.24-.52.18-.52-.08L316,525.39c-1.15-1.63-2.36-3.25-3.64-4.86,0,.06-.07.09-.11,0q1.23,4.5,2,9l-5.16,12.29c-.77-2.92-1.56-5.84-2.32-8.76-.23-.9-.46-1.8-.68-2.7.29-1.64.64-3.28,1.06-4.92a67.76,67.76,0,0,1,4.2-11.94h0l-.94-.46a109.22,109.22,0,0,0-10.15,13.11l-2.15-.64V514.74c-.1.24-.52.18-.52-.08l-3.46,8.25-1-4.37a.34.34,0,0,1-.65,0l-2.9,13.34c-1.85-1.44-3.8-2.86-5.89-4.26.16-.71.32-1.42.5-2.13a67.82,67.82,0,0,1,4.2-11.94h0l-.94-.46q-3.27,3.63-6,7.3a102.36,102.36,0,0,1,3.55-10l0,0a.69.69,0,0,0-.29.16,107.81,107.81,0,0,0-9.39,12c-1.84-1-3.49-1.86-4.68-2.38l-.34-1.58a.33.33,0,0,1-.65,0l-.24,1.12-.18-.05.16.14-2.64,12.13q-1.4-1.09-2.87-2.16A143.5,143.5,0,0,1,265,506.3c0-.11-2.67,5.08-5.39,10.82q1.13-3.39,2.52-6.77l0,0a.68.68,0,0,0-.29.16,107.77,107.77,0,0,0-9.39,12l-1.8-1c-.22-.93-.44-1.86-.64-2.79,0-.17.12-.37-.53-.59a.07.07,0,0,1-.09,0l-.53,2.44a14.27,14.27,0,0,0-2.52-1c.27.23.47.44.74.62.55.4,1.08.8,1.61,1.19l-.28,1.32q-3.47-2.49-7.32-4.9.29-5.77,1-11.53c0-.1-2.22,4.21-4.68,9.32q-5-2.92-10.5-5.7c-3.56-1.79,3.27,4.83,8.51,9.93-.84,1.82-1.64,3.62-2.31,5.25-1.43-1.72-5.09-7.83-6.23-9.49,0,0,0-.09,0-.07-.77-1.13-1.55-2.25-2.37-3.37-.06-.08-1.56,3.19-3.73,8-5.18-2.1-9.79-1.87-5.87,2q1.79,1.76,3.39,3.53l-1,2.32c-2.14-.83-4.31-1.64-6.53-2.44a1.93,1.93,0,0,1-1.24-1c-.56-1.07-1.14-2.15-1.78-3.22-1.15-1.92-3.71-5.82-3.73-5.8-.33-.49-.57,4.86-3.35,11.47-.55-1-2,.14-5,5.16a31.9,31.9,0,0,1-3.93,5c-.64-1-1.5-2.43-2.42-3.88a47.93,47.93,0,0,1,2.33-4.73c2.19-3.88,9.15-12,8.76-12.53a110.7,110.7,0,0,0-14.54,12.06c-1.14-1.58-1.81-2.25-1.31-.77l-.58,2.7c-1.15,1.22-2.27,2.44-3.31,3.67l-5.69-12.56a.22.22,0,0,1-.16.21v-.12a.18.18,0,0,1-.35,0v.12a.22.22,0,0,1-.16-.21l-5.69,12.56c.21-8.8,5-17-5.73-3.48-.56.54-4.62,2.87-5.14,3.48-1.43-3.16-6.82-8.64-9.37-11.19a.89.89,0,0,0-1.5.59c-.26,5.14.54,6.85-1.16,10.6-1-1.23-2.15-2.45-3.31-3.67l-.58-2.7c.5-1.48-.17-.81-1.31.77a110.7,110.7,0,0,0-14.54-12.06c-.38.49,6.57,8.64,8.76,12.53a48,48,0,0,1,2.33,4.73c-.92,1.45-1.78,2.84-2.42,3.88a31.9,31.9,0,0,1-3.93-5c-3-5-4.45-6.18-5-5.16-2.78-6.62-3-12-3.35-11.47,0,0-2.58,3.89-3.73,5.8-.64,1.07-1.22,2.14-1.78,3.22a1.93,1.93,0,0,1-1.24,1c-2.23.8-4.4,1.61-6.53,2.44l-1-2.32q1.61-1.78,3.39-3.53c3.92-3.85-.7-4.07-5.87-2-2.17-4.8-3.68-8.07-3.73-8-.82,1.12-1.61,2.25-2.37,3.37,0,0,0,.07,0,.07-1.13,1.66-4.79,7.77-6.23,9.49-.68-1.63-1.48-3.43-2.31-5.25,5.24-5.09,12.07-11.71,8.51-9.93s-7.19,3.76-10.5,5.7c-2.46-5.11-4.7-9.43-4.68-9.32q.74,5.76,1,11.53-3.85,2.41-7.32,4.9l-.28-1.32c.53-.4,1.05-.8,1.61-1.19.26-.19.46-.39.74-.62a14.27,14.27,0,0,0-2.52,1l-.53-2.44a.07.07,0,0,1-.09,0c-.65.22-.5.42-.53.59-.2.93-.42,1.86-.64,2.79l-1.8,1a107.79,107.79,0,0,0-9.39-12,.68.68,0,0,0-.29-.16l0,0q1.39,3.38,2.52,6.77c-2.72-5.74-5.41-10.93-5.39-10.82a143.5,143.5,0,0,1,1.12,23.41q-1.48,1.07-2.87,2.16L56.8,519.74l.16-.14-.18.05-.24-1.12a.33.33,0,0,1-.65,0l-.34,1.58c-1.2.52-2.84,1.36-4.68,2.38a107.79,107.79,0,0,0-9.39-12,.68.68,0,0,0-.29-.16l0,0a102.36,102.36,0,0,1,3.55,10q-2.79-3.68-6-7.3l-.94.46h0a67.81,67.81,0,0,1,4.2,11.94c.18.71.35,1.42.5,2.13-2.1,1.39-4,2.82-5.89,4.26l-2.9-13.34a.34.34,0,0,1-.65,0l-1,4.37-3.46-8.25c0,.26-.42.32-.52.08v10.83l-2.15.64a109.21,109.21,0,0,0-10.15-13.11l-.94.46h0A67.76,67.76,0,0,1,19,525.49c.42,1.64.76,3.28,1.06,4.92-.22.9-.45,1.8-.68,2.7-.76,2.92-1.55,5.84-2.32,8.76l-5.16-12.29q.76-4.51,2-9c0,.05-.13,0-.11,0-1.28,1.61-2.49,3.24-3.64,4.86l-4.5-10.73c0,.26-.42.32-.52.08V524l-2.78-6.49c0,.5-.79.62-1,.16v17.56l-2.49-9.61c-.74.35-.67.58-.72.79-.56,2.23-1.09,4.46-1.67,6.68-.27,1-.55,2.07-.82,3.1-.32-.35-.63-.7-1-1.05q-2.63-2.74-5.72-5.4a92.86,92.86,0,0,1,2-9.19c0,.05-.13,0-.11,0q-2.66,3.35-4.93,6.73c-1.11-.88-2.27-1.74-3.46-2.6L-20,518.72l-.06-.24s0,0,0,0l-.42-1c0,.5-.79.62-1,.16v4.21l-1.36-.84c.23.25-.12.58-.43.4q.83.88,1.61,1.77l-1.3,6a92.1,92.1,0,0,0-6.19-7.83c.09.29-.35.47-.56.24a72.39,72.39,0,0,1,2.06,9.18c-2.73-1.15-5.52-2.29-8.4-3.39a1.44,1.44,0,0,1-.77-.51c-.93-1.72-1.87-3.44-2.83-5.15-1.3-2.31-2.79-4.61-4.39-6.9l0-.18a.3.3,0,0,0-.26-.23q-1.36-1.93-2.82-3.84c-.15-.2-.16-.46-.93-.63a2,2,0,0,0,0,.52,56.86,56.86,0,0,1,1.53,7.61l.09.61L-49.11,525c-1-1.2-1.95-2.39-3-3.58.09.29-.35.47-.56.24a73.16,73.16,0,0,1,1.78,7.58l-.53,1.27c-2.48-1-5-2.06-7.59-3.06a1.44,1.44,0,0,1-.77-.51c-.53-1-1.07-2-1.61-2.93a75.66,75.66,0,0,1,9.51-8.54c-.07,0-.13,0-.07-.09a115.29,115.29,0,0,0-10.91,6c-1.24-2.17-2.64-4.33-4.14-6.48l0-.18a.3.3,0,0,0-.26-.23q-1.36-1.93-2.82-3.84c-.15-.2-.16-.46-.93-.63a2,2,0,0,0,0,.52,56.83,56.83,0,0,1,1.53,7.61l.09.61-1.75,4.17-.71-3.24a.59.59,0,0,1-1.15,0l-2.43,11.18c-.47.44-.94.88-1.39,1.32a56.07,56.07,0,0,0-4,4.29l-.37-1.4a.27.27,0,0,1-.53,0l-1,3.87a42.18,42.18,0,0,0-3.92,6.5,65.16,65.16,0,0,1,0-9.73q.4-1.1.87-2.19A56,56,0,0,1-81,524.68c1.81-2.76,4.16-5.46,6.28-8.19-.06,0-.13,0-.1-.08-2.71,1.83-5.22,3.69-7.56,5.57a80.56,80.56,0,0,1,7.56-6.53c-.07,0-.13,0-.07-.09-3.18,1.54-6.12,3.12-8.87,4.75.29-.93.58-1.87.9-2.8-1,1.26-3.24.33-2.73-1.13-1.64,2.12-3.38,4.52-4.85,6.73-.63.94-1.22,1.88-1.81,2.83l-1.06.79-1.5-6.88a.59.59,0,0,1-1.15,0l-2.43,11.18c-.47.44-.94.88-1.39,1.32s-.6.6-.89.91c-.28-.31-.54-.62-.83-.93q-1.36-3.37-2.89-6.71h0a108.65,108.65,0,0,1,6.75-8.92c-.06,0-.13,0-.1-.08-2.91,2-5.59,4-8.07,6q-.48-1-1-2c.31-1,.64-2.08,1-3.12-1,1.26-3.24.33-2.73-1.13l-.31.4c-1.19-2.15-2.46-4.29-3.89-6.41a1.08,1.08,0,0,0-.19.86,87.84,87.84,0,0,1,1.44,9.13q-.65.91-1.25,1.8c-2.42-1.86-5-3.7-7.81-5.49.36.37-.19.88-.64.59l.63.65a57.19,57.19,0,0,1,5.9,7.21c-2.34,3.7-4.42,7.42-6.39,11.18q-1.59-2-3.39-4c-1-2.55-2.11-5.09-3.3-7.63a110.46,110.46,0,0,0-7.27-13.38c-.15-.83-.3-1.65-.45-2.48-.28-1.49-.61-3-.75-4.46H-137v0c-.77,4.14-1.56,8.27-2.3,12.41l-.37,2.08-.55-.63-.5.19q-1.26-.86-2.58-1.71a71.16,71.16,0,0,1,3.11-7.69,4.31,4.31,0,0,0,.25-.86s-.1,0-.09-.07a1.4,1.4,0,0,0-.76.43c-1.29,1.5-2.57,3-3.84,4.5a96.82,96.82,0,0,0-8.19,11.35c-.7,1.12-1.36,2.24-2,3.36h-.07l-1.11-6.1c-.78-4.27-1.54-8.53-2.33-12.8-.28-1.49-.61-3-.75-4.46h-.82v0c-.77,4.14-1.56,8.27-2.3,12.41l-.37,2.08-.55-.63-.89.34h0l.94,3.06q-.64,3.6-1.29,7.19c-.08-.21-.16-.42-.26-.63-1,.62-.62,1.33-1,2l-.32,1.35a.11.11,0,0,0-.22,0l-.67-2.67c-.19-.23,0-.51-.75-.87l-2.09,8.08a66.7,66.7,0,0,1,6.56-27,4.31,4.31,0,0,0,.25-.86s-.1,0-.09-.07a1.4,1.4,0,0,0-.76.43c-1.29,1.5-2.57,3-3.84,4.5a96.82,96.82,0,0,0-8.19,11.35,83,83,0,0,0-4.69,8.52l-4.21-4.81c0,.2-.25.32-.39.15.17.72.3,1.45.52,2.17.71,2.34,1.43,4.67,2.15,7-.92,2.34-1.77,4.69-2.5,7a69.16,69.16,0,0,0-2.29,10.49,7.44,7.44,0,0,1-.61,3.42c0,3.79,0,7.62,0,11.46l0,.13s0,13.67,0,24.83c0,2.81,0,5.6,0,8.38h701.7c0-2.77,0-5.57,0-8.38C513.92,583.45,513.94,569.79,513.94,569.79Zm-41-33.89-2.09-8.08c-.79.36-.56.64-.75.87l-.67,2.67a.11.11,0,0,0-.22,0l-.32-1.35c-.35-.66,0-1.36-1-2-.09.21-.18.42-.26.63q-.64-3.6-1.29-7.19l0-.13c1-1.22,2-2.43,3.2-3.62l.2-.2A65.52,65.52,0,0,1,472.91,535.89Zm-3.43-19.29.15.43A.37.37,0,0,1,469.47,516.61Zm-86.28,14.29a6.59,6.59,0,0,1,.63-.3c-1.11,2.62-2,5.24-2.87,7.86l-2-4.72Q381,532.29,383.19,530.89Zm-28.06,3.52-.74.75c-.39.4-.75.81-1.12,1.22,0-.18,0-.36,0-.54C353.89,535.36,354.5,534.88,355.13,534.41Zm-67.81,4.79-3.42,8.15c-.53-1.34-1.11-2.67-1.72-4q0-1.11,0-2.22a64.83,64.83,0,0,1,.73-8.87A38.54,38.54,0,0,1,287.32,539.2Zm-12.81-15.47q-.93,1.43-1.8,2.86l-.39-.51-.37,0-1.14-5.25C272.1,521.8,273.34,522.76,274.51,523.73Zm-22.91,0-.34.54-.23-1ZM241,531.1l.79.49-.74.4C241,531.7,241,531.4,241,531.1Zm4.53,3.37c-.71,1.46-1.38,2.92-2,4.38a4.94,4.94,0,0,1-2.31-4.12c-.05-.7-.08-1.4-.12-2.1.3-.31.58-.61.89-.92l2.32,1.49A3.12,3.12,0,0,1,245.53,534.47Zm-4.62-6.17c0-1,0-2,0-2.93,1.32,1.45,2.57,2.91,3.7,4.38ZM216.29,530l-1.83,4.09-.41.24c-1-2.41-2-4.82-3-7.22C212.93,528,214.65,529,216.29,530Zm-101.12-2.89c-1.05,2.41-2.09,4.81-3,7.22l-.41-.24L109.89,530C111.53,529,113.25,528,115.17,527.11Zm-30,4.88-.73-.4.79-.49C85.16,531.4,85.14,531.7,85.13,532Zm.18-6.62c0,1,0,2,0,2.93l-3.67,1.46C82.74,528.28,84,526.82,85.31,525.37Zm-3.43,7.83,2.32-1.49c.31.31.59.61.89.92,0,.7-.07,1.4-.12,2.1a4.94,4.94,0,0,1-2.31,4.12c-.62-1.47-1.3-2.93-2-4.38A3.11,3.11,0,0,1,81.88,533.2Zm-6.72-9.93-.23,1-.34-.54Zm-19.78-2.42-1.14,5.25-.37,0-.39.51q-.87-1.43-1.8-2.86C52.84,522.76,54.08,521.8,55.38,520.85ZM43.29,532.25a64.85,64.85,0,0,1,.73,8.87q0,1.11,0,2.22c-.61,1.33-1.19,2.67-1.72,4l-3.42-8.15A38.54,38.54,0,0,1,43.29,532.25Zm-70.41,3.58c0,.18,0,.36,0,.54-.37-.41-.73-.81-1.12-1.22l-.74-.75C-28.32,534.88-27.71,535.36-27.12,535.83ZM-57,530.89q2.22,1.4,4.22,2.84l-2,4.72c-.82-2.62-1.76-5.25-2.87-7.86A6.58,6.58,0,0,1-57,530.89ZM-143.44,517l.15-.43A.37.37,0,0,1-143.44,517Zm-.15.47.2.2c1.17,1.2,2.22,2.4,3.2,3.62l0,.13q-.64,3.6-1.29,7.19c-.08-.21-.16-.42-.26-.63-1,.62-.62,1.33-1,2l-.32,1.35a.11.11,0,0,0-.22,0l-.67-2.67c-.19-.23,0-.51-.75-.87l-2.09,8.08A65.53,65.53,0,0,1-143.59,517.5Z"/></svg>