<svg id="Layer_1" data-name="Layer 1" xmlns="http://www.w3.org/2000/svg" xmlns:xlink="http://www.w3.org/1999/xlink" viewBox="0 0 1200 600"><defs><style>.cls-1{fill:url(#radial-gradient);}.cls-2,.cls-3,.cls-4{opacity:0.85;}.cls-2{fill:url(#linear-gradient);}.cls-3{fill:url(#linear-gradient-2);}.cls-4{fill:url(#linear-gradient-3);}.cls-5{fill:url(#linear-gradient-4);}.cls-6{fill:url(#linear-gradient-5);}.cls-7{fill:url(#linear-gradient-6);}.cls-8{fill:url(#linear-gradient-7);}.cls-9{fill:url(#linear-gradient-8);}.cls-10{fill:#2a2a2a;}</style><radialGradient id="radial-gradient" cx="597.94" cy="253.07" r="509.83" gradientUnits="userSpaceOnUse"><stop offset="0.02" stop-color="#fff"/><stop offset="0.09" stop-color="#f6f6f6"/><stop offset="0.21" stop-color="#cdcdcd"/><stop offset="0.42" stop-color="#858585"/><stop offset="0.62" stop-color="#4c4c4c"/><stop offset="0.79" stop-color="#232323"/><stop offset="0.92" stop-color="#090909"/><stop offset="1"/></radialGradient><linearGradient id="linear-gradient" x1="463.3" y1="202.11" x2="463.3" y2="515.42" gradientTransform="matrix(0.7, -0.02, 0.02, 0.71, -17.04, 143.43)" gradientUnits="userSpaceOnUse"><stop offset="0" stop-color="#eaeaea"/><stop offset="1" stop-color="#fff"/></linearGradient><linearGradient id="linear-gradient-2" x1="921.36" y1="112.69" x2="921.36" y2="426.45" gradientTransform="matrix(-1.23, 0, 0, 1.11, 1629.59, 2.09)" xlink:href="#linear-gradient"/><linearGradient id="linear-gradient-3" x1="1015.41" y1="335.21" x2="1015.41" y2="502.22" gradientTransform="translate(28.63 -11.59) rotate(0.95)" xlink:href="#linear-gradient"/><linearGradient id="linear-gradient-4" x1="858.96" y1="527.95" x2="858.96" y2="529.88" gradientUnits="userSpaceOnUse"><stop offset="0" stop-color="#fff"/><stop offset="0.08" stop-color="#e9e9e9"/><stop offset="0.26" stop-color="#b1b1b1"/><stop offset="0.51" stop-color="#575757"/><stop offset="0.74"/></linearGradient><linearGradient id="linear-gradient-5" x1="830.93" y1="519.63" x2="830.93" y2="523.72" xlink:href="#linear-gradient-4"/><linearGradient id="linear-gradient-6" x1="917.11" y1="533.73" x2="917.11" y2="535.98" xlink:href="#linear-gradient-4"/><linearGradient id="linear-gradient-7" x1="646.33" y1="539.25" x2="646.33" y2="542.52" xlink:href="#linear-gradient-4"/><linearGradient id="linear-gradient-8" x1="550.66" y1="514.24" x2="550.66" y2="621.01" xlink:href="#linear-gradient-4"/></defs><title>photo2</title><rect class="cls-1" x="-54.4" y="-54" width="1304.69" height="614.15"/><path class="cls-2" d="M649.71,490.21c-39.61-67.94-107.58-22.15-107.58-22.15-33.8-113.69-119-67.27-119-67.27C417.49,310,361.2,338,361.2,338c-1.92-80.13-58.33-56.44-58.33-56.44-42.84-59.15-60.37,2.16-60.37,2.16-19.76-31.79-43.13,1.55-43.13,1.55-41.71-11.5-53.85,58.33-53.85,58.33-66.06-19.32-82.76,76.69-82.76,76.69C-55.7,448.34-9.78,563.77-9.78,563.77l589.93-21.19C660,561.41,649.71,490.21,649.71,490.21Z"/><path class="cls-3" d="M615.93,135.86s-34.2-94.85-106.79-.21c0,0-100.94-34.06-100.1,91.22,0,0-101-40.82-106.12,101.39,0,0-153-68.06-206.74,111.32,0,0-122.53-68-188.94,40.23,0,0-14.47,111.77,125.67,78.19l1043.64,2.2s75-182.73-135.76-220.41c0,0-34.59-149.1-150.31-115.47,0,0-25.15-108.46-98.24-88.3C692.23,136,649.17,85.17,615.93,135.86Z"/><path class="cls-4" d="M986.33,342s15-44.59,45.77.93c0,0,43.37-15.14,42.57,44.16,0,0,43.41-18.34,45.13,49,0,0,65.82-30.74,88.22,54.72,0,0,52.75-31,80.82,20.88,0,0,5.82,53.06-54.13,35.8l-447.27-9.08s-31.53-87.26,58.95-103.05c0,0,15.35-70.26,64.82-53.21,0,0,11.17-51.11,42.42-40.87C953.63,341.33,972.26,317.67,986.33,342Z"/><path class="cls-5" d="M858.8,529.6a1.83,1.83,0,0,0,.32-.91C859.12,527.49,859,528.14,858.8,529.6Z"/><path class="cls-6" d="M830.69,519.88s0,1.3-.09,3.25C831.37,521.79,831.53,520.65,830.69,519.88Z"/><path class="cls-7" d="M916.82,535.66a1.65,1.65,0,0,0,.58-1.08C917.4,533.21,917.23,534,916.82,535.66Z"/><path class="cls-8" d="M646,542.05a5.41,5.41,0,0,0,.73-2.6A26.92,26.92,0,0,1,646,542.05Z"/><path class="cls-9" d="M1203.12,522.82l-11.37,14.69-.84-1.63.31-2.34-1.08.86-5.5-10.61-7.1,11.76-7.12-11.76-11.36,11.76v-8.82l-14.22,8.82-7.1-12.73-4.25,15.68-10-15.68-15.62,12.73-1.43-9.8s-12.25,6.76-18.66,10.57c3.15-4.65.17-13.5.17-13.5s-11,16.73-19.5,20l-.38-2.5-4.64,2.46c-5.39-3.21,1.78-18,1.78-18l-28.42,15.67,7.11-15.67L1019,540.45V520.85l-12.79,18.62V523.79l-20.61,17.63.65-2.4,1.25-.85-1.08.2,3.43-12.63-8.79,13.63-3.28.61-2.14-10.32-6.21,4.64-2.58-.46-10.39,4.43-1.63.69-1.8-1.65,4-4.36-5.56,2.95-1.45-1.33a6.69,6.69,0,0,1-.82,2.54l-5.58,3a27.87,27.87,0,0,1-5.2-.05l3.35-4.63-7.29,4.23c-3.37-.35-6.21-.52-7.2.83a5.16,5.16,0,0,1-1,1l3.49-5.3L915,541.75l.24-.64,10.26-5.83-9.33,2.93c.26-1,.48-1.83.65-2.55-2.18,2.21-10.14,4.67-15.67,5.65,4.3-3.41,14.57-8.6,14.57-8.6-4.88-.41-12,1.7-18.31,4.15.52-6.53-3.91-17.63-2.77-12.08.86,4.14-6,10.42-11.66,14.75l0-3.67-2.7,1.58,5.8-9.71-15.37,10.59.28-.83-1.76.71,1.21-7.53-12.79,9.79s.1-1.09.25-2.63l1.12-2.12-1,.38c.22-2.26.49-4.87.69-6.49-1.4,2.29-7.23,5.84-11.81,8.36l5.57-5.63-6.26,2.93a23.25,23.25,0,0,0,1.44-7.53l-14,8.35-5.86,2.22c1.89-4,2.5-11,2.69-15.16-3.18,5.51-17,14.38-17,14.38l1.41-10.78s-7.4,5.53-12.46,8.46l5.36-6.5c-2,.29-5.79,1.94-9.77,3.91.18-1.59.54-4,1.23-8.8,1.1-7.59-8.9,6-13.45,12.5,0-.07,0-.14,0-.22l1.23-2.48-1.55.91a10.42,10.42,0,0,0-3.32-3.85c1.79,2-1.65,4.44-6.25,6.53l1.3-2-7.59-1.72-5.13,2.69c2.76-7.94-.79-15.32-.79-15.32l-8.53,14.7-5.24,3.14a31.55,31.55,0,0,0-1.44-4.83l.44-.5-.51.32a41.53,41.53,0,0,0-1.78-4l-17,13.71-1-3.63.65-1.47-.9.53-1.63-6.2-24.17,9.8c0-2.94,2.84-8.82,2.84-8.82s-5.28,3.11-11.18,6.29c1.43-1.55,2.39-2.64,2.39-2.64l-18,9.25c-.43-.12-.55-.47-.23-1.14,2.84-5.88-5.69-10.77-5.69-10.77l-13.6,9.37c.3-1.13.42-1.9.42-1.9a8.58,8.58,0,0,1-2.46,2V532.61L645.2,544.12c.3-.74.56-1.45.76-2.07-1.07,1.93-3.24,3.57-5.87,5l5.8-14.4L629.24,548.2l-1.83.25,8.53-16.81s-14.68,11.18-20.11,15.88c-.26-1.37-2.68-2.86-5.34-3.84l.22-.24-.36.19c-3.1-1.12-6.48-1.53-7.11-.24-.46.95-2.69,2-5.41,2.82l.89-2L589,547.67c-2.37,0-3.8-.68-2.85-2.32a3.86,3.86,0,0,0,.49-1.67l2.27-2.07-2.29,1c-.6-5.11-7.56-12-7.56-12l-9.47,10.08-5.71,2.39v0l3.3-6.63-2.7,1.2.34-3.08L554.77,542l-6.13,2.73,5.51-5.84-5.5,1.69.59-1.11-6.92,3.06-12.2,3.76,4.44-8.37-3.44,2c.12-.91.05-1.24-.35-.42-.64,1.32-6.46,4-12.41,6.17l3.09-5.27-15.86,6a6.21,6.21,0,0,0,.15-2.93l1.58-3.16-2.24.85a25.16,25.16,0,0,0-4.16-6.55s-2,2.08-4.7,4.88l-12.89,4.87,7.67-6.67-6.64,2.15c.56-1.39.93-2.3.93-2.3l-3.39,3.1-6.18,2,7.73-9.19-17.32,8.76c-.25-.63-.46-1.13-.59-1.42l4.81-4.06-17.64,3.08-.11-.31a1.7,1.7,0,0,1,0,.33l-.76.13,8.81-9.18-12.05,6.65.05-5L430,538.13l5.49-5.84-21.86,8.24,6.6-6.66L402.78,538l6.61-6.68L391.9,537l5.51-6.69c-9.78-.06-28.39,8.23-28.39,8.23l9.88-7.49-28.41,9c2.22-4.17,13.14-6.62,13.14-6.62-5.48-.57-14.88,3.83-21.1,7.18-1-.69-1.89-1.29-2.69-1.79l.88-1.33-1.67.84c-1-.59-1.62-.92-1.62-.92a13.73,13.73,0,0,1,1,1.21l-14.18,7.16,7.73-9.19L313.43,545l8.84-12.55-19.73,12.48,5.55-10-15.32,7.46L298.3,534l-13.15,8.31,6.64-10-20.23,12.28.12-.76,9.18-9.05-20.76,7.43,6.6-6.68-13.13,5.79,6.6-6.67-16.37,4.09,1.15-5.86-18.62,10.8,9.93-12.53L207.8,544.33l6.62-7.51-23,14.13,11-13.37L181.62,550l8.82-10.87L173.5,547l.46-.7-1,.95-2.22,1,12.1-12.53-17.52,10.82,7.71-10-20.84,15,7.72-9.19-17.49,7.45,5.53-8.36-7.67,5,3.34-7.55-19.71,10c4.37-2.49,5.55-10.89,5.55-10.89-.85,4.34-17.17,10.42-25.63,13.29a63.71,63.71,0,0,0-2.36-7.87c-.12,1.2-.27,2.34-.44,3.43l-6.53,3.54,3.34-7.53-17.52,9.95,4.42-7.52s-12.87,5.08-19,8c2.72-3.17,5.08-8.85,2.65-6.39-1.9,1.93-12.51,5.75-21.16,8.64,1.89-1.56,3.06-2.74,3.06-3.28,0-.89-1.43.73-3.66,3.48-6.08,2-11,3.54-11,3.54l14.24-8.3L25.8,560l7.69-6.68-13.11,5,4.4-5-14.19,4.95L15,550.7l-18.57,6.6,4.41-5.85-14.2,5.8,9.91-11.69L-36.31,563l8.8-8.35L-45,559.58l8.78-7.52-65.2,16.41-.4,37.09H1203.12Zm-576,27.36-1.11,1,.35-.7Zm-162.75-8.46-1.76,2.22-2.18,1.1Zm-125.13-1.87a6.64,6.64,0,0,1,.82,2.23c-2.29,1.29-3.74,2.2-3.74,2.2Zm-238.65,9.51q-.34,1.7-.76,3.21l-1,.31Z"/><path class="cls-10" d="M535.77,56.69a2.74,2.74,0,0,0,.53-1C536.36,55.29,536.14,55.8,535.77,56.69Z"/><path class="cls-10" d="M754.27,297.5c.22.48.4.83.4.83S754.52,298,754.27,297.5Z"/><path class="cls-10" d="M430.22,297.5c-.24.48-.4.83-.4.83S430,298,430.22,297.5Z"/><path class="cls-10" d="M716.44,405a1.81,1.81,0,0,0-.51-.53C716.42,405.1,716.75,405.51,716.44,405Z"/><path class="cls-10" d="M551,60.65a5.19,5.19,0,0,0-.12-.85C550.72,59.31,550.81,59.78,551,60.65Z"/><path class="cls-10" d="M546.75,257.28c-.37.6.53.41,1.72.11C547.64,257,547,256.87,546.75,257.28Z"/><path class="cls-10" d="M407.88,143.28l2.24,1.1-1.74-6-5.47-6.3s3.48,6,4,7.39A34.11,34.11,0,0,1,407.88,143.28Z"/><path class="cls-10" d="M774.37,144.38l2.24-1.1a35.58,35.58,0,0,1,1-3.83c.5-1.37,4-7.39,4-7.39l-5.47,6.3Z"/><path class="cls-10" d="M648.19,55.69a2.82,2.82,0,0,0,.53,1C648.36,55.8,648.13,55.29,648.19,55.69Z"/><path class="cls-10" d="M633.64,59.8a5.19,5.19,0,0,0-.12.85C633.68,59.78,633.77,59.31,633.64,59.8Z"/><path class="cls-10" d="M842.13,276.58s-8.21-2.47-12.31-4.11c-3-1.21-7.86-6-12.14-8.24,1.79-1,5.38-3,6.67-3.81a12.56,12.56,0,0,0,2.84-2.93l9.34,1.28,3-4.65L835,256.6l-6.47-1.33a6.07,6.07,0,0,0,.75-2.5c0-2.47,3.48-8.21,3.48-8.21l-.5-4.93a32.11,32.11,0,0,1-2.74,6.84,22.07,22.07,0,0,0-2.49,7.39c-.25,1.37-3.48,4.37-5.72,5.47-1.54.75-4.74,2.68-6.58,3.81a5,5,0,0,0-1.38-.11c-4.85.41-23.5,4.93-32.82,8.21s-20.14-6.16-23.87-9.44-14.92-9.44-14.92-9.44,5.22-4.1,9.32-5.75,14.17-3.69,21.63-7.8,11.56-.82,11.56-.82a47.9,47.9,0,0,0,5.91,2.74H790l4,11.49-2.12-10.88c9.69,3.3,16.66,2,16.66,2a21.8,21.8,0,0,1-7.81-.79l4-5.64,9.45-3.83L803,235l-4.73,6.57.84.51a78.5,78.5,0,0,1-16.56-7.83,44.29,44.29,0,0,1,5.77-2.53c2-.55,4.48-7.94,4.48-7.94l4.47-1.64-5.47.27L788,228.68l-4.72,2.74L779.82,234c-5,1.69-20.59,6.94-25,7.28a13.29,13.29,0,0,0-3,.73l1.15-7.57,6-4.93.25-4.65-2,4.11L750,233.88l-1.38,9.39a135.55,135.55,0,0,0-17.64,9.9c-4.85,3.28-16.78,26.69-24.24,30.38s-23.5,6.16-28,5.75,2.24-6.57,4.1-9.44a27.58,27.58,0,0,1,8.58-7.39c.66-.29,2.44-1.2,4.46-2.25.34,1.48,1.14,4.46,2.25,4.92,1.49.61,6.9,2.26,6.9,2.26l2.61,2.26-2.42-3.49a49,49,0,0,1-4.85-1.23,4,4,0,0,1-2.05-2.87,11.59,11.59,0,0,0-1-2.61c3.32-1.74,6.74-3.55,6.74-3.55l7.09-7s-9.7,7-13.05,7.39S687,272.88,687,272.88a55.1,55.1,0,0,0,5.6-7.8c2.07-3.43,7.58-9.83,11.48-14.1,3.1-1,10.85-3.41,12.63-3.41,2.24,0,7.46-.82,8.7-2.47s8-5.47,8-5.47-6.47,1.64-8,3.56-5.72,2.19-8.2,2.19-9.32,1.64-9.32,1.64c2.24-2.05,4.47-12.73,4.47-12.73s-4.85,10.68-10.07,14.78c-4.46,3.51-9.72,11.48-13.72,16.82,0-.18,0-.34,0-.53,0,0-1.74-8.76-2.24-11.77s2.49-8.48,5.22-12.86,1-12,1-12-.25,7.39-2.74,12c-1.5,2.8-3.44,5.51-4.6,8-.27-.73-1.58-4.07-2.74-5s-1.87-3.9-1.68-6.57-3-7.19-3-7.19,1.87,5.34,1.87,7.39,1.12,4.72.18,4.52-3.36,1.43-5-.41-5.22-1.23-5.22-1.23,3.17,1.64,4.47,2.26,3.54.62,5,.82,1.87,2.46,2.8,4.31,2.42,5.68,2.42,5.68c.74,3.56,1.74,9.85,2.24,12a9.13,9.13,0,0,1,.1,2.88l-.1.13c-4.1,4.93-10.07,15.6-20.14,19.71S656,284,655.65,279.45s1.49-19.3,4.47-31.21,12.31-26.69,23.12-30.38c9-3.06,18.42-3.3,24.37-1.43L718.18,227l8.21,5.47,3.73,2.74-2.74-4.11-7.46-5.48-4.84-5.77c5,1.83,11,2.41,14.42.85a11.64,11.64,0,0,1,2.32-.63l4.27,3.92,8.7,3.56-6.22-4.1-2.67-4c10.45-1.29,29-2,29-2s-13.68-.37-24.56.14l4.42-5.89,7-4.92-.74-4.66-1,4.11-7.21,4.38-1.47,1.46a29.1,29.1,0,0,0-1.58-2.62c-.74-1-.93-3.49-.74-5.13s-2.8-4.31-2.8-4.31,1.87,2.67,1.68,3.9a9.86,9.86,0,0,0,.75,5.13,21.43,21.43,0,0,1,1.49,3.7l.48.06-5.14,5.11a30.1,30.1,0,0,0-7.08,1.19c-6.34,2.47-18.28-4.93-22-7.8s-20.14-.82-20.14-.82,10.45-7,21.26-13.55,22-4.93,28.34-3.69,19.39,5.75,25.73,7.8a29.56,29.56,0,0,0,6.24,1,16.08,16.08,0,0,0,2.34,5.85c1.74,2.19,5.47,9.58,5.47,9.58s-.75-5.74-2.24-7.66c-1.28-1.64-2.37-6.27-2.66-7.58,6.46.32,14.05.23,18.43.9l1.38,2.84,2.48,4.93,9.95,2.47,6.22,4.65,8.95,3.56-7-5.47-6.47-4.65-9-1.92L792.83,204c5.31,1.45,11.68,2.69,15.35,2a32.61,32.61,0,0,0,5.65-2l3.06,4,7,.27,8.7,2.19-6.71-3.56-7.46-1.1L815.77,203c4.37-2.07,8.67-4.55,8.45-5.29s-3.48.6-7.27,2.29l2.18-1.2,2.24-8.21,6.21-8.21-7.71,7.39-3.22,10.36c-3.12,1.4-6.53,3.05-8.84,4.14-4.36,2.06-10-2.17-16.1-3.87l3.8-5.71,7-2.74,5.47-12-7.46,10.67s-5.47,1.64-7.21,3.83a57.37,57.37,0,0,1-5.38,5.33c-5-.27-11.2-.19-17.08-.47l3.56-1.85,4.73-3.83s2-7.12,1.24-6.29-3,6.29-6.21,7.94c-2.47,1.26-6.1,3-7.67,3.74-1.29-.12-2.56-.26-3.77-.45-7.83-1.23-10.81-4.1-7.83-5.34S766,188.72,769.4,185s13.05-10.67,16.41-11.09,15.67-1.64,15.67-1.64-4.74-.5-9.43-.87l5.2-10.9,9.45-2.46s1.49-4.65,2.24-6.57-3,5.2-4.72,5.75-9.2.55-9.7,2.19-4.47,9.3-4.47,9.3l-3.57,2.36-1.41,0c-4.85,0-11.56,8.62-15.66,10.68l-.47.23c-.37-.57-.91-1.4-1.52-2.3,0-.07,3.73-6.31,4.22-9.57s4.47-6.84,4.47-6.84c-3.73,2.46-7.71,7.12-7.71,9,0,1.52-2,3.87-2.85,4.79a8,8,0,0,0-1.38-1.51c-1.24-.82-4.23-6-3.48-7.39s.25-9.58.25-9.58l-3.48-1.37a9.66,9.66,0,0,1,1.74,6.3,61.86,61.86,0,0,1-1.24,8.21,18.72,18.72,0,0,1,4.47,4.65c1.41,2.21,2.16,6.2,2.4,7.66-4.3,2.2-9.75,5-13.72,6.71-5.59,2.47-19-2.46-26.11-2.46s-8.2-1.23-6.34-4.1,4.47-7,9.32-16,11.19-10.26,16-13.14c2.87-1.7,6.13-5.14,8.62-8.68,2.55.5,15.93,3,17.73,1,2-2.19,11.69-3.83,11.69-3.83l7.71.55s-7.71-4.65-11.44-1.91-8.7,4.1-10.44,4.1-5.22-1.64-8.46-2.19a23.38,23.38,0,0,0-5.2-.17,21.32,21.32,0,0,0,2.09-4.48c1.49-4.93,7.83-10.26,7.83-10.26s-6.71,4.1-12.31,13.55-7.46,6.57-13.8,10.68-6,2.47-6,.82a114.67,114.67,0,0,1,3-16.83c.93-3.36,4.82-10.76,7.58-15.8l12.56-1.3s10.44-3.28,13.18-1.37,8.71,5.47,10.2,4.11,10.69-.82,10.69-.82-9-2.74-11.19-1.64-7-1.37-8.45-3-5.72-.82-7-.55-6,.82-6,.82,10.44-8.48,12.19-9.58a4.53,4.53,0,0,0,1.17-1.52c2,.54,10.26,2.7,12,1.25,2-1.64,9.7,0,9.7,0l5.22,3s-4.48-5.2-8.46-4.92-8-.55-8.95.27-3-1.64-5.22-1.64h-3.31c1.24-2.84,2.31-6.29,2.31-6.29l5-6.84s-6.46,3.83-6.71,5.75a36.33,36.33,0,0,1-3.73,9c-.75.82-7,6.29-8.7,7.12s-4.73,4.11-4.73,4.11L745,119.2s6-8.49,8.21-11.77S752,95.93,752,95.93s4.72-6.29,5-7.12S755.48,77,755.48,77s.5,9-.25,11-4.72,6.29-4.72,6.29-4-6-4-6.84-1.49-5.2-1.25-6.84-1.49,5.2-.74,7.39A57,57,0,0,0,749,96.75c1.24,1.92,2.49,8.76,2.49,9.85s-5.47,6-5.47,6l-4.23-6,3,7.12-6.71,11.22-5,9.58s-2.74-4.38-2.49-8.48,1.49-10.95,3.23-12.59,1.49-9.31.25-13.14,3.73-9,3.73-9l.25-14.78-2.24,14-3,6.3s.25,8.49.74,10.13-.74,4.38-.74,4.38l-5.72-5.2s4,5.75,4.23,6.84-.5,4.66-1,7.39.25,7.94-1.74,5.75c-.61-.68-1.4-1.67-2.18-2.72-1.17-1.78-3-6.27-4.49-10.21a38.81,38.81,0,0,0-.78-4.86c-.5-1.64,0-4.65,1.24-5.75s2-4.1,1.74-5.75,1.49-6.84,1.49-6.84l4.72-5.47-6.21-8.48.5-10.13-.5-9s-1.24,7.94-1.24,10.13-.25,8.21-.25,8.21a11.1,11.1,0,0,0-3.48-3.56c-2.24-1.37-5-5.75-5-5.75l1-5.2s-3.48,3.83-2.49,5.2,3.48,5.47,5.47,7.12,4.23,5.48,6.22,6.84,3.73,4.38,2.24,5.47a24.54,24.54,0,0,0-3.73,4.38s-2.24-2.19-4-2.47-4.47-1.92-5.22-4.1-5.47-5.75-5.47-5.75S711,82.24,712,83.61s4.22,4.38,6,4.93,3.48,1.1,3.73,4.38-2,8.48-2,8.48l-2.49,2.46L714.45,97l1,6s-2.48,1.37-4.47.82-5.72-4.1-5.72-5.2-6-1.92-6-1.92l4.73,3,4.47,6.57h6.47c1,0,3.48,3.83,4.23,5.2a11.63,11.63,0,0,0,1.37,1.84,24.86,24.86,0,0,0,1.12,3.5c1.14,2.78,2.43,5.41,3.86,8.64l4.19,11.4c.95,4.2.52,7,.52,10.75,0,4.93-1.12,12.73-3.36,14.78-1.94,1.78-6.95,9.09-11.89,17.16a25.13,25.13,0,0,1-2.28-4.84c-.25-1.37-.25-7.39-.25-7.39L707.92,164l-.93-.7-5.72-.55s3.73.82,5,1.91,4.48,4.65,4.48,4.65l-.25,4.38s-4,.55-5,0-5-2.19-5-2.19l-2.74,1.64a24.22,24.22,0,0,1,5,.82c1.25.55,4.73,1.64,5.47,1.37s2.74,2.47,2.74,2.47a27.79,27.79,0,0,1,.13,7.92c-6.69,8.58-21.28,16.43-27.1,19.45-6.34,3.29-5.59-1.23-5.22-10.26s7.09-18.48,13.05-25c4.31-4.75,11.14-11.41,14.6-14.74,3.23-1.3,8.42-3.4,9.76-4.14,2-1.1,7.21-1.91,7.21-1.91s3.24-3.29,3.48-4.11-3.48,1.09-4.47,1.92-6.22,1.64-7.21,1.91-6.71,3-6.71,3-.5-5.2-1-6.29,1.49-4.11,4-6.3,3.16-6.46,2.77-8.49a22.62,22.62,0,0,0,1.45-5.4v-6.77s-1.87,2.67-1.49,4.93c.24,1.42-.41,4-.93,5.66a46.09,46.09,0,0,0-6.78-5l1.24-9L705,123.3s-4.47-.27-5.72-.82-2.74-3-3-4.11a55.87,55.87,0,0,0-3-6s.5,6.84,1.74,8.21,3.48,4.38,6,4.65,4.47,1.64,7.21,3.83,4,6.3,2.74,7.12a38.33,38.33,0,0,0-3.73,3.28l-5-5.47,3.73,6.84-1.49,4.93,1.74,4.65L705,153.33l-.85.08s-10.07,11.5-19.76,20.94c-6,5.87-8.6,13-9.77,19.56-.84.57-1.84-1.54-2.73-2.52-1.12-1.23-1.31-3.9-1.31-3.9s-.74-3.08-1.3-3.08-2.42-2.26-2.42-2.26l2.05-2.67,2.24-1.23-3.54-.41-1.68,3.29s-2.42-1.23-2.42-1.85-.56-7-.56-7l-.38,8s2.8,5.14,5,5.75,1.87,4.31,1.87,4.31a5.72,5.72,0,0,1-2.61.41c-1.12-.2-3.73-1-5-.61a25.52,25.52,0,0,1-4.1.61l-1.49-2.87a33.24,33.24,0,0,0-5.41,1.43c-1.12.62-3.73.41-3.73.41l2.61,1.23s3-1.43,4.48-1.43,3.54,3.08,3.54,3.08l-2.8,1.64-3.36,5.13,4.29-4.52s5.41-1.64,6.52-2.47,5.78.82,7.09,2.26a41.33,41.33,0,0,0,4.53,3.8c-.23,2.26-.34,4.38-.43,6.26-.37,8.21-10.07,13.14-15.66,20.12s-10.81,2.46-13.8-4.1-6-19.3-3-26.69S651.92,180.51,656,176s7.09-11.5,13.05-18.06,10.07-4.11,14.55-3.28,6.71-2.87,9.7-7a73.18,73.18,0,0,1,6.71-7.8A43.79,43.79,0,0,0,690,148.48c-4.48,5.34-6.71,2.05-11.19,2.05s-4.1-1.23-2.24-3.28,6-9.85,6.34-17.66,4.1-19.29,6.34-25.87,8.58-12.32,8.58-12.32a11.39,11.39,0,0,0-2.94,1.75,41.19,41.19,0,0,1,.33-4.21c.19-.62,2.05-3.7,2.05-5.34S695,78.48,695,78.48s1.49,5.34,1.3,6a28.44,28.44,0,0,1-3,4.72c-.74.82,0,5.13,0,5.13l.26,0a24.85,24.85,0,0,0-4.73,6.2s-2.61-5.34-3-6.36.75-4.11.56-6S684,80.74,684,81.35s1.31,6.36.37,9.44a9,9,0,0,0-.31,1.52.56.56,0,0,0-.43-.09,22.81,22.81,0,0,0-3.36.21c-.75.2-3-1-3-1a15.44,15.44,0,0,0,2.43,2.47,28.81,28.81,0,0,0,4.29,0,9.62,9.62,0,0,0,1.12,3.87c.6,1.16,1.93,4.05,2.42,5.13A75,75,0,0,0,682.87,114s-1.49-.41-4.47-3.29-4.48-7-5.6-11.5a29,29,0,0,1-.25-8.22,22.13,22.13,0,0,1,2.86-6.15c2.05-2.47,4.48-4.52,5.6-7.8a23.15,23.15,0,0,1,5-7.8c1.12-1,4.85-.62,6.34,0s4.85.21,6.53-.2,4.85,1.64,4.48,1-1.68-3.49-3.73-3.08-2.42,1-2.05,0,1.3-4.93,2.42-7,6.71-5.34,6.71-5.34-5.41,2.26-6,2.46-3.36,3.9-3.54,6.78-4.29,3.49-6.71,2.87-5.22-1.23-5.22-1.23,3-5.34,4.66-8.21,1.87-12.11,1.87-12.11c0-1,2.61-.2,3-1.64a13.77,13.77,0,0,1,2.24-3.7s-2.61.82-3.36,2.87-2.42.41-2.42.41v-3.7c0-1-1.68-5.13-1.3-3.9a34.67,34.67,0,0,1,.37,5.54s-.75,5.54-.37,7.18a8.31,8.31,0,0,1-.93,4.93c-.56,1-1.87-.2-2.42,0s-3.17-.82-5-1.64-2.43-1-2.43-1,2.43,1,2.8,1.85,3.54,2.26,4.85,2.26.93,2.67-.19,4.72a22.71,22.71,0,0,1-4.66,5.13c-.56.41-2.8-.61-3.36-2.05S678,58,678,56.1a3.6,3.6,0,0,0-.93-2.67s.19,7.39.19,8.21,1.49,3.28,3,4.31,1.87,2.67,1.3,3.49-2.61,5.13-4.29,8-3,1.85-3.17-.41-.19-4.51-1.12-6-.37-4.11-.37-4.93.37-4.31.37-5.34.37-3.49.37-4.93a23.29,23.29,0,0,1,.93-5.75,24.69,24.69,0,0,0,.56-5.34l.37-5.54-1.68,3.28s.56,5.34-.75,7-.74,3.9-.74,6.36-.93,4.72-3.17,4.93-3.73-2.05-4.85-3.29A5.91,5.91,0,0,1,662.92,53a19.08,19.08,0,0,1,1.86-4.1l-1.12-2.67L664,43s-3,2.67-2.05,2.87,1.31,4.1,1.12,4.72S662,53.85,662,53.85s-2.05-3.49-3.54-4.31-6.71-4.11-6.71-4.11,3.73,4.52,5,4.31,4.1,4.93,4.1,5.75,3.54,8.83,6,8.83,4.66-1.23,4.29,1,0,7.19.56,10.68a37.81,37.81,0,0,1-.19,12.11,86.43,86.43,0,0,0-.93,11.08c0,3.28-4.1,1.64-7.83-.82s-5.59-5.75-4.85-2.88,6.71,7,11.56,9.85c0,0,5.22,6.16,9.32,11.49s1.12,7-1.49,19.3S668,152.59,662,158.33s-3.73,0-4.85-6.57A33.58,33.58,0,0,1,659,134.93c.78-2.14,2.26-5.61,3.51-8.45l0,.24c.56.2,3.73,1,5.22.2s3.73-2.47,4.85-1.85a4,4,0,0,0,2.61.2s-3.54-1.44-4.1-1.23-3.36,2.26-4.1,2.26c-.58,0-3-.48-4.12-.71,1-2.18,1.7-3.8,1.7-3.8-1.54,1-3.11,3-4.56,5.41l.08-.69a21.42,21.42,0,0,1-1.68-4.1c-.19-1.23,2.05-6.16,2.61-7.39s-.19-7.39-.19-7.39-.93,5.34-1.12,6.36a28.32,28.32,0,0,1-2.42,5.54c-.74,1.23-.56,4.52.56,5.75a9.3,9.3,0,0,1,1.5,3,93.05,93.05,0,0,0-5.6,12.35s-2.24-10.27-4.1-16.83-.37-8.21,1.12-14.37a11.8,11.8,0,0,0,.16-4.69l0,0a29.06,29.06,0,0,0-1.87-8.21c-.74-1.44-1.12-9.44-1.12-9.44s3.36-6.16,4.85-7.39.56-5.14,1.49-6.57,5.22-2.46,6-2.67-3-.62-3-.62l-4.47,1.85a3,3,0,0,1-.37-3.08c.74-1.85,1.49-5.95.74-7-.6-.82-3.34-3.34-4.51-5,.74,1.8,2.08,5.16,2.83,5.57,1.12.62-.19,4.72-.37,6.36a10.57,10.57,0,0,0,.56,4.93c.56,1.23-.56,4.72-1.3,6.16s-3,4.1-4.48,1.23-3.73-5.34-4.1-7.18.37-5.54,1.12-5.75-.37-7.18-.37-7.18a50.3,50.3,0,0,1-.56,6.36c-.37,1.23-1.87,5.54-1.87,5.54s-2.61-1.85-3.54-2.67-3-4.72-3-4.72a36.27,36.27,0,0,1-.12-4.69c-.31,1.67-.87,4.84-.62,5.51.37,1,1.68,3.9,3,4.93a20.73,20.73,0,0,1,4.29,4.31,72.18,72.18,0,0,1,3.91,6.77,18,18,0,0,0-4.47-1.44c-1.87-.2-4.48-1.23-5.22-2.05s-2.8,1.64-2.8,1.64a14.08,14.08,0,0,1,3.73.82A26.64,26.64,0,0,0,642,82.79c1.3,0,3.54,2.46,3.54,2.46s.56,4.31.93,7,2.24,9.24.37,8.21a42,42,0,0,0-6.34-2.26,8,8,0,0,0,3,2.05c1.49.41,3.54,1.64,4.1,2.67a6.5,6.5,0,0,1,.48,1.58c-.05,2.33-.14,5.09-.29,7.86-.37,7-3,4.1-8.58,2.46a17.16,17.16,0,0,1-3.71-1.68c-1.21-1.51-5.19-6.45-6-7.15s-3.17-6.78-2.8-8.62.93-6.57.93-6.57l-3.36-5.13s-.93-9.85-.56-12.73.93-8.42.93-8.42,4.85-10.06,6-11.08,5.22-6.16,6.71-7.19,5,3.28,5.78,3.28-.37-1.23-.93-2.05A9.7,9.7,0,0,0,638.31,45c-1.31-.41-3.73.62-3.73.62a24.34,24.34,0,0,0,1.12-4.72c.18-2.05,4.29-3.7,4.85-3.9s0-8.42,0-8.42l-.93,7s-2.24,2.05-3.36,2.26-3,2.87-3,2.87l-.18,3.7a10.4,10.4,0,0,1-1.3,4.31c-1.12,1.64-3.92,2.46-3.92,3.08s-1.31-4.93-1.31-4.93-2.42-4.11-.56-6.77-2.05-4.31-2.61-4.72a30.65,30.65,0,0,0-4.1-1.44,44.62,44.62,0,0,0,3.54,2.87c.75.41,1.68,3.28,1.12,4.52s.75,4.52,1.3,5.34,1.12,5.34,1.12,6.78S624.51,60,624.51,60s-2.61-2.26-3.92-2.26-2.61-4.93-2.42-5.54c.12-.39-2.65-2.27-4.75-3.65l-1.65-2.72-5.47-7.67,1-5.2-2.74-7.39,1.24,7.11-1.24,6,6.53,8.35-3.92,1.64a14.76,14.76,0,0,1,3.73.41c.93.41,6,3.69,6,3.69l1.12,3.9-6-.62,6.9,2.05s2.24,1.23,2.8,1.64.94,3.28.94,3.28l-1.31,8.41a51.07,51.07,0,0,0,.37,6.77,31.46,31.46,0,0,1,.37,5.14l-7.64-1.64-1.68-5.13L607.54,75a29.42,29.42,0,0,1-5.59-1.64c-1.49-.82.75,2.05,3,2.46s6.53,1.85,7.08,3.08,2.05,3.49.37,3.7-6.34-1-6.9-1.23-1.12,2.87-1.12,2.87,1.49-1.44,4.85-.62a8.24,8.24,0,0,0,5.59-.41,34.07,34.07,0,0,1,3.54.2c1.68.2,3,.82,3.54,2.46s2.24,3.9,1.87,5.54.56,5.34.74,7.39-2.61,4.31-2.61,4.31a7,7,0,0,0-3.17,0c-1.68.41.19,1.44,1.87,1.23a24.12,24.12,0,0,0,4.85-1.64s1,2.06,1.91,3.94l0,0s.15.36.46.93a12,12,0,0,1,.85,2.14c0,.36,1.61,2.34,3.47,3.51a25.36,25.36,0,0,0,7.16,4.9c8.95,4.11,7.09,6.57,9.32,12.32s3.73,14.37,6,28.33-3.36,16.83-10.45,22.17-12.68,7.39-14.54,1.23c-1.21-4-2.43-15-3.13-22.15.35-2.74,1-7.74,1.27-9.06.37-1.85,2.42-7.8,2.42-8.42s1.68,2.46,2.8,3.08,4.66-.41,6.15.2a40,40,0,0,1,5.22,3.49s-2.24-2.87-3-3.08-3.92-3.08-5-2.26-2.42-.62-3.73-2.05-3-3.9-.56-5.54,5.22-4.72,5.59-6.16a4.9,4.9,0,0,0-1.49-4.31c-.94-.61-.56-4.93-.56-4.93s-2.8,1.64-1.87,3.7,2.8,4.72,1.68,6.16c0,0-6.71,4.92-6.53,8.41s-2.24,6.77-2.61,8.21c-.24.92-.78,2.42-1.19,3.55a14.69,14.69,0,0,0-1.6-3.35,113.17,113.17,0,0,0-6.48-12.31c-.87-2-1.54-4.11-.42-5.34a48.86,48.86,0,0,0,4.85-7.8c.19-.61-1.49,2.26-3,3.28s-3.36,2.87-3.54,3.49-1.49-3.28-2.61-5.13-.19-7.8.56-10.06-.19-7.39-.56-8,3.54-8.42,3.54-8.42-4.85,7.6-4.85,8.62,1.49,4.93.75,6.77-.93,7.6-1.12,8.83-3.54-.41-3.54-.41,2.8,2.26,3.54,2.67,1.87,4.72,3.36,7c-3.36-4.52-3.36-1.64-6-4.52s-6-7-5.22-9a48.6,48.6,0,0,0,2.24-11.49c.37-4.93-1.87-10.27-1.87-10.27s.74,7.8-.74,14-3,8.62-5.22,3.69-1.87-11.91-.74-16,3.73-4.52,3.73-6.16.75-5.75,1.12-10.27.37-13.14-.74-15.6S596,56.92,593,54.46a19.17,19.17,0,0,1-3.24-5.1l4.73-5.58s-1.87-8.62-1.87-11.91,3.73-14.37,3.73-14.37-3.73,4.51-4.1,6.57-1.49,7-1.49,8.62a18.66,18.66,0,0,0,.37,6.16c.58,2.23-1.74,5.92-2.83,7.48-1.13-2.45-2.22-5-3.1-7.19l.33-10.55s-2.24-4.93-3.36-5.34-5.6-7.8-5.6-7.8l-1.49-6.57s.37,10.26,1.49,11.08,4.85,5.75,5.6,8.21.74,8.21.74,8.21l-6.34-.82-2.24-5.75-3-1.64L574,33.52s2.24,4.93,4.1,4.93,7.46,8.21,7.46,8.21,5.59,9.85,9,12.32,6.34,9.86,4.47,14.78-1.12,12.32-1.49,13.55-1.87-4.93-6.34-9-7.46-18.06-7.46-18.06-.75,9.44,1.87,13.55,8.21,11.09,7.83,15.19-2.24,11.5-3.73,16.42S596,118.1,598.22,121a73.39,73.39,0,0,0,5.05,5.41c2.46,4.38,6.51,11.29,8.75,13.48a28.13,28.13,0,0,1,5.39,8l-.17-.16a20.47,20.47,0,0,1,1.3,3.67c-2.19-.69-5.1-1.94-7.27-2.85a10.15,10.15,0,0,1-5.6-7.39c-.56-3.49-4.1-3.69-5.78-3.69s-6.34,3.69-6.34,3.69a73.35,73.35,0,0,1,8-1.64c1.49,0,3,2.87,3.92,4.52s1.12,5.34,1.12,5.34-5.41.82-6.15.82,3,1,4.47,1,3.17-1,4.1-1.44,3.36,3.08,5.78,3.08a9.14,9.14,0,0,1,4.39,1.55c.74,4.29.92,9,1.39,12.62.75,5.75,1.49,11.08,3,15.19s1.12,7.8-4.1,4.1a104.11,104.11,0,0,0-11-6.51c-1.91-1.92-3.48-4-3.94-5.76l1.85-9.49s-4.47-1.64-6.34-3.69-4.85-8.62-4.85-8.62,0,9,1.87,10.27a57.39,57.39,0,0,1,5.6,4.93l-1.47,3.55c-4.52-2.08-12-2.73-12-2.73l-7.83,2.87s9,.82,12.68,1.23,8.58,4.52,11.93,9,9,8.21,10.81,9.44-7.46,4.11-7.46,4.11a51,51,0,0,0,8.21-1.23c2.61-.82,5.22.82,7.09,4.52s6.71,15.19,6.71,15.19a1.86,1.86,0,0,0,.44.07c2.1,6.89,4.47,14.06,6.64,22.1,5.22,19.29-.37,52.14-7.83,73.9-.15.44-.32.89-.49,1.33l-.26.31c-5.6,7.39-7.46,9.44-9.33,7s-2.24-5.75-6.71-10.68-2.61-4.92-1.12-8.21a98.66,98.66,0,0,0,4.48-12.72,29.42,29.42,0,0,0,1-5.14c1.94-1.81,7.69-7.13,10.15-8.82,3-2.05,3.73-11.08,3.36-12.72s3.35-9.86,3.35-9.86l.37-11.91s-3,9.85-3.36,11.91-2.61,6.16-2.61,6.16-4.48-2.46-6-4.11.74-9.44.74-9.44-3.73,4.93-3.73,6.57,1.49,6.16,3.73,7a7.37,7.37,0,0,1,4.85,5.75,10.8,10.8,0,0,1-2.61,8.62,84.16,84.16,0,0,1-8.07,6.84,25.13,25.13,0,0,0-1.25-8.08c-1.49-4.11-5.6-12.73-6.71-11.9s3,7,4.47,10.26a5.16,5.16,0,0,1,.27.77l-1.76-3.24a46.75,46.75,0,0,0-5.22-.41c-2.24,0-8.21-3.69-8.21-3.69l-2.24,3.28h4.1l6,2.05,7.54,2.77c1.07,5.09.73,18.22-6.79,29.26-2.24,3.28-6,.41-13.43-5.75s-4.1-10.68-4.85-15.19,1.49-14.37,3-18.48,7.46-9,10.44-10.27,8.21-2.47,10.82-5.34c1.86-2,4.1-7.86,5.23-13l10.06-3.06-9.68,1.14a22.45,22.45,0,0,0,.35-3.61c0-5.34,2.24-16.42,2.24-16.42l-4.11,7.8s0,15.6-4.85,22.58-12.31,5.34-12.68,4.11,4.85-12.73,5.59-16c.66-2.89,1.89-6.1.64-8.51.8-2.08,3.09-8.2,3.09-9.55,0-1.64-3.73-5.34-5.22-6.16s-3-9.44-3-9.44l-1.49-13.14s-.75,9.44-.37,11.91.37,5.34,1.12,7.39,1.49,5.75,3.36,7,1.86,4.93,1.49,6.57a18,18,0,0,1-1,2.75c-2-2.76-4.77-6.85-10.16-10.14a17.62,17.62,0,0,1-2.56-2,2,2,0,0,0,.32-1.3l2.24-12.73s-6.34-4.1-7.46-4.93-6.71-7.8-6.71-7.8,3.36,7.8,4.48,9,7.46,2.87,7.09,5.75c-.28,2.14-1.58,7.22-2.24,9.68-5.86-6.35-11.94-16.25-11.94-16.25l4.77,9.81c-1.13-.12-4.17-.45-6.26-.78-2.61-.41-6-3.69-5.59-7s-.75-5.34-1.87-7.39S568.38,169,568.38,169l-1.87,7.8s3.36,7.39,2.61,9.85,1.49,8.62,4.1,9,10.71.82,10.81.82l3,6.16s16.41,14.37,16.41,18.89c0,1.93-1.77,6.39-4.28,11.48-1.28-.11-9.8-.87-13.25-1.63-3.73-.82-4.85-9-6-11.5s-7.46-3.28-8.95-3.28-7.46-9.44-7.46-9.44,2.61,7,3.73,9,5.22,2.05,7.09,2.87,3.36,4.93.75,4.52-7.83,4.52-7.83,4.52-6,1.64-7.83,1.23-6.34,4.11-6.34,4.11,7.09-1.64,9.32-2.05,9,.41,10.07-2.05,6.34-2.46,6.34-2.46,1.49,3.69,3,4.52,2.24,5.34,6,4.11c3.36-1.11,6.41,3.44,7.25,5.25a92.46,92.46,0,0,1-7.63,11.58c-6.34,7.8-8.21,32.85-8.21,32.85s-6.71-5.34-9-9.45a64.59,64.59,0,0,1-2.89-6.65c3.28-3,9.51-8.88,9.23-11-.37-2.87-4.1-11.08-4.1-11.08l4.85-7.8s-7.09,4.52-7.09,6.57,1.49,4.93,2.61,7.8,1.12,5.75-1.12,7.39c-1.45,1.06-4.14,3-5.86,4.2-1.43-3.9-2.75-7.78-3.47-9.95-1.49-4.51-7.83-10.26-7.83-10.26a68.09,68.09,0,0,1,5.66,13c-2.18-.24-7.11-.8-8.27-1.12a9.46,9.46,0,0,0-3.51.53c1.61.74,3.89,2.35,5.37,2.35h6.71l.07-.17a13.53,13.53,0,0,1,.3,2.63c0,6.16,6.71,22.17,11.19,25.86.75,1.23-4.85,4.93-4.85,4.93l-4.1-3.7-6.34,1.23-5.22-.41,4.1,2.87,5.22-.82,4.47,3.7-6,1.64-1.87,8.62,4.47-7s7.46,1.23,7.83-.82c.27-1.46,3.17-5.61,4.82-7.89,2.92,2.81,7.25,7.23,11.81,11.85,3.79,4.39,10.27,12,12.33,14.8,3,4.11,4.23,15.05,5.47,19.43s-4.47,14.74-6.71,16.11c-1.56,1-4.22,2.44-6.78,2.51-11.11-4.22-30.51-26.82-37-45.71-7.46-21.76-13.05-54.6-7.83-73.9s11.56-33.67,12.68-50.91c.57-8.71,1.51-17.41,2.31-23.9.64-1.88,1.65-4.53,2.35-5,1.12-.82,3.92-2.87,6.34-2.87s4.85-3.49,5.78-3.08,2.61,1.44,4.1,1.44,5.22-1,4.47-1-6.15-.82-6.15-.82.19-3.69,1.12-5.34,2.42-4.52,3.91-4.52a73.3,73.3,0,0,1,8,1.64s-4.66-3.69-6.34-3.69-5.22.2-5.78,3.69a10.14,10.14,0,0,1-5.59,7.39,77.42,77.42,0,0,1-8,3.08c-2.24.62-2.43-.61-1.12-2.87s.56-5.75,1.87-8,3.17-7.6,4.66-9.85,2.61-6.57,3.36-7,3.54-2.67,3.54-2.67-3.36,1.64-3.54.41-.37-7-1.12-8.83.75-5.75.75-6.77-4.85-8.62-4.85-8.62,3.92,7.8,3.54,8.42-1.3,5.75-.56,8,1.68,8.21.56,10.06-2.42,5.75-2.61,5.13-2.05-2.46-3.54-3.49-3.17-3.9-3-3.28A49,49,0,0,0,568,130c1.49,1.64-.19,4.93-1.3,7.18s-4.48,9-5.6,10.47a14.58,14.58,0,0,0-1.6,3.35c-.41-1.13-1-2.63-1.19-3.55-.37-1.44-2.8-4.72-2.61-8.21s-6.53-8.41-6.53-8.41c-1.12-1.44.75-4.11,1.68-6.16S549,121,549,121s.37,4.31-.56,4.93a4.89,4.89,0,0,0-1.49,4.31c.37,1.44,3.17,4.52,5.6,6.16s.74,4.11-.56,5.54-2.61,2.87-3.73,2.05-4.29,2.05-5,2.26-3,3.08-3,3.08a40.18,40.18,0,0,1,5.22-3.49c1.49-.62,5,.41,6.15-.2s2.8-3.69,2.8-3.08c0,0,.93,9,1.68,12.8s0,9.85-.75,14.23a91.42,91.42,0,0,1-2.74,10.4c-.74,2.74-2.73,4.93-6,4.11l-2.54-.62c-1.17-.72-2.39-1.57-3.67-2.53-7.09-5.34-12.68-8.21-10.44-22.17s3.73-22.58,6-28.33.37-8.21,9.32-12.32a25.41,25.41,0,0,0,7.17-4.9c1.86-1.17,3.46-3.15,3.46-3.51a11.75,11.75,0,0,1,.85-2.14c.31-.58.46-.93.46-.93l0,0c.89-1.89,1.91-3.94,1.91-3.94a24.09,24.09,0,0,0,4.85,1.64c1.68.2,3.54-.82,1.87-1.23a7,7,0,0,0-3.17,0s-2.8-2.26-2.61-4.31,1.12-5.75.75-7.39,1.3-3.9,1.87-5.54,1.87-2.26,3.54-2.46a34.14,34.14,0,0,1,3.54-.2,8.25,8.25,0,0,0,5.6.41c3.36-.82,4.85.62,4.85.62s-.56-3.08-1.12-2.87-5.22,1.43-6.9,1.23-.19-2.46.37-3.7,4.85-2.67,7.09-3.08,4.47-3.28,3-2.46A29.46,29.46,0,0,1,577,75l-5.22,1.64-1.68,5.13-7.64,1.64a31.66,31.66,0,0,1,.37-5.14,50.75,50.75,0,0,0,.37-6.77l-1.31-8.41s.37-2.87.93-3.28,2.8-1.64,2.8-1.64l6.9-2.05-6,.62,1.12-3.9s5-3.28,6-3.69a14.78,14.78,0,0,1,3.73-.41l-3.92-1.64s-7.28,4.51-7.08,5.13-1.12,5.54-2.43,5.54S560,60,560,60s-1.87-5.13-1.87-6.57.56-6,1.12-6.78,1.87-4.1,1.3-5.34.37-4.11,1.12-4.52a44.74,44.74,0,0,0,3.54-2.87,30.54,30.54,0,0,0-4.1,1.44c-.56.41-4.47,2.05-2.61,4.72s-.56,6.77-.56,6.77-1.3,5.54-1.3,4.93-2.8-1.44-3.92-3.08a10.32,10.32,0,0,1-1.3-4.31l-.19-3.7s-1.87-2.67-3-2.87-3.36-2.26-3.36-2.26l-.93-7s-.56,8.21,0,8.42,4.66,1.85,4.85,3.9a24.24,24.24,0,0,0,1.12,4.72s-2.42-1-3.73-.62a9.67,9.67,0,0,0-3.92,2.46c-.56.82-1.68,2.05-.93,2.05s4.29-4.31,5.78-3.28,5.6,6.16,6.71,7.19,6,11.08,6,11.08.56,5.54.93,8.42-.56,12.73-.56,12.73l-3.36,5.13s.56,4.72.93,6.57-1.86,7.8-2.8,8.62-4.77,5.64-6,7.15a17.22,17.22,0,0,1-3.71,1.68c-5.59,1.64-8.2,4.52-8.58-2.46-.15-2.77-.23-5.53-.29-7.86a6.71,6.71,0,0,1,.48-1.58c.56-1,2.61-2.26,4.1-2.67a8,8,0,0,0,3-2.05,42,42,0,0,0-6.34,2.26c-1.87,1,0-5.54.37-8.21s.93-7,.93-7,2.24-2.46,3.54-2.46a26.6,26.6,0,0,0,6.71-1.64,14.12,14.12,0,0,1,3.73-.82s-2.05-2.46-2.8-1.64-3.36,1.85-5.22,2.05a18,18,0,0,0-4.47,1.44,72.38,72.38,0,0,1,3.92-6.77,20.79,20.79,0,0,1,4.29-4.31c1.3-1,2.61-3.9,3-4.93.25-.68-.32-3.84-.62-5.51a35.81,35.81,0,0,1-.12,4.69s-2.05,3.9-3,4.72-3.54,2.67-3.54,2.67-1.49-4.31-1.87-5.54a50.66,50.66,0,0,1-.56-6.36s-1.12,7-.37,7.18,1.49,3.9,1.12,5.75-2.61,4.31-4.1,7.18-3.73.2-4.47-1.23-1.87-4.93-1.31-6.16a10.51,10.51,0,0,0,.56-4.93c-.19-1.64-1.49-5.75-.37-6.36.75-.41,2.08-3.77,2.83-5.57-1.17,1.61-3.91,4.14-4.5,5-.75,1,0,5.13.74,7a3,3,0,0,1-.37,3.08l-4.47-1.85s-3.73.41-3,.62,5,1.23,6,2.67,0,5.34,1.49,6.57,4.85,7.39,4.85,7.39-.37,8-1.12,9.44a29,29,0,0,0-1.86,8.21l0,0a11.76,11.76,0,0,0,.16,4.69c1.49,6.16,3,7.8,1.12,14.37s-4.1,16.83-4.1,16.83a92.52,92.52,0,0,0-5.6-12.35,9.3,9.3,0,0,1,1.49-3c1.12-1.23,1.31-4.52.56-5.75a28.47,28.47,0,0,1-2.43-5.54c-.19-1-1.12-6.36-1.12-6.36s-.74,6.16-.19,7.39,2.8,6.16,2.61,7.39a21.38,21.38,0,0,1-1.68,4.1l.09.69c-1.45-2.39-3-4.44-4.56-5.41,0,0,.74,1.63,1.7,3.8-1.1.23-3.55.71-4.13.71-.74,0-3.54-2.05-4.1-2.26s-4.1,1.23-4.1,1.23a4,4,0,0,0,2.61-.2c1.12-.62,3.36,1,4.85,1.85s4.66,0,5.22-.2l0-.24c1.25,2.84,2.73,6.31,3.51,8.45a33.63,33.63,0,0,1,1.87,16.83c-1.12,6.57,1.12,12.32-4.85,6.57s-12.68-9.85-15.29-22.17-5.6-14-1.5-19.3S515,105.37,515,105.37c4.85-2.87,10.81-7,11.56-9.85s-1.12.41-4.85,2.88-7.83,4.1-7.83.82A86.11,86.11,0,0,0,513,88.13,37.81,37.81,0,0,1,512.81,76c.56-3.49.93-8.42.56-10.68s1.86-1,4.29-1,6-8,6-8.83,2.8-6,4.1-5.75,5-4.31,5-4.31-5.22,3.28-6.71,4.11-3.54,4.31-3.54,4.31-.93-2.67-1.12-3.28.19-4.52,1.12-4.72S520.45,43,520.45,43l.37,3.28-1.12,2.67a19.17,19.17,0,0,1,1.87,4.1,5.92,5.92,0,0,1-1.12,4.51c-1.12,1.23-2.61,3.49-4.85,3.29s-3.17-2.46-3.17-4.93.56-4.72-.75-6.36-.74-7-.74-7l-1.68-3.28.37,5.54a24.59,24.59,0,0,0,.56,5.34,23.28,23.28,0,0,1,.93,5.75c0,1.44.37,3.9.37,4.93s.37,4.51.37,5.34.56,3.49-.37,4.93-.93,3.69-1.12,6-1.49,3.29-3.17.41-3.73-7.19-4.29-8-.19-2.47,1.3-3.49,3-3.49,3-4.31.19-8.21.19-8.21a3.59,3.59,0,0,0-.94,2.67c0,1.85,0,4.93-.56,6.37s-2.8,2.46-3.36,2.05a22.55,22.55,0,0,1-4.66-5.13c-1.12-2.05-1.49-4.72-.19-4.72s4.48-1.44,4.85-2.26,2.8-1.85,2.8-1.85-.56.2-2.42,1-4.47,1.85-5,1.64-1.87,1-2.43,0a8.29,8.29,0,0,1-.93-4.93c.37-1.64-.37-7.18-.37-7.18a34.67,34.67,0,0,1,.37-5.54c.37-1.23-1.3,2.87-1.3,3.9v3.7s-1.68,1.64-2.43-.41-3.35-2.87-3.35-2.87a13.82,13.82,0,0,1,2.24,3.7c.37,1.44,3,.61,3,1.64,0,0,.19,9.24,1.87,12.11s4.66,8.21,4.66,8.21-2.8.62-5.22,1.23-6.53,0-6.71-2.87-3-6.57-3.54-6.78-6-2.46-6-2.46,5.6,3.28,6.71,5.34,2.05,6,2.43,7,0,.41-2,0-3.36,2.47-3.73,3.08,2.8-1.44,4.47-1,5,.82,6.53.2,5.22-1,6.34,0a23.12,23.12,0,0,1,5,7.8c1.12,3.29,3.54,5.34,5.6,7.8A21.94,21.94,0,0,1,511.94,91a29,29,0,0,1-.25,8.22c-1.12,4.52-2.61,8.62-5.59,11.5s-4.48,3.29-4.48,3.29A74.64,74.64,0,0,0,497,102.9c.49-1.08,1.82-4,2.42-5.13a9.69,9.69,0,0,0,1.12-3.87,28.83,28.83,0,0,0,4.29,0,15.61,15.61,0,0,0,2.43-2.47s-2.24,1.23-3,1a22.83,22.83,0,0,0-3.36-.21.57.57,0,0,0-.44.09,9,9,0,0,0-.31-1.52c-.93-3.08.37-8.83.37-9.44s-2.24,4.92-2.42,6.77.93,4.93.56,6-3,6.36-3,6.36a24.8,24.8,0,0,0-4.73-6.2l.26,0s.75-4.31,0-5.13a28.63,28.63,0,0,1-3-4.72c-.19-.62,1.31-6,1.31-6s-2.24,3.49-2.24,5.13,1.87,4.72,2,5.34a41.75,41.75,0,0,1,.33,4.21,11.4,11.4,0,0,0-2.94-1.75s6.34,5.75,8.58,12.32,6,18.06,6.34,25.87,4.48,15.6,6.34,17.66,2.24,3.28-2.24,3.28-6.71,3.28-11.19-2.05a43.72,43.72,0,0,0-10.07-8.62,73.36,73.36,0,0,1,6.71,7.8c3,4.11,5.22,7.81,9.7,7s8.58-3.28,14.55,3.28,8.95,13.55,13.05,18.06,11.94,10.68,14.92,18.06,0,20.12-3,26.69-8.21,11.08-13.8,4.1-15.29-11.91-15.66-20.12c-.08-1.88-.2-4-.42-6.26a41.55,41.55,0,0,0,4.53-3.8c1.31-1.43,6-3.08,7.09-2.26s6.53,2.47,6.53,2.47l4.29,4.52-3.36-5.13-2.8-1.64s2-3.08,3.54-3.08,4.47,1.43,4.47,1.43l2.61-1.23s-2.61.2-3.73-.41a33.23,33.23,0,0,0-5.41-1.43l-1.49,2.87a25.52,25.52,0,0,1-4.1-.61c-1.3-.41-3.91.41-5,.61a5.7,5.7,0,0,1-2.61-.41s-.37-3.7,1.87-4.31,5-5.75,5-5.75l-.37-8s-.56,6.37-.56,7-2.42,1.85-2.42,1.85l-1.68-3.29-3.54.41,2.23,1.23,2.05,2.67s-1.87,2.26-2.42,2.26-1.31,3.08-1.31,3.08-.18,2.67-1.3,3.9c-.88,1-1.89,3.09-2.73,2.52-1.17-6.54-3.74-13.68-9.77-19.56-9.7-9.45-19.77-20.94-19.77-20.94l-.84-.08-1.27-2.93,1.74-4.65-1.49-4.93,3.73-6.84-5,5.47a38.21,38.21,0,0,0-3.73-3.28c-1.24-.82,0-4.93,2.73-7.12s4.73-3.56,7.21-3.83,4.72-3.28,6-4.65,1.74-8.21,1.74-8.21a56.27,56.27,0,0,0-3,6c-.25,1.1-1.74,3.56-3,4.11s-5.72.82-5.72.82l-2.73-8.21,1.24,9a46.19,46.19,0,0,0-6.78,5c-.51-1.7-1.16-4.24-.93-5.66.37-2.26-1.49-4.93-1.49-4.93v6.77a22.61,22.61,0,0,0,1.45,5.4c-.38,2,.39,6.39,2.78,8.49s4.47,5.2,4,6.3-1,6.29-1,6.29-5.72-2.74-6.71-3-6.21-1.1-7.21-1.91-4.72-2.74-4.47-1.92,3.48,4.11,3.48,4.11,5.22.82,7.21,1.91c1.34.74,6.53,2.85,9.76,4.14,3.46,3.34,10.29,10,14.6,14.74,6,6.57,12.68,16,13.05,25s1.12,13.55-5.22,10.26c-5.82-3-20.42-10.88-27.1-19.45a27.75,27.75,0,0,1,.13-7.92s2-2.74,2.73-2.47,4.23-.82,5.47-1.37a24.25,24.25,0,0,1,5-.82L484,171.47s-4,1.64-5,2.19-5,0-5,0l-.25-4.38s3.23-3.56,4.47-4.65,5-1.91,5-1.91l-5.72.55-.93.7L472,167.37s0,6-.25,7.39a25,25,0,0,1-2.28,4.84c-4.94-8.06-10-15.38-11.89-17.16-2.24-2.05-3.36-9.85-3.36-14.78,0-3.75-.42-6.56.52-10.75L459,125.5c1.43-3.23,2.72-5.86,3.86-8.64a24.53,24.53,0,0,0,1.12-3.5,11.35,11.35,0,0,0,1.37-1.84c.75-1.37,3.24-5.2,4.23-5.2H476l4.48-6.57,4.72-3s-6,.82-6,1.92-3.73,4.65-5.72,5.2S469,103,469,103l1-6-2.74,6.84-2.48-2.46s-2.24-5.2-2-8.48,2-3.83,3.73-4.38,5-3.56,6-4.93,3.73-6.29,3.73-6.29-4.72,3.56-5.47,5.75-3.48,3.83-5.22,4.1-4,2.47-4,2.47a24.69,24.69,0,0,0-3.73-4.38c-1.49-1.1.25-4.11,2.24-5.47s4.23-5.2,6.22-6.84,4.47-5.75,5.47-7.12-2.48-5.2-2.48-5.2l1,5.2s-2.74,4.38-5,5.75a11.08,11.08,0,0,0-3.48,3.56s-.25-6-.25-8.21-1.24-10.13-1.24-10.13l-.5,9,.5,10.13-6.22,8.48,4.73,5.47s1.74,5.2,1.49,6.84.49,4.65,1.74,5.75,1.74,4.11,1.24,5.75a38,38,0,0,0-.78,4.86c-1.5,3.94-3.32,8.43-4.49,10.21-.79,1-1.57,2-2.18,2.72-2,2.19-1.24-3-1.74-5.75s-1.24-6.29-1-7.39,4.23-6.84,4.23-6.84l-5.72,5.2s-1.25-2.74-.75-4.38.75-10.13.75-10.13l-3-6.3-2.24-14,.25,14.78s5,5.2,3.73,9-1.49,11.49.25,13.14,3,8.48,3.23,12.59-2.49,8.48-2.49,8.48l-5-9.58-6.71-11.22,3-7.12-4.23,6s-5.47-4.93-5.47-6,1.24-7.94,2.48-9.85A57.2,57.2,0,0,0,440,88c.75-2.19-1-9-.75-7.39s-1.24,6-1.24,6.84-4,6.84-4,6.84-4-4.38-4.72-6.29S429,77,429,77s-1.74,11-1.49,11.77,5,7.12,5,7.12-3.48,8.21-1.24,11.5,8.21,11.77,8.21,11.77L430,117.55s-3-3.29-4.72-4.11-8-6.3-8.7-7.12a36.24,36.24,0,0,1-3.73-9c-.25-1.91-6.71-5.75-6.71-5.75l5,6.84s1.08,3.45,2.31,6.29h-3.31c-2.24,0-4.22,2.46-5.22,1.64s-5,0-8.95-.27-8.45,4.92-8.45,4.92l5.22-3s7.71-1.64,9.69,0c1.75,1.45,10-.71,12-1.25a4.56,4.56,0,0,0,1.17,1.52c1.74,1.09,12.18,9.58,12.18,9.58s-4.72-.55-6-.82-5.47-1.09-7,.55-6.22,4.1-8.46,3-11.19,1.64-11.19,1.64,9.2-.55,10.69.82,7.46-2.19,10.19-4.11,13.18,1.37,13.18,1.37l12.56,1.3c2.76,5,6.64,12.45,7.57,15.8a114.45,114.45,0,0,1,3,16.83c0,1.64.37,3.28-6-.82s-8.21-1.23-13.8-10.68-12.31-13.55-12.31-13.55,6.34,5.34,7.83,10.26a21.34,21.34,0,0,0,2.09,4.48,23.42,23.42,0,0,0-5.2.17c-3.23.55-6.71,2.19-8.45,2.19s-6.71-1.37-10.44-4.1-11.44,1.91-11.44,1.91l7.71-.55s9.7,1.64,11.69,3.83c1.8,2,15.18-.52,17.73-1,2.49,3.54,5.75,7,8.62,8.68,4.85,2.87,11.19,4.11,16,13.14s7.46,13.14,9.32,16,.75,4.1-6.34,4.1-20.51,4.93-26.1,2.46c-4-1.74-9.41-4.51-13.72-6.71.24-1.46,1-5.45,2.4-7.66a18.72,18.72,0,0,1,4.47-4.65,61.62,61.62,0,0,1-1.24-8.21,9.67,9.67,0,0,1,1.74-6.3l-3.48,1.37s-.5,8.21.25,9.58-2.24,6.57-3.48,7.39a7.9,7.9,0,0,0-1.37,1.51c-.84-.92-2.85-3.27-2.85-4.79,0-1.91-4-6.57-7.71-9,0,0,4,3.56,4.47,6.84s4.19,9.51,4.22,9.57c-.6.89-1.15,1.73-1.52,2.3l-.47-.23c-4.1-2.05-10.81-10.68-15.66-10.68l-1.41,0-3.57-2.36s-4-7.66-4.48-9.3-8-1.64-9.69-2.19-5.47-7.67-4.72-5.75,2.24,6.57,2.24,6.57l9.45,2.46,5.2,10.9c-4.68.36-9.42.87-9.42.87s12.31,1.23,15.66,1.64,13.05,7.39,16.41,11.09,11.56,7,14.55,8.21,0,4.1-7.83,5.34c-1.2.19-2.47.33-3.77.45-1.57-.75-5.2-2.48-7.67-3.74-3.24-1.64-5.47-7.12-6.22-7.94s1.24,6.29,1.24,6.29l4.72,3.83,3.57,1.85c-5.88.29-12.06.2-17.09.47a58,58,0,0,1-5.38-5.33c-1.74-2.19-7.21-3.83-7.21-3.83L376.55,180,382,192l7,2.74,3.8,5.71c-6.09,1.7-11.75,5.92-16.1,3.87-2.31-1.09-5.72-2.75-8.84-4.14l-3.22-10.36-7.71-7.39,6.22,8.21,2.24,8.21,2.17,1.2c-3.79-1.69-7.07-3-7.27-2.29s4.08,3.22,8.45,5.29l-2.6,2.65-7.46,1.1-6.71,3.56,8.7-2.19,7-.27,3.05-4a32.62,32.62,0,0,0,5.65,2c3.68.73,10-.51,15.35-2l-2.92,5.51-8.95,1.92-6.47,4.65-7,5.47,8.95-3.56,6.21-4.65,9.95-2.47L394,206l1.38-2.84c4.38-.67,12-.58,18.43-.9-.29,1.31-1.38,5.94-2.66,7.58-1.49,1.92-2.24,7.66-2.24,7.66s3.73-7.39,5.47-9.58a16.1,16.1,0,0,0,2.34-5.85,29.56,29.56,0,0,0,6.24-1c6.34-2.05,19.39-6.57,25.73-7.8s17.53-2.87,28.34,3.69,21.26,13.55,21.26,13.55-16.41-2.05-20.14.82-15.66,10.26-22,7.8a30.13,30.13,0,0,0-7.09-1.19l-5.14-5.11.48-.06a21.4,21.4,0,0,1,1.49-3.7,9.9,9.9,0,0,0,.74-5.13c-.19-1.23,1.68-3.9,1.68-3.9s-3,2.67-2.8,4.31,0,4.11-.75,5.13a30.2,30.2,0,0,0-1.58,2.62l-1.47-1.46-7.21-4.38-1-4.11-.74,4.66,7,4.92,4.42,5.89c-10.88-.51-24.56-.14-24.56-.14s18.58.74,29,2l-2.67,4-6.22,4.1,8.7-3.56,4.27-3.92a11.62,11.62,0,0,1,2.32.63c3.41,1.57,9.43,1,14.41-.85l-4.84,5.77-7.46,5.48-2.74,4.11,3.73-2.74,8.21-5.47,10.56-10.6c6-1.87,15.42-1.63,24.37,1.43,10.82,3.7,20.14,18.48,23.12,30.38s4.85,26.69,4.47,31.21-.74,12.73-10.81,8.62-16-14.78-20.14-19.71l-.1-.13a9.14,9.14,0,0,1,.1-2.88c.5-2.19,1.49-8.49,2.24-12,0,0,1.49-3.84,2.42-5.68s1.3-4.11,2.8-4.31,3.73-.2,5-.82,4.47-2.26,4.47-2.26-3.54-.62-5.22,1.23-4.11.21-5,.41.19-2.47.19-4.52,1.87-7.39,1.87-7.39-3.17,4.52-3,7.19-.37,5.54-1.68,6.57-2.47,4.25-2.74,5c-1.15-2.48-3.09-5.19-4.59-8-2.49-4.65-2.73-12-2.73-12s-1.74,7.66,1,12,5.72,9.85,5.22,12.86-2.24,11.77-2.24,11.77a4.92,4.92,0,0,0,.05.53c-4-5.33-9.27-13.31-13.72-16.82-5.22-4.1-10.07-14.78-10.07-14.78S474.39,245,476.63,247c0,0-6.83-1.64-9.32-1.64s-6.71-.27-8.21-2.19-8-3.56-8-3.56,6.71,3.83,8,5.47,6.47,2.47,8.71,2.47c1.78,0,9.53,2.42,12.63,3.41,3.91,4.27,9.41,10.68,11.49,14.1a54.76,54.76,0,0,0,5.59,7.8s-7.83-6.16-11.19-6.57-13.05-7.39-13.05-7.39l7.09,7s3.41,1.81,6.74,3.55a11.61,11.61,0,0,0-1,2.61,4,4,0,0,1-2.05,2.87,48.69,48.69,0,0,1-4.85,1.23l-2.42,3.49,2.61-2.26s5.41-1.65,6.9-2.26c1.12-.46,1.92-3.44,2.25-4.92,2,1,3.8,2,4.46,2.25,1.86.82,6.71,4.52,8.58,7.39s8.58,9,4.1,9.44-20.51-2.05-28-5.75-19.39-27.1-24.24-30.38a135.57,135.57,0,0,0-17.64-9.9l-1.39-9.39L427.28,229l-2-4.11.25,4.65,6,4.93,1.15,7.57a13.24,13.24,0,0,0-3-.73c-4.38-.34-20-5.59-25-7.28l-3.51-2.57-4.73-2.74-3.73-6.29-5.47-.27,4.47,1.64s2.48,7.39,4.47,7.94a44.13,44.13,0,0,1,5.77,2.53,78.51,78.51,0,0,1-16.56,7.83l.84-.51L381.53,235l-11.19-1.92,9.45,3.83,4,5.64a21.77,21.77,0,0,1-7.81.79s7,1.31,16.66-2l-2.12,10.88,4-11.49h-.19a47.73,47.73,0,0,0,5.91-2.74s4.1-3.28,11.56.82,17.53,6.16,21.63,7.8,9.32,5.75,9.32,5.75-11.19,6.16-14.92,9.44-14.55,12.73-23.87,9.44-28-7.8-32.82-8.21a5,5,0,0,0-1.38.11c-1.84-1.13-5-3.05-6.58-3.81-2.24-1.1-5.47-4.11-5.72-5.47a22.14,22.14,0,0,0-2.49-7.39,32,32,0,0,1-2.74-6.84l-.5,4.93s3.48,5.75,3.48,8.21a6.09,6.09,0,0,0,.74,2.5l-6.46,1.33L345,254.14l3,4.65,9.34-1.28a12.42,12.42,0,0,0,2.85,2.93c1.28.81,4.87,2.81,6.67,3.81-4.28,2.27-9.12,7-12.14,8.24-4.1,1.64-12.31,4.11-12.31,4.11s7.55.23,13.21-1.73l-.4,4.47-2.24,6.57-3.73,4.1-2.74,6.57,4.48-6.3s4.72-4.11,5.22-6.57c.37-1.8,1.53-7.28,2.13-10.08a8.45,8.45,0,0,0,2-1.56c4.47-4.93,11.94-6.16,19-4.51s21.26,6.16,21.26,6.16a67.41,67.41,0,0,1-8.7,6.88c-2.07-.2-6.46-.72-8.33-1.54a15.73,15.73,0,0,0-9.7-.82c-4,.82-7.71-1.64-7.71-1.64s2.49,3.28,5,3.28,7-1.09,8.7.27,8.45,2.19,8.45,2.19c-4.47,1.23-16.78,9.44-16.78,9.44s16.78-7,20.14-8.62,9.32-7,12.68-7c2.26,0,9.21-2.41,13.55-4a9.36,9.36,0,0,0,.75,3.3,30.54,30.54,0,0,1,2.48,9.85c.25,3.83-3.48,10.13-4.72,13.68a16.41,16.41,0,0,0-1,6.3s4-10.68,6-14.23a13.92,13.92,0,0,0,1.42-7.06.72.72,0,0,0,.38-.06c1.49-.62,2.42.2,4.1,1a25,25,0,0,1,2.61,1.44,25,25,0,0,0,1.31,5.54c.93,2.26.19,2.46,0,3.28a15.84,15.84,0,0,1-.91,2.24,7.82,7.82,0,0,1,2.4-3.07c1.49-.82-1.12-7-1.12-7s3.17-.82,3.92-.41,3.54.41,4.66,2.26,5.22,2.26,7.46,2.67,4.66,3.9,4.66,3.9-.37-3.7-1.68-4.31-5.78-1.23-6.9-2.06-3.17-2.26-1.68-2.26,4.66-2.05,5.78-2.05,5.22.2,5.22.2l-5.22-1.85s-5.6,2.46-6.53,2.67-6-.82-6.52-1.64-3.54-1.64-5.41-1.64-6.21-1.6-6.82-1.82c0-.25-.09-.51-.14-.71-.5-2.19-1.25-9.31-.87-9.58,4.85-3.28,15.66-10.26,18.28-11.9s8.21-4.93,11.56,0,11.56,20.12,14.55,22.58,4.85,7-1.87,11.09S450.9,306.14,445.3,307s-22.38,5.74-29.09,5.34-12.68-.41-17.15-4.51-20.88-7-28-5.75-14.55,2.87-14.55,2.87,13.43-.82,19-1.23c0,0-9.2,11.5-12.18,13.14s-11.44,4.1-11.44,4.1,8.95-1.37,12.43-3.56a38.44,38.44,0,0,0,10.2-9.58,16.82,16.82,0,0,1,3.85-4c6.33.82,16.33,4.67,19.52,6.43,3.73,2.05,2.61,4.11-1.49,7.39a28,28,0,0,0-2.84,2.74c-.82,0-6.81.27-9.59.27-3,0-8.45-.55-8.45-.55s4.47,2.19,8,1.64c2.45-.38,5.75.85,7.49,1.62-3.25,3.92-6.65,8.55-8.74,11.11a33.79,33.79,0,0,0-4.84,7.8s8.2-8.21,12.31-14,11.94-12.73,16.78-13.55,16.78,1.64,22.38.82,10.82-3.69,13.8-4.1-3,9.44-4.85,14.78c-.27.78-.54,1.65-.79,2.55-3.14,3.17-8.41,8.57-9.78,10.45-2,2.74-10.2,8.76-13.18,8.76s-8,6.3-8,6.3,7.46-5.2,10.2-5.75a18.29,18.29,0,0,0,4.83-2.5,30,30,0,0,0-.36,4.41,25.57,25.57,0,0,1-1,8.48c-1,3-2.74,7.67-2.74,7.67s4.47-6.84,5.47-10.13c.8-2.65.8-9.36.76-11.88,1.81-1.27,3.21-2.35,3.21-2.35s6-5.75,6.71-6.57c.37-.42,1.64-1.67,2.8-2.8a133.82,133.82,0,0,0-2.3,15.12c-.74,7.8-1.49,15.19-4.1,21.35s-4.1,16.42-4.1,16.42,6.71-17.24,7.46-19.29c.07-.2.17-.53.28-.93a8.64,8.64,0,0,0,2.46.79c2,.27,6.71,3,6.71,3s3.48,7.39,3.73,6.57-2.24-7.94-4-9.31c-1.36-1.07-6.22-3-8.27-3.75,1.15-5.09,2.8-13.88,2.8-18.14,0-5.46,3.36-16.46,6.89-23.53,1.43,1,6.18,4.16,8.28,6,2.49,2.19,1.74,6.84,2.49,8.48s5.72,2.46,5.72,2.46-4-2.46-3.73-4.38-1.24-5.75-3-7.94-9.2-5.75-9.2-5.75c3.73-7,8.21-10.68,14.92-16.42s10.82-9.44,14.92-10.26c0,0,34.69,2.05,51.84,23.4a294.14,294.14,0,0,1,20.67,28.7c1.82,5,1,5.61-1.9,4.69-3.48-1.09-9.44,1.1-12.93,2.74s-19.89,3.83-24.37,4.93-7.46-4.38-8-9.31a4.68,4.68,0,0,0-.71-2c.31-.69,3.69-8.25,5.45-9.38,1.31-.29,4.28-.93,5.15-1.09,1.12-.21,5.59-2.26,6.15-3.9s4.85,0,5.41-.21,3.54,3.9,3.54,3.9a38.09,38.09,0,0,0-1.86-4.72c-.56-.82-3.36-1.23-3.91-1.23s-3.54.41-3.54.41l-.75-3.28,1.87-3.69-1.49-4.93a32.07,32.07,0,0,1,.19,4.72c-.19,1-1.68,3.07-1.87,3.9a6.34,6.34,0,0,0,.37,3.08c.37,1.23-2.24,3.08-3.73,3.49a27.57,27.57,0,0,1-4.73.39c-.33-2.8-1.59-6.57-2.54-7.09-1.49-.82-4.48-9.85-4.48-9.85l-.5-9.31s-.75,9-.5,10.13,1.49,4.65,1.49,4.65l-4-.27s-4.47-1.09-4.72-4.1-4.47-6.57-4.47-6.57l-7-3.56s4.47,3.83,6,4.93,3.48,5.47,4.48,7.39,4.23,3.83,5.72,3.83,4.23,1.92,5.22,3.28,2.24,4.93,1,6.57-4,6-3.73,6.84c.14.47-.78,1.66-1.6,2.6a38.52,38.52,0,0,0-9.34-3.69c-1.49-.41-4.17-1.21-6.94-2l-1.26-7.54s-4.22-6.3-7.21-6.57-8.71-4.65-8.71-4.65l-1.74-5.2s.75,7.39,2.24,8.21,7.71,3,9.45,4.1,2.74,3.83,3.48,5.47-2.48,3-3.23,3a27,27,0,0,1-6-1.64c-2-.82-4.47-1.64-4.47-1.64s5.72,4.11,7.21,4.65,4.71,3.21,5.35,3.74l.11.1a40.45,40.45,0,0,0-.25,6c.25,1.09-4,1.37-5.72,1.92s-7,1.37-7,1.37,6.72.82,7.71.82,6.46-3,6.46-3,2.74,2.19,3.73,2.74,1.49,4.93,1.49,4.93l1-4.38-2.24-2.74-3-3.28,1.42-1.69a7.54,7.54,0,0,0,3.55,1.14c5,0,13.42,4.38,13.42,4.38s2.49,11.5,0,12-13.42,1.64-16.41,4.93-10.94,8.76-13.92,8.76-12.44-2.19-12.44-2.19L464,378.63c-.07,1.67-.18,4.19-.18,5.24,0,1.64-6.21,3-7.21,3.28a26.93,26.93,0,0,0-3.73,1.92s5.22-1.1,6.71-1.37,7-.82,7-.82l.94-10.13c3.91-2.28,10-6.13,12-9,3-4.38,19.89-3.83,25.86-2.74s16.41-4.38,20.39-4.38-4,7.66-7.46,10.4c-2.5,2-7.84,3.1-12.31,5.61l.13-.14s-6.22-2.19-7-2.74-6.71-3.83-7-4.93-5.72,3-7.21,4.38a85.33,85.33,0,0,1-7.21,4.92l3.23,6,.25-4.65,5-5.2s4.73-2.19,6.47-1.64,7,4.65,7.71,4.38c.5-.18.67,2.11.72,3.64-4.44,5.6-10.17,16.62-10.17,16.62s3.36-4.36,7.43-8.93l.52,3.46-.75,4.65s3.23-3.83,3-5.75a21.55,21.55,0,0,0-1.17-4.11c3.82-4.13,7.94-8,10.37-8.48,2.65-.53,6.8-3,11.06-6.11,1,1.19,3.5,4.36,4.11,5,.74.82,0,7.66,0,9s2.24,6.29,2.24,6.29-.75-4.93-.5-6.57c.13-.89.12-3.79.08-6.26,1.15,1.82,3.43,5.25,4.52,5.85,1.49.82,1.87,7.8,1.87,9.44s6.71,11.5,6.71,11.5-3.73-7-4.1-9.45-.75-7.8-1.12-10.26-3.36-4.93-4.48-7a16.36,16.36,0,0,0-3.48-4l-4.06-5a85.92,85.92,0,0,0,10.53-9.51c5.61-6.17,14.48-.26,21.4,8.21,7.59,17,12.92,32.29,12.44,53.28-1.12,48.45-2.33,117.29-4.82,145.21-.18,2-4.37,22.83-6.72,27.58-10.16,20.48-28.47,31.46-52.85,28.07a96.88,96.88,0,0,0-35.57,2.07A134.69,134.69,0,0,0,409.84,655c-7.26,6.24-13.77,13.09-18.62,21.3A120.3,120.3,0,0,1,420.72,651a128.37,128.37,0,0,1,36-15.53c2.06,8.24-.75,14.6-8.47,17.79-8,3.32-14.43,8.17-18.85,15.37a9.09,9.09,0,0,0-1.21,2.93c4.93-6.32,10-12.36,18.76-15.19V667l.31.19c.52-2,1.49-4.11,1.45-6.14-.07-3.25.7-5.33,3.94-7.16,6.36-3.6,8.51-9.67,8.18-16.44-.13-2.67.75-3.53,3.39-3.76,6.43-.56,12.83-1.35,19.25-2a15.15,15.15,0,0,1,2.6.09c-3.6,4.68-8.26,8.93-10.51,14.14-2.58,6-3.32,12.75-4.28,19.25-.72,4.87-3,8.21-7.76,9.82a12.53,12.53,0,0,1-5.45.22c-5.81-.77-11.18.17-16,3.58a39,39,0,0,1,4.92-1.31c2.68-.37,5.52-1.06,8.07-.56,4.42.86,8.67,2.11,13.17-.44-8.21,21.42-23.21,36.46-44.52,45.9,10-.65,28-11,38.13-21.78,10.37-11,17.46-23.45,19.12-38.68,4.46,6.71,4.33,11.39-.53,17.18-7.13,8.49-9.27,18.09-7.05,28.67a65.64,65.64,0,0,1,.06-7.37,24.55,24.55,0,0,1,1.71-7.58c1.78-3.82,3.69-7.76,6.42-11,6-7,7.63-13.51,2.76-21.19-2.94-4.63-1.77-8.13.73-11.65,6.8-9.6,16.41-14.44,28.66-14.3,2.33,0,4.65,0,7.69,0l-3.76,5.26.65.66c1.48-1.46,2.92-3,4.47-4.36,1-.9,2.12-2.15,3.34-2.34,10.33-1.58,19.25-5.95,27.37-12,.36-.27.73-.51,1.28-.88-.23,2.51-.51,4.73-.63,7-.16,3-3,2.31-4.7,3.06-6.07,2.61-12.53,4.57-18.18,7.82-11.06,6.35-16.83,16.45-19.44,28.24-.48,2.15-1.23,2.88-3.48,3.18a15.48,15.48,0,0,0-9.89,5.34l11.83-4,1,1.51c-7,31.66-28.66,51.53-58.31,65.37,1.51-.4,3.05-.74,4.54-1.22,1.65-.53,3.27-1.13,4.87-1.78s3.18-1.34,4.72-2.11c19.2-9.58,35.12-22.6,45.06-41.21,3.5-6.55,5.62-13.85,7.68-21,1.74-6,4-11.58,8.23-16.46,4,4.89,6.93,9.93,5.52,16.31,2.49-4.78,1.55-9.39-.86-13.76-2.25-4.1-2.26-5.41,1.58-7.93a46.66,46.66,0,0,1,19.9-7.19c1.7,2.09.74,3.12-1,4.35-7.38,5.07-10.27,12.21-8,19.64.61,2,1.68,4,2.2,6,2.1,8.28-.1,15.89-3.72,23.52.55-.69,1.14-1.35,1.64-2.07,5.9-8.53,8.25-17.59,4.77-27.63-1.77-5.12,1-10.23,6.67-13.38,2.81,4.5,5.45,9.1,8.49,13.45,1.83,2.61,3.31,4.74.57,7.66-.72.77-.3,2.5-.42,3.78-.32,3.63-.65,7.26-.94,10.46,2.23-2.12,3.31-5.38,3.42-9.23.06-2.06,1-4.1,1.63-6.63,3.48,2.47,6,4.42,8.75,6.17,3.76,2.42,4.42,6.18,1.56,10.06-7.31,9.93-17.59,15.74-29.88,17.34-26.95,3.49-49.12,15.34-68,33.4a123,123,0,0,0-28,39.66,41,41,0,0,0-2.58,8.34,123.21,123.21,0,0,1,19.26-28.42A134.26,134.26,0,0,1,497,736c1.94,4.15.85,7.84-.8,11.53a11.23,11.23,0,0,0,3.67-10.2c-.3-2.17.4-3.42,2.4-4.56a111.56,111.56,0,0,1,38.89-13.51,15.89,15.89,0,0,1,2.61-.1,4.38,4.38,0,0,1,1,.27c-.29,8-5.87,14-13.65,14.72-11.89,1.11-21.16,6.35-27.32,14.69,3.85-2.58,8.74-6.4,14.18-9.28a27.45,27.45,0,0,1,11.35-3c7.36-.3,12.93-2.85,16.63-9a2.31,2.31,0,0,1,1.77-1L544.85,734c3.52-3.45,5.15-6.77,4.79-10.76-.29-3.25.57-5,4.39-4.7a9.2,9.2,0,0,0,3.29-.56c2.84-.85,5.21-1.08,7.22,1.87.83,1.22,3.14,1.75,4.89,2.13,7.89,1.76,9.32,3.47,10.43,11,2.5,17,5.35,33.95,7.82,50.95a8.92,8.92,0,0,1-1.55,6.08c-5.71,7.6-7.3,16-6.14,25,3.61-18.26,4.35-20.28,8.78-24l17.1,51,1.51-.38c-5.52-18.55-8.66-37.47-10.82-56.78,7,1.84,12.25,7.77,11.37,15.07-1,8.41,1.57,15.89,6.47,22.76.6.84,1.31,1.61,2.61,3.2-2.07-4.43-4.19-7.79-5.21-11.43-1.1-3.92-2-8.19-1.56-12.16,1.09-9.71-2.29-16.61-11.71-20.72-.92-.4-2.17-1.29-2.25-2.05-.69-6.7-1.14-13.41-1.67-20.15,8.06,0,14.46,5.5,15.07,12.86.79,9.54,5.83,16.77,13.47,22.62-1.76-2.13-4-4-5.19-6.42-2.22-4.41-5.25-9-5.43-13.68-.48-11.85-7.53-17-18.44-19.89l2.39-42.49a22.56,22.56,0,0,0,14.66,4.85,3.42,3.42,0,0,1,2.51,1.05c2.64,3.92,5,8,7.62,12,4.14,6.29,5.23,13.19,4.74,20.43,0,.71-.06,1.42,0,2.13a4.6,4.6,0,0,0,.44,1c3.73-13.57-2.51-24.28-10.63-35.25,6.63.87,10.27,3.13,12,8.08,3,8.48,7.13,16.7,9.2,25.36,2.25,9.39,2.69,19.18,3.9,28.79a9.75,9.75,0,0,0,.25,2.08c2.73-17.92,0-35.27-6.2-52.8l2.12,1.24L629,717a11.4,11.4,0,0,1,10.33,7.77c1.5,4.49,2.47,9.18,4.4,13.49,1.36,3,3.93,5.57,6,8.33l.86-.55a29.89,29.89,0,0,1-3-4.56c-1.65-3.89-3.73-7.79-4.35-11.87-1.33-8.81-5.76-14.63-14.85-17.15A5.51,5.51,0,0,1,625.5,710a100.91,100.91,0,0,0-19-23.41c-1.74-1.56-2.32-2.78-1.31-5.1,9.48-21.63,10.61-44.09,7-67-.19-1.17-.25-2.36-.43-3.53s-.44-2.28-.71-3.63c3.48,4,6.85,7.74,10,11.64a6.64,6.64,0,0,1,1.07,3.64c.74,12.22,3.6,23.85,10.21,34.48a12.82,12.82,0,0,0,1.16,1.8c2.33,2.63,3.22,5,1.89,8.84-2.18,6.32.5,12.2,5.24,16.86,7.91,7.77,12.82,16.77,13.2,27.69.11,3.26-.49,6.54-.55,9.84,2.33-5.55,2.21-11.38,1.49-17.15-1-8-4.66-14.85-10.11-20.94-3.1-3.47-5.62-7.29-5.3-12.14a25.28,25.28,0,0,1,.76-3.73c5.8,3.54,11.42,6.9,16.91,10.42a3.88,3.88,0,0,1,1.11,2.71c.73,8.49,3.21,16.28,10,22.83-4.11,2.84-4.4,6.65-3.9,11,.29,2.62-1,5.4-1.59,8.07,2.87-2.61,3.84-6,3.86-9.9a8.05,8.05,0,0,1,1.39-4.55c1.22-1.63,2.69-2.35,5.26-.89,4.42,2.52,9.33,4.28,14.1,6.23,12.36,5,21.43,13.65,27.9,24.57,3.91,6.6,6.59,13.87,9.75,20.68-1.08-4.33-1.77-9.16-3.5-13.61-4.89-12.62-12.2-23.79-23.88-31.74A89,89,0,0,0,683,706.21c-9.89-4.32-16.1-13.65-14.95-24.06,47.55,9,75.66,38.07,92.54,80.08a78.82,78.82,0,0,0-9-25.25c-4.21-7.56-8.88-14.89-13.29-22.21,6.19-1,12.39,2.85,15.08,9.36,3.59,8.7,10.47,14.21,18.45,17.8-3.93-3.66-8.53-7.47-12.48-11.83-2-2.22-2.91-5.38-4.2-8.17-3.48-7.48-10-10.32-18.05-11.18a9.28,9.28,0,0,1-4.83-2.3c-6.36-5.73-12.54-11.63-19.49-18.14l10.82-4.57,0-.28c-3.14,1-6.49,1.57-9.37,3-2.31,1.16-3.8,1.26-6-.19-10.15-6.8-21.38-11.32-33.35-14.46-17.58-4.61-29.5-15-34.12-32.19-.78-2.91-1.4-5.86-2.16-9.11,4.11,1.24,7.57,2.07,10.83,3.38,1.15.46,2,2,2.59,3.23,5.63,12.1,14.07,21.45,27.85,25.19,4.1,1.11,8.57,1.13,12.88,1.38,2,.11,3.45.18,4.7,2,.78,1.14,2.51,1.81,3.95,2.38,3.88,1.55,7.84,2.93,11.17,4.15-1.87-4.74-8.61-5-13.46-8.23,14.19-4.77,48.44,4.18,66.84,29-4.63-9.31-11.76-16.7-20.15-23-14.63-10.94-31.07-16.83-50-16.21-13,.43-21.75-5.82-26.93-17.18,9.9-1.78,19.66-3.74,29.5-5.11,1.66-.23,4.26,1.63,5.47,3.2,3.55,4.61,7.78,8.11,13.64,9.71-5.78-3-10.63-6.92-13.79-13.76,7.7.52,14.82.89,21.91,1.54,2.95.27,5.82,1.21,8.76,1.71,4.75.81,7.74,3.17,8.79,7.86a56.42,56.42,0,0,0,3.4,11.17,29.55,29.55,0,0,0,11.8,12.71c-9.12-7.37-12.72-17.14-13.47-28.61,20.37,6.74,38.17,17.2,53.2,32.28-1.13-1.49-2.21-3-3.39-4.47a57.61,57.61,0,0,0-4-4.67,135.58,135.58,0,0,0-61.44-35.51,114.27,114.27,0,0,0-50.5-2.28,45.34,45.34,0,0,1-46.37-21c-3.44-5.55-12-31.47-12.41-31.47,0-2.85-.08-6.09-.19-9.84-.84-28.51-4.57-80.3-2.58-136.69,1.11-8.67,2.26-31.59,24.49-37.26,6.24-1.59,16.39-4.81,23.27-3,2.57.67,7.56,2.1,12.81,3.62-.37,3-1,10.29,1.67,12.24,3.36,2.46,6.71,14,6.71,14l-5.59,3.28,7.83-2.87-2.61-8.62c-.37-1.23,1.12-2.46,2.61-1.23s6,6.57,6,6.57l-3.73-7.8L687,402.21h-2.61l-4.48-4.93L682,390c7.42,2.17,14.23,4.18,14.23,4.18h5.27c.71,1.1,1.63,8.39,2.75,8.63s3.73,7.66,3.73,7.66l-2.49,6.29,4.23-6.29s-1.49-4.11-2.24-5.75,2.74-2.46,2.74-2.46,4.14,1,5.71,2.21c-.7-1-1.73-2.48-1.73-2.48a20.12,20.12,0,0,0-3.73-1.37c-.74,0-4.72.82-4.72.82s-1.49-4.38-1.24-6a2.75,2.75,0,0,0-.16-1.24h9.88a53.87,53.87,0,0,0-9.28-2.77c2-.83,10.61-4.34,12.25-4.34,1.87,0,8.58,2.47,10.44,3.69s6,4.11,6,5.34.37,7.39.37,7.39l8.58,2.87s-5.59-3.28-6-4.92,0-6.57,0-6.57l7.46,3.28,11.56-.41,5.59,5.34-4.1-8.62s-10.44,3.28-12.68,2.05-12.31-7-14.55-8.21-12.68-5.75-14.17-4.52a6,6,0,0,1-1.06.58l1.06-.58a6.57,6.57,0,0,1,5.59-4.93c4.85-.82,7.83-5.74,7.83-5.74s-11.19,2.87-12.68,3.7c-1.23.68-4.47,6.91-5.58,9.09-4.87,1.83-11.57,4-11.57,4s-.23-.23-.84.4c-5.16-1.56-12.49-4.87-16.49-5.78-5.29-1.2-13.75-4.21-13.75-4.21s-12.16-3.6.53-10.81A143.62,143.62,0,0,1,692,359.37c2.49,2.81,7.62,8.76,7.62,10,0,1.64,10.07-.82,10.07-.82h8.58s-7.09-2.87-8.58-2.05-8.21.82-8.21.82l-4.47-7a6.64,6.64,0,0,0-1.79-2c5.56-1.59,10.59-2.38,13.67-1.51,4,1.15,9.16-.45,13.42-2.43,1.44,1.41,4.79,4.69,6.52,6.17,2.24,1.91,8.21-.28,9.45.27s5-1.37,5-1.37a27.47,27.47,0,0,0-7,0c-2.48.55-6.21,1.64-7.71-.82a34.08,34.08,0,0,0-4.37-5.19,56,56,0,0,0,6.36-3.85s-9,1.8-14.28,3a30,30,0,0,1-4.6.5c.1-1.45.23-3.37.23-4.33,0-1.64,3.73-3.7,3.73-4.93s-1.87-8.21-1.87-8.21,0,7.39-2.24,9.44c-1.87,1.71-2.18,6.56-2.23,8.12-6.55.2-15.06.14-19.48,1.81-1.82.69-4.08,1.63-6.53,2.67l-.48-4s0-5.34,1.49-7.8a10.71,10.71,0,0,1,4.1-3.7l9.32.41s-10.44-2.05-8.21-4.52,6-6.57,7.09-8.21,7.08-3.7,8.95-4.52,3-4.93,4.47-7.8,4.47-9.44,4.47-9.44-6,5.75-6.34,8.21-2.61,6.57-6.71,6.57a7.58,7.58,0,0,0-6,2.46s-.37-5.75-.37-7.8,3-10.67,3-10.67-5.59,11.49-4.85,14.78.37,6.16-1.87,8.21a29.63,29.63,0,0,0-4.1,4.93,40.8,40.8,0,0,1-1.12-4.93c-.37-2.47-3.36-6.57-6-8.21a18.48,18.48,0,0,0-6.71-2.05s7.46,4.51,8.58,6.16,4.1,7,3.73,10.27S678.77,348,678.77,348l.25,4.1-.62-2.05s-8.21-2.87-9.7-6.16-4.48-8.62-7.83-7.8-10.82,5.34-10.82,5.34,9-1.23,10.82-1.64,4.48,3.7,6,5.34-2.24,4.11-5.22,4.93-8.21.41-8.21.41,6,2.05,8.21,2.05,6.71-5.34,8.21-4.1,4.85,4.93,7.08,4.93a3.06,3.06,0,0,1,2.26,1.15l.3,4.9c-5.12,2.2-10.54,4.52-14.43,5.88-6.88,2.4-12.16,1.81-17.45,5.41s-12.16,3-18,6.61c-3.51,2.17-7.2,4.11-9.12,3.87,9.8-27.69,15.21-43.62,26.59-57.79,17.16-21.35,63.4-30,63.4-30,4.1.82,8.21,4.52,14.92,10.26s11.19,9.45,14.92,16.42c0,0-7.46,3.56-9.2,5.75s-3.23,6-3,7.94-3.73,4.38-3.73,4.38,5-.82,5.72-2.46,0-6.3,2.49-8.48c2.1-1.85,6.84-5.05,8.28-6,3.53,7.08,6.89,18.07,6.89,23.53,0,4.27,1.64,13.06,2.8,18.14-2,.78-6.9,2.68-8.27,3.75-1.74,1.37-4.23,8.48-4,9.31s3.73-6.57,3.73-6.57,4.72-2.74,6.71-3a8.62,8.62,0,0,0,2.46-.79c.11.4.21.73.28.93.74,2.05,7.46,19.29,7.46,19.29s-1.49-10.26-4.1-16.42-3.36-13.55-4.1-21.35a133.29,133.29,0,0,0-2.3-15.12c1.16,1.14,2.42,2.39,2.8,2.8.75.82,6.71,6.57,6.71,6.57s1.4,1.08,3.21,2.35c0,2.52,0,9.24.76,11.88,1,3.28,5.47,10.13,5.47,10.13s-1.74-4.65-2.73-7.67a25.57,25.57,0,0,1-1-8.48,29.23,29.23,0,0,0-.36-4.41,18.34,18.34,0,0,0,4.84,2.5c2.74.55,10.19,5.75,10.19,5.75s-5-6.3-8-6.3-11.19-6-13.18-8.76c-1.37-1.88-6.63-7.28-9.78-10.45-.26-.9-.52-1.77-.79-2.55-1.86-5.34-7.83-15.19-4.85-14.78s8.21,3.28,13.8,4.1,17.53-1.64,22.38-.82,12.68,7.8,16.78,13.55,12.31,14,12.31,14a33.83,33.83,0,0,0-4.85-7.8c-2.09-2.56-5.48-7.19-8.74-11.11,1.75-.77,5-2,7.5-1.62,3.48.55,8-1.64,8-1.64s-5.47.55-8.45.55c-2.78,0-8.77-.23-9.6-.27a27.49,27.49,0,0,0-2.84-2.74c-4.1-3.28-5.22-5.34-1.49-7.39,3.19-1.76,13.19-5.61,19.52-6.43a17,17,0,0,1,3.85,4,38.5,38.5,0,0,0,10.19,9.58c3.48,2.19,12.43,3.56,12.43,3.56s-8.45-2.46-11.43-4.1-12.19-13.14-12.19-13.14c5.6.41,19,1.23,19,1.23s-7.46-1.64-14.55-2.87-23.5,1.64-28,5.75-10.44,4.11-17.15,4.51-23.5-4.51-29.09-5.34-11.94-10.27-18.65-14.37-4.85-8.62-1.87-11.09,11.19-17.65,14.55-22.58,9-1.64,11.56,0,13.42,8.62,18.27,11.9c.37.28-.37,7.39-.87,9.58,0,.2-.1.46-.14.71-.61.22-5.09,1.82-6.82,1.82s-4.85.82-5.41,1.64-5.6,1.85-6.53,1.64-6.53-2.67-6.53-2.67l-5.22,1.85s4.1-.2,5.22-.2,4.29,2.05,5.78,2.05-.56,1.44-1.68,2.26-5.6,1.44-6.9,2.06-1.68,4.31-1.68,4.31,2.43-3.49,4.67-3.9,6.34-.82,7.46-2.67,3.91-1.85,4.66-2.26,3.92.41,3.92.41-2.61,6.16-1.12,7a7.81,7.81,0,0,1,2.4,3.07,16.08,16.08,0,0,1-.9-2.24c-.19-.82-.93-1,0-3.28a25,25,0,0,0,1.3-5.54,25.63,25.63,0,0,1,2.61-1.44c1.68-.82,2.61-1.64,4.1-1a.74.74,0,0,0,.38.06,13.9,13.9,0,0,0,1.43,7.06c2,3.56,6,14.23,6,14.23a16.47,16.47,0,0,0-1-6.3c-1.24-3.56-5-9.85-4.73-13.68a30.53,30.53,0,0,1,2.49-9.85,9.41,9.41,0,0,0,.75-3.3c4.33,1.58,11.29,4,13.54,4,3.36,0,9.32,5.34,12.68,7S813,291.77,813,291.77s-12.31-8.21-16.78-9.44c0,0,6.71-.82,8.45-2.19s6.22-.27,8.7-.27,5-3.28,5-3.28-3.73,2.47-7.71,1.64A15.73,15.73,0,0,0,801,279c-1.87.82-6.26,1.34-8.33,1.54a67.69,67.69,0,0,1-8.7-6.88s14.17-4.52,21.26-6.16,14.54-.41,19,4.51a8.5,8.5,0,0,0,2,1.56c.6,2.8,1.76,8.27,2.13,10.08.5,2.46,5.22,6.57,5.22,6.57l4.48,6.3L835.29,290l-3.73-4.1-2.24-6.57-.41-4.47C834.58,276.81,842.13,276.58,842.13,276.58ZM578.75,724.32l-14-7.47,14-5.62Zm38.85-14.1,4.34,6.57C616,716,615.78,715.68,617.59,710.22Zm-32.67-40.46-1.11.62L572,655.53c5.87-.85,9.39,1.72,12.59,5-2.08-3.9-5.07-6.87-9.69-7.81-3.13-.63-4.54-2.4-5.14-5.27a51.65,51.65,0,0,1,.33-22.94c1.45-6,2.85-12.21,7.83-17.51C585,627.81,590.51,648.23,584.93,669.77Zm26.86,33.62c3.7,4,3.75,6,.66,11.25-2.75-.75-5.68-1.31-8.41-2.35-4.87-1.86-6.28-4.46-5.35-9.43.58-3.08,1.4-6.12,2.36-10.26C605.09,696.64,608.56,699.91,611.78,703.38Z"/></svg>