<?xml version="1.0" encoding="iso-8859-1"?>
<!-- Generator: Adobe Illustrator 18.0.0, SVG Export Plug-In . SVG Version: 6.00 Build 0)  -->
<!DOCTYPE svg PUBLIC "-//W3C//DTD SVG 1.1//EN" "http://www.w3.org/Graphics/SVG/1.1/DTD/svg11.dtd">
<svg version="1.1" id="Capa_1" xmlns="http://www.w3.org/2000/svg" xmlns:xlink="http://www.w3.org/1999/xlink" x="0px" y="0px"
	 viewBox="0 0 363.331 363.331" style="enable-background:new 0 0 363.331 363.331;" xml:space="preserve">
<g>
	<path d="M157.313,195.113c53.801,0,97.571-43.766,97.571-97.563C254.884,43.761,211.114,0,157.313,0
		c-53.8,0-97.569,43.761-97.569,97.551C59.743,151.347,103.513,195.113,157.313,195.113z"/>
	<path d="M345.201,256.119c-4.083-14.728-13.92-26.62-26.989-32.627c-6.275-2.885-12.998-4.348-19.979-4.348
		c-9.151,0-18.206,2.504-26.431,7.207c-5.683-3.249-11.763-5.447-17.996-6.497c-10.459-11.435-22.408-21.063-35.204-28.288
		c-1.643-0.927-3.668-0.852-5.238,0.198l-56.048,37.49l-56.052-37.49c-1.567-1.048-3.593-1.126-5.237-0.198
		c-23.671,13.365-43.679,34.166-57.861,60.154c-14.504,26.581-22.171,57.387-22.171,89.086c0,2.761,2.238,5,5,5H244.01
		c9.651,8.179,17.232,13.855,17.619,14.144c3.017,2.253,6.595,3.379,10.172,3.379c3.578,0,7.156-1.126,10.173-3.379
		c0.476-0.355,11.804-8.836,24.491-20.103c18.343-16.289,29.734-29.59,34.824-40.665
		C347.664,285.315,349.054,270.021,345.201,256.119z M325.843,292.084c-9.72,21.145-54.042,54.247-54.042,54.247
		s-44.322-33.102-54.041-54.247c-9.72-21.144-3.124-44.939,14.732-53.146c4.124-1.896,8.486-2.794,12.88-2.794
		c9.358,0.001,18.851,4.079,26.43,11.276c7.581-7.198,17.07-11.276,26.431-11.276c4.392,0,8.756,0.898,12.88,2.794
		C328.967,247.145,335.563,270.94,325.843,292.084z"/>
</g>
<g>
</g>
<g>
</g>
<g>
</g>
<g>
</g>
<g>
</g>
<g>
</g>
<g>
</g>
<g>
</g>
<g>
</g>
<g>
</g>
<g>
</g>
<g>
</g>
<g>
</g>
<g>
</g>
<g>
</g>
</svg>
