<?xml version="1.0" encoding="utf-8"?>
<!-- Generator: Adobe Illustrator 21.1.0, SVG Export Plug-In . SVG Version: 6.00 Build 0)  -->
<svg version="1.1" id="Layer_1" xmlns="http://www.w3.org/2000/svg" xmlns:xlink="http://www.w3.org/1999/xlink" x="0px" y="0px"
	 viewBox="0 0 505 505" style="enable-background:new 0 0 505 505;" xml:space="preserve">
<style type="text/css">
	.st0{fill:#C1C1C1;}
	.st1{fill:#454545;}
	.st2{fill:#FFFFFF;}
	.st3{fill:#E9E9E9;}
	.st4{fill:#989898;}
	.st5{fill:#A4A4A4;}
</style>
<circle class="st0" cx="252.5" cy="252.5" r="252.5"/>
<path class="st1" d="M379.9,430.1H125.1c-2.6,0-4.7-2.1-4.7-4.7V102.5c0-2.6,2.1-4.7,4.7-4.7H380c2.6,0,4.7,2.1,4.7,4.7v323
	C384.6,428,382.5,430.1,379.9,430.1z"/>
<polygon class="st2" points="146.4,116.8 146.4,379.6 321.6,379.6 321.6,342.7 358.6,342.7 358.6,116.8 "/>
<polygon class="st3" points="321.6,379.6 358.6,342.7 321.6,342.7 "/>
<path class="st4" d="M273.3,87.2v-7.3c0-11.5-9.3-20.8-20.8-20.8c-11.5,0-20.8,9.3-20.8,20.8v7.3H195v42.6h115.1V87.2H273.3z"/>
<circle class="st0" cx="252.5" cy="79.9" r="10.4"/>
<path class="st3" d="M295.1,309.1H176.6V190.6h118.5V309.1z M188.3,297.5h95.2v-95.2h-95.2V297.5z"/>
<polygon class="st5" points="243.9,285.4 200.3,241.8 220.9,221.2 243.9,244.2 307.8,180.4 328.4,201 "/>
</svg>
