<?xml version="1.0" encoding="utf-8"?>
<!-- Generator: Adobe Illustrator 21.1.0, SVG Export Plug-In . SVG Version: 6.00 Build 0)  -->
<svg version="1.1" id="Capa_1" xmlns="http://www.w3.org/2000/svg" xmlns:xlink="http://www.w3.org/1999/xlink" x="0px" y="0px"
	 viewBox="0 0 59 59" style="enable-background:new 0 0 59 59;" xml:space="preserve">
<style type="text/css">
	.st0{fill:#EFEFEF;}
	.st1{fill:#606060;}
	.st2{fill:#A4A4A4;}
	.st3{fill:#FFFFFF;}
</style>
<g>
	<path class="st0" d="M18.6,42.6l-7.9,4.3c-0.5,0.3-0.9,0.6-1.3,0.9C14,51.7,20,54,26.5,54c6.5,0,12.4-2.3,17-6.1
		c-0.4-0.4-0.9-0.7-1.4-0.9l-8.5-4.2c-1.1-0.5-1.8-1.7-1.8-2.9v-3.3c0.2-0.3,0.5-0.6,0.8-1c1.2-1.6,2-3.4,2.6-5.3
		c1.1-0.3,1.9-1.3,1.9-2.5v-3.5c0-0.8-0.3-1.5-0.9-2V17c0,0,1.1-8-9.8-8s-9.8,8-9.8,8v5.1c-0.5,0.5-0.9,1.2-0.9,2v3.5
		c0,0.9,0.5,1.8,1.2,2.2c0.9,3.9,3.2,6.6,3.2,6.6v3.2C20.3,40.9,19.6,42,18.6,42.6z"/>
	<g>
		<path class="st1" d="M27,1C12.3,0.8,0.3,12.4,0,27c-0.1,8.3,3.6,15.8,9.4,20.7c0.4-0.3,0.8-0.6,1.3-0.9l7.9-4.3
			c1-0.6,1.7-1.7,1.7-2.8v-3.2c0,0-2.3-2.8-3.2-6.6c-0.7-0.5-1.2-1.3-1.2-2.2v-3.5c0-0.8,0.3-1.5,0.9-2V17c0,0-1.1-8,9.8-8
			s9.8,8,9.8,8v5.1c0.5,0.5,0.9,1.2,0.9,2v3.5c0,1.2-0.8,2.2-1.9,2.5c-0.6,1.9-1.5,3.7-2.6,5.3c-0.3,0.4-0.6,0.8-0.8,1v3.3
			c0,1.2,0.7,2.3,1.8,2.9l8.5,4.2c0.5,0.3,1,0.6,1.4,0.9C49.2,43.1,52.9,36,53,28C53.2,13.3,41.6,1.3,27,1z"/>
	</g>
	<g>
		<circle class="st2" cx="47" cy="46" r="12"/>
		<path class="st3" d="M53,45h-5v-5c0-0.6-0.4-1-1-1s-1,0.4-1,1v5h-5c-0.6,0-1,0.4-1,1s0.4,1,1,1h5v5c0,0.6,0.4,1,1,1s1-0.4,1-1v-5
			h5c0.6,0,1-0.4,1-1S53.6,45,53,45z"/>
	</g>
</g>
</svg>
