<?xml version="1.0" encoding="utf-8"?>
<!-- Generator: Adobe Illustrator 21.1.0, SVG Export Plug-In . SVG Version: 6.00 Build 0)  -->
<svg version="1.1" id="Layer_1" xmlns="http://www.w3.org/2000/svg" xmlns:xlink="http://www.w3.org/1999/xlink" x="0px" y="0px"
	 viewBox="0 0 504.1 504.1" style="enable-background:new 0 0 504.1 504.1;" xml:space="preserve">
<style type="text/css">
	.st0{fill:#EDEDED;}
	.st1{fill:#8D8D8D;}
	.st2{fill:#C6C6C6;}
	.st3{fill:#464646;}
	.st4{fill:#A3A3A3;}
	.st5{fill:#3C3C3C;}
	.st6{fill:#7F7F7F;}
</style>
<path class="st0" d="M252.1,0C113,0,0,113,0,252.1s113,252.1,252.1,252.1s252.1-113,252.1-252.1S391.1,0,252.1,0z"/>
<path class="st1" d="M252.1,110.3c78.4,0,141.8,63.4,141.8,141.8s-63.4,141.8-141.8,141.8s-141.8-63.4-141.8-141.8
	S173.7,110.3,252.1,110.3z"/>
<path class="st2" d="M299.3,165.4c17.3,0,31.5,14.2,31.5,31.5s-14.2,31.5-31.5,31.5c-17.3,0-31.5-14.2-31.5-31.5
	S282,165.4,299.3,165.4z"/>
<path class="st3" d="M252.1,181.2c39,0,70.9,31.9,70.9,70.9S291.1,323,252.1,323s-70.9-31.5-70.9-70.9S213.1,181.2,252.1,181.2z"/>
<path class="st4" d="M270.6,183.5c-2,3.9-2.8,8.7-2.8,13.4c0,17.3,14.2,31.5,31.5,31.5c6.3,0,12.6-2,17.3-5.1
	C308.4,204,291.4,189.4,270.6,183.5z"/>
<path class="st5" d="M263.9,311.1c-39,0-70.9-31.9-70.9-70.9c0-16.5,5.9-31.9,15.4-43.7c-16.5,13-27.2,33.1-27.2,55.5
	c0,39,31.9,70.9,70.9,70.9c22.4,0,42.5-10.6,55.5-27.2C295.8,305.6,280.4,311.1,263.9,311.1z"/>
<path class="st6" d="M271.8,370.2c-78.4,0-141.8-63.4-141.8-141.8c0-28.8,8.7-55.9,23.6-78.4c-26.8,26-43.3,61.8-43.3,102
	c0,78.4,63.4,141.8,141.8,141.8c49.2,0,92.9-25.2,118.2-63.4C344.6,354.9,310,370.2,271.8,370.2z"/>
</svg>
